G04 #@! TF.FileFunction,Copper,L2,Bot,Signal*
%FSLAX46Y46*%
G04 Gerber Fmt 4.6, Leading zero omitted, Abs format (unit mm)*
G04 Created by KiCad (PCBNEW 4.0.7) date 08/13/18 10:27:34*
%MOMM*%
%LPD*%
G01*
G04 APERTURE LIST*
%ADD10C,0.100000*%
%ADD11C,0.600000*%
%ADD12C,1.520000*%
%ADD13C,1.524000*%
%ADD14C,5.080000*%
%ADD15C,0.406400*%
%ADD16C,0.762000*%
%ADD17C,0.127000*%
%ADD18C,0.254000*%
G04 APERTURE END LIST*
D10*
D11*
X144576800Y-163017200D03*
X145846800Y-161848800D03*
X144576800Y-161848800D03*
X145846800Y-163017200D03*
D12*
X119278400Y-204774800D03*
X121818400Y-204774800D03*
X124358400Y-204774800D03*
X126898400Y-204774800D03*
X129438400Y-204774800D03*
X131978400Y-204774800D03*
X134518400Y-204774800D03*
X137058400Y-204774800D03*
X139598400Y-204774800D03*
X142138400Y-204774800D03*
X119278400Y-207314800D03*
X121818400Y-207314800D03*
X124358400Y-207314800D03*
X126898400Y-207314800D03*
X129438400Y-207314800D03*
X131978400Y-207314800D03*
X134518400Y-207314800D03*
X137058400Y-207314800D03*
X139598400Y-207314800D03*
X142138400Y-207314800D03*
X119278400Y-164134800D03*
X121818400Y-164134800D03*
X124358400Y-164134800D03*
X126898400Y-164134800D03*
X129438400Y-164134800D03*
X131978400Y-164134800D03*
X134518400Y-164134800D03*
X137058400Y-164134800D03*
X139598400Y-164134800D03*
X142138400Y-164134800D03*
X119278400Y-161594800D03*
X121818400Y-161594800D03*
X124358400Y-161594800D03*
X126898400Y-161594800D03*
X129438400Y-161594800D03*
X131978400Y-161594800D03*
X134518400Y-161594800D03*
X137058400Y-161594800D03*
X139598400Y-161594800D03*
X142138400Y-161594800D03*
D13*
X149860000Y-197485000D03*
X152400000Y-197485000D03*
X154940000Y-197485000D03*
X137541000Y-185801000D03*
X137541000Y-183261000D03*
X137541000Y-180721000D03*
X122174000Y-182372000D03*
X122174000Y-179832000D03*
D11*
X162560000Y-178816000D03*
X161290000Y-178816000D03*
X160020000Y-178816000D03*
X158750000Y-178816000D03*
X158750000Y-176530000D03*
X168910000Y-180340000D03*
X167640000Y-180340000D03*
X166370000Y-180340000D03*
X165100000Y-180340000D03*
X168910000Y-179070000D03*
X167640000Y-179070000D03*
X166370000Y-179070000D03*
X165100000Y-179070000D03*
X168910000Y-177800000D03*
X167640000Y-177800000D03*
X166370000Y-177800000D03*
X165100000Y-177800000D03*
X168910000Y-176530000D03*
X167640000Y-176530000D03*
X166370000Y-176530000D03*
X165100000Y-176530000D03*
X168910000Y-175260000D03*
X167640000Y-175260000D03*
X166370000Y-175260000D03*
X165100000Y-175260000D03*
X168910000Y-172720000D03*
X167640000Y-172720000D03*
X166370000Y-172720000D03*
X165100000Y-172720000D03*
X168910000Y-171450000D03*
X167640000Y-171450000D03*
X166370000Y-171450000D03*
X165100000Y-171450000D03*
X168910000Y-170180000D03*
X167640000Y-170180000D03*
X166370000Y-170180000D03*
X165100000Y-170180000D03*
X168910000Y-168910000D03*
X167640000Y-168910000D03*
X166370000Y-168910000D03*
X165100000Y-168910000D03*
X168910000Y-167640000D03*
X167640000Y-167640000D03*
X166370000Y-167640000D03*
X165100000Y-167640000D03*
X156210000Y-162560000D03*
X154940000Y-162560000D03*
X153670000Y-162560000D03*
X152400000Y-162560000D03*
X156210000Y-161290000D03*
X154940000Y-161290000D03*
X153670000Y-161290000D03*
X152400000Y-161290000D03*
X156210000Y-160020000D03*
X154940000Y-160020000D03*
X153670000Y-160020000D03*
X152400000Y-160020000D03*
X156210000Y-158750000D03*
X154940000Y-158750000D03*
X153670000Y-158750000D03*
X152400000Y-158750000D03*
X156210000Y-157480000D03*
X154940000Y-157480000D03*
X153670000Y-157480000D03*
X152400000Y-157480000D03*
X156210000Y-153670000D03*
X154940000Y-153670000D03*
X153670000Y-153670000D03*
X152400000Y-153670000D03*
X156210000Y-152400000D03*
X154940000Y-152400000D03*
X153670000Y-152400000D03*
X152400000Y-152400000D03*
X156210000Y-151130000D03*
X154940000Y-151130000D03*
X153670000Y-151130000D03*
X152400000Y-151130000D03*
X156210000Y-149860000D03*
X154940000Y-149860000D03*
X153670000Y-149860000D03*
X152400000Y-149860000D03*
X156210000Y-148590000D03*
X154940000Y-148590000D03*
X153670000Y-148590000D03*
X152400000Y-148590000D03*
X162560000Y-160020000D03*
X161290000Y-160020000D03*
X160020000Y-160020000D03*
X158750000Y-160020000D03*
X162560000Y-158750000D03*
X161290000Y-158750000D03*
X160020000Y-158750000D03*
X158750000Y-158750000D03*
X162560000Y-157480000D03*
X161290000Y-157480000D03*
X160020000Y-157480000D03*
X158750000Y-157480000D03*
X162560000Y-156210000D03*
X161290000Y-156210000D03*
X160020000Y-156210000D03*
X158750000Y-156210000D03*
X162560000Y-154940000D03*
X161290000Y-154940000D03*
X160020000Y-154940000D03*
X158750000Y-154940000D03*
X162560000Y-153670000D03*
X161290000Y-153670000D03*
X160020000Y-153670000D03*
X158750000Y-153670000D03*
X162560000Y-152400000D03*
X161290000Y-152400000D03*
X160020000Y-152400000D03*
X158750000Y-152400000D03*
X162560000Y-151130000D03*
X161290000Y-151130000D03*
X160020000Y-151130000D03*
X158750000Y-151130000D03*
X162560000Y-168910000D03*
X161290000Y-168910000D03*
X160020000Y-168910000D03*
X158750000Y-168910000D03*
X162560000Y-170180000D03*
X161290000Y-170180000D03*
X160020000Y-170180000D03*
X158750000Y-170180000D03*
X162560000Y-171450000D03*
X161290000Y-171450000D03*
X160020000Y-171450000D03*
X158750000Y-171450000D03*
X162560000Y-172720000D03*
X161290000Y-172720000D03*
X160020000Y-172720000D03*
X158750000Y-172720000D03*
X162560000Y-173990000D03*
X161290000Y-173990000D03*
X160020000Y-173990000D03*
X158750000Y-173990000D03*
X162560000Y-175260000D03*
X161290000Y-175260000D03*
X160020000Y-175260000D03*
X158750000Y-175260000D03*
X162560000Y-176530000D03*
X161290000Y-176530000D03*
X160020000Y-176530000D03*
X158750000Y-176530000D03*
X162560000Y-177800000D03*
X161290000Y-177800000D03*
X160020000Y-177800000D03*
D14*
X139980400Y-142367000D03*
X147979400Y-142367000D03*
X155980400Y-142367000D03*
X122071400Y-142367000D03*
X130072400Y-142367000D03*
X166013400Y-142367000D03*
X174014400Y-142367000D03*
D13*
X135001000Y-166497000D03*
X135001000Y-174117000D03*
X137541000Y-166497000D03*
X137541000Y-174117000D03*
X140081000Y-166497000D03*
X140081000Y-174117000D03*
D11*
X158750000Y-177800000D03*
D13*
X122174000Y-174625000D03*
X122174000Y-172085000D03*
X122174000Y-190119000D03*
X122174000Y-187579000D03*
X122174000Y-197866000D03*
X122174000Y-195326000D03*
X138430000Y-197485000D03*
X140970000Y-197485000D03*
X143510000Y-197485000D03*
D11*
X126492000Y-174371000D03*
X147701000Y-166605939D03*
X143891000Y-171837599D03*
X121793000Y-170180000D03*
X147015200Y-170688000D03*
X160782000Y-184023000D03*
X119380000Y-168148000D03*
X140081000Y-168529000D03*
X138811000Y-169926000D03*
X123952000Y-171958000D03*
X128397000Y-174117000D03*
X145745200Y-180289200D03*
X145948400Y-164439600D03*
X157480000Y-163703000D03*
D15*
X140208000Y-195707000D02*
X148082000Y-195707000D01*
X148082000Y-195707000D02*
X149860000Y-197485000D01*
X140208000Y-180721000D02*
X140208000Y-195707000D01*
X140208000Y-195707000D02*
X138430000Y-197485000D01*
X140208000Y-180721000D02*
X140208000Y-177546000D01*
X137541000Y-180721000D02*
X140208000Y-180721000D01*
X147701000Y-166605939D02*
X147015200Y-167291739D01*
X147015200Y-167291739D02*
X147015200Y-167335200D01*
X140208000Y-177546000D02*
X143891000Y-173863000D01*
X143891000Y-173863000D02*
X143891000Y-171837599D01*
X120777000Y-197866000D02*
X120777000Y-203835000D01*
X120777000Y-203835000D02*
X120523000Y-204089000D01*
X120523000Y-204089000D02*
X120523000Y-206070200D01*
X120523000Y-206070200D02*
X120038399Y-206554801D01*
X120038399Y-206554801D02*
X119278400Y-207314800D01*
X120777000Y-190119000D02*
X120777000Y-197866000D01*
X122174000Y-197866000D02*
X121096370Y-197866000D01*
X121096370Y-197866000D02*
X120777000Y-197866000D01*
X120777000Y-176022000D02*
X120777000Y-174625000D01*
X120777000Y-174625000D02*
X120777000Y-171196000D01*
X122174000Y-174625000D02*
X121096370Y-174625000D01*
X121096370Y-174625000D02*
X120777000Y-174625000D01*
X120777000Y-171196000D02*
X121793000Y-170180000D01*
X120777000Y-176022000D02*
X120777000Y-182372000D01*
X120777000Y-182372000D02*
X120777000Y-190119000D01*
X122174000Y-182372000D02*
X120777000Y-182372000D01*
X122174000Y-190119000D02*
X120777000Y-190119000D01*
X147015200Y-170688000D02*
X147015200Y-167335200D01*
D16*
X160782000Y-184023000D02*
X160782000Y-179324000D01*
X160782000Y-179324000D02*
X161290000Y-178816000D01*
D15*
X119380000Y-168148000D02*
X119380000Y-164236400D01*
X119380000Y-164236400D02*
X119278400Y-164134800D01*
X140081000Y-166497000D02*
X140081000Y-168529000D01*
X138811000Y-165862000D02*
X138811000Y-169926000D01*
X138811000Y-169926000D02*
X138811000Y-172847000D01*
X138811000Y-172847000D02*
X137541000Y-174117000D01*
X137058400Y-164134800D02*
X137818399Y-164894799D01*
X137818399Y-164894799D02*
X137843799Y-164894799D01*
X137843799Y-164894799D02*
X138811000Y-165862000D01*
X123952000Y-171958000D02*
X123952000Y-166268400D01*
X123952000Y-166268400D02*
X121818400Y-164134800D01*
X128016000Y-172847000D02*
X128016000Y-173736000D01*
X128016000Y-173736000D02*
X128397000Y-174117000D01*
X128016000Y-165481000D02*
X128016000Y-172847000D01*
X128011461Y-165476461D02*
X128016000Y-165481000D01*
X126898400Y-161594800D02*
X128011461Y-162707861D01*
X128011461Y-162707861D02*
X128011461Y-165476461D01*
X133223000Y-164465000D02*
X133223000Y-197485000D01*
X134620000Y-198882000D02*
X139573000Y-198882000D01*
X133223000Y-197485000D02*
X134620000Y-198882000D01*
X139573000Y-198882000D02*
X140970000Y-197485000D01*
X133223000Y-164465000D02*
X133223000Y-164592000D01*
X133223000Y-162890200D02*
X133223000Y-164465000D01*
X134518400Y-161594800D02*
X133223000Y-162890200D01*
X131978400Y-161594800D02*
X130683000Y-162890200D01*
X130683000Y-162890200D02*
X130683000Y-165227000D01*
X130683000Y-165227000D02*
X132666730Y-167210730D01*
X132666730Y-167210730D02*
X132666731Y-197715415D01*
X132666731Y-197715415D02*
X134389586Y-199438270D01*
X134389586Y-199438270D02*
X150446730Y-199438270D01*
X150446730Y-199438270D02*
X152400000Y-197485000D01*
X145948400Y-164439600D02*
X145948400Y-180086000D01*
X145948400Y-180086000D02*
X145745200Y-180289200D01*
X157480000Y-154432000D02*
X157480000Y-163703000D01*
X157480000Y-148082000D02*
X157480000Y-154432000D01*
X156845000Y-147447000D02*
X157480000Y-148082000D01*
X156033531Y-147447000D02*
X156845000Y-147447000D01*
X153035000Y-147447000D02*
X156033531Y-147447000D01*
X150519399Y-144931399D02*
X153035000Y-147447000D01*
X147979400Y-142367000D02*
X150519399Y-144906999D01*
X150519399Y-144906999D02*
X150519399Y-144931399D01*
D17*
G36*
X159541492Y-140878126D02*
X159550255Y-140894005D01*
X163322126Y-145880975D01*
X163347399Y-150152197D01*
X163258663Y-185101567D01*
X158178287Y-185027220D01*
X158051500Y-147878583D01*
X158046412Y-147853895D01*
X158024762Y-147827023D01*
X157806286Y-147671905D01*
X157213191Y-147078809D01*
X157044263Y-146965936D01*
X156845000Y-146926299D01*
X156844995Y-146926300D01*
X156756138Y-146926300D01*
X152970724Y-144238656D01*
X152846030Y-139001500D01*
X158833097Y-139001500D01*
X159541492Y-140878126D01*
X159541492Y-140878126D01*
G37*
X159541492Y-140878126D02*
X159550255Y-140894005D01*
X163322126Y-145880975D01*
X163347399Y-150152197D01*
X163258663Y-185101567D01*
X158178287Y-185027220D01*
X158051500Y-147878583D01*
X158046412Y-147853895D01*
X158024762Y-147827023D01*
X157806286Y-147671905D01*
X157213191Y-147078809D01*
X157044263Y-146965936D01*
X156845000Y-146926299D01*
X156844995Y-146926300D01*
X156756138Y-146926300D01*
X152970724Y-144238656D01*
X152846030Y-139001500D01*
X158833097Y-139001500D01*
X159541492Y-140878126D01*
G36*
X133921500Y-145669000D02*
X133926503Y-145693705D01*
X133944486Y-145717896D01*
X136611486Y-147927696D01*
X136633701Y-147939606D01*
X136651788Y-147942300D01*
X151840988Y-147993100D01*
X156679277Y-148017659D01*
X156781500Y-148119882D01*
X156781500Y-154291974D01*
X151892326Y-154266901D01*
X151892000Y-154266900D01*
X132559702Y-154266900D01*
X126301500Y-149194728D01*
X126301500Y-139636500D01*
X133921500Y-139636500D01*
X133921500Y-145669000D01*
X133921500Y-145669000D01*
G37*
X133921500Y-145669000D02*
X133926503Y-145693705D01*
X133944486Y-145717896D01*
X136611486Y-147927696D01*
X136633701Y-147939606D01*
X136651788Y-147942300D01*
X151840988Y-147993100D01*
X156679277Y-148017659D01*
X156781500Y-148119882D01*
X156781500Y-154291974D01*
X151892326Y-154266901D01*
X151892000Y-154266900D01*
X132559702Y-154266900D01*
X126301500Y-149194728D01*
X126301500Y-139636500D01*
X133921500Y-139636500D01*
X133921500Y-145669000D01*
G36*
X125666500Y-149733000D02*
X125671503Y-149757705D01*
X125689736Y-149782103D01*
X132039736Y-154989103D01*
X132062012Y-155000899D01*
X132080000Y-155003500D01*
X156959300Y-155003500D01*
X156959300Y-162880589D01*
X151396146Y-163004215D01*
X144169642Y-159961476D01*
X144144678Y-159956501D01*
X119189500Y-160083177D01*
X119189500Y-139636500D01*
X125666500Y-139636500D01*
X125666500Y-149733000D01*
X125666500Y-149733000D01*
G37*
X125666500Y-149733000D02*
X125671503Y-149757705D01*
X125689736Y-149782103D01*
X132039736Y-154989103D01*
X132062012Y-155000899D01*
X132080000Y-155003500D01*
X156959300Y-155003500D01*
X156959300Y-162880589D01*
X151396146Y-163004215D01*
X144169642Y-159961476D01*
X144144678Y-159956501D01*
X119189500Y-160083177D01*
X119189500Y-139636500D01*
X125666500Y-139636500D01*
X125666500Y-149733000D01*
G36*
X169862018Y-173163124D02*
X164020500Y-173038836D01*
X164020500Y-172974000D01*
X164147499Y-145669295D01*
X164142611Y-145644567D01*
X164132213Y-145627675D01*
X162623500Y-143867510D01*
X162623500Y-139001500D01*
X169608969Y-139001500D01*
X169862018Y-173163124D01*
X169862018Y-173163124D01*
G37*
X169862018Y-173163124D02*
X164020500Y-173038836D01*
X164020500Y-172974000D01*
X164147499Y-145669295D01*
X164142611Y-145644567D01*
X164132213Y-145627675D01*
X162623500Y-143867510D01*
X162623500Y-139001500D01*
X169608969Y-139001500D01*
X169862018Y-173163124D01*
G36*
X176674619Y-139555381D02*
X176971700Y-139999993D01*
X176847688Y-181420112D01*
X163893500Y-181545881D01*
X163893500Y-174561500D01*
X170688000Y-174561500D01*
X170712705Y-174556497D01*
X170733517Y-174542277D01*
X170747157Y-174521080D01*
X170751500Y-174497772D01*
X170624728Y-139128500D01*
X176035748Y-139128500D01*
X176674619Y-139555381D01*
X176674619Y-139555381D01*
G37*
X176674619Y-139555381D02*
X176971700Y-139999993D01*
X176847688Y-181420112D01*
X163893500Y-181545881D01*
X163893500Y-174561500D01*
X170688000Y-174561500D01*
X170712705Y-174556497D01*
X170733517Y-174542277D01*
X170747157Y-174521080D01*
X170751500Y-174497772D01*
X170624728Y-139128500D01*
X176035748Y-139128500D01*
X176674619Y-139555381D01*
D18*
G36*
X120851671Y-160947631D02*
X120677598Y-161366845D01*
X120677202Y-161820763D01*
X120850543Y-162240280D01*
X121171231Y-162561529D01*
X121590445Y-162735602D01*
X122044363Y-162735998D01*
X122463880Y-162562657D01*
X122785129Y-162241969D01*
X122959202Y-161822755D01*
X122959598Y-161368837D01*
X122786257Y-160949320D01*
X122492451Y-160655000D01*
X123684814Y-160655000D01*
X123391671Y-160947631D01*
X123217598Y-161366845D01*
X123217202Y-161820763D01*
X123390543Y-162240280D01*
X123711231Y-162561529D01*
X124130445Y-162735602D01*
X124584363Y-162735998D01*
X125003880Y-162562657D01*
X125325129Y-162241969D01*
X125499202Y-161822755D01*
X125499598Y-161368837D01*
X125326257Y-160949320D01*
X125032451Y-160655000D01*
X126224814Y-160655000D01*
X125931671Y-160947631D01*
X125757598Y-161366845D01*
X125757202Y-161820763D01*
X125930543Y-162240280D01*
X126251231Y-162561529D01*
X126670445Y-162735602D01*
X127124363Y-162735998D01*
X127187377Y-162709961D01*
X127427261Y-162949845D01*
X127427261Y-163118945D01*
X127126355Y-162993998D01*
X126672437Y-162993602D01*
X126252920Y-163166943D01*
X125931671Y-163487631D01*
X125757598Y-163906845D01*
X125757202Y-164360763D01*
X125930543Y-164780280D01*
X126251231Y-165101529D01*
X126670445Y-165275602D01*
X127124363Y-165275998D01*
X127427261Y-165150843D01*
X127427261Y-165476461D01*
X127431800Y-165499280D01*
X127431800Y-173736000D01*
X127476270Y-173959564D01*
X127581465Y-174117000D01*
X127602908Y-174149092D01*
X127723065Y-174269249D01*
X127819339Y-174502252D01*
X128010741Y-174693987D01*
X128260946Y-174797882D01*
X128531865Y-174798118D01*
X128782252Y-174694661D01*
X128973987Y-174503259D01*
X129077882Y-174253054D01*
X129078118Y-173982135D01*
X128974661Y-173731748D01*
X128783259Y-173540013D01*
X128600200Y-173464000D01*
X128600200Y-165481000D01*
X128595661Y-165458181D01*
X128595661Y-164905617D01*
X128791231Y-165101529D01*
X129210445Y-165275602D01*
X129664363Y-165275998D01*
X130083880Y-165102657D01*
X130098800Y-165087763D01*
X130098800Y-165227000D01*
X130143270Y-165450564D01*
X130268802Y-165638436D01*
X130269908Y-165640092D01*
X132082530Y-167452714D01*
X132082531Y-197715415D01*
X132127001Y-197938979D01*
X132214012Y-198069200D01*
X132253639Y-198128507D01*
X133976494Y-199851362D01*
X134166022Y-199978000D01*
X134389586Y-200022470D01*
X150446730Y-200022470D01*
X150670294Y-199978000D01*
X150859822Y-199851362D01*
X152109280Y-198601904D01*
X152171646Y-198627801D01*
X152626359Y-198628198D01*
X153046612Y-198454554D01*
X153368423Y-198133303D01*
X153542801Y-197713354D01*
X153543198Y-197258641D01*
X153369554Y-196838388D01*
X153048303Y-196516577D01*
X152628354Y-196342199D01*
X152173641Y-196341802D01*
X151753388Y-196515446D01*
X151431577Y-196836697D01*
X151257199Y-197256646D01*
X151256802Y-197711359D01*
X151283308Y-197775508D01*
X150204746Y-198854070D01*
X140427114Y-198854070D01*
X140679280Y-198601904D01*
X140741646Y-198627801D01*
X141196359Y-198628198D01*
X141616612Y-198454554D01*
X141938423Y-198133303D01*
X142112801Y-197713354D01*
X142113198Y-197258641D01*
X141939554Y-196838388D01*
X141618303Y-196516577D01*
X141198354Y-196342199D01*
X140743641Y-196341802D01*
X140323388Y-196515446D01*
X140001577Y-196836697D01*
X139827199Y-197256646D01*
X139826802Y-197711359D01*
X139853308Y-197775508D01*
X139331016Y-198297800D01*
X139233639Y-198297800D01*
X139398423Y-198133303D01*
X139572801Y-197713354D01*
X139573198Y-197258641D01*
X139546692Y-197194492D01*
X140449984Y-196291200D01*
X147840016Y-196291200D01*
X148743096Y-197194280D01*
X148717199Y-197256646D01*
X148716802Y-197711359D01*
X148890446Y-198131612D01*
X149211697Y-198453423D01*
X149631646Y-198627801D01*
X150086359Y-198628198D01*
X150506612Y-198454554D01*
X150828423Y-198133303D01*
X151002801Y-197713354D01*
X151003198Y-197258641D01*
X150829554Y-196838388D01*
X150508303Y-196516577D01*
X150088354Y-196342199D01*
X149633641Y-196341802D01*
X149569492Y-196368308D01*
X148495092Y-195293908D01*
X148305564Y-195167270D01*
X148082000Y-195122800D01*
X140792200Y-195122800D01*
X140792200Y-180424065D01*
X145064082Y-180424065D01*
X145167539Y-180674452D01*
X145358941Y-180866187D01*
X145609146Y-180970082D01*
X145880065Y-180970318D01*
X146130452Y-180866861D01*
X146322187Y-180675459D01*
X146426082Y-180425254D01*
X146426102Y-180402396D01*
X146488130Y-180309564D01*
X146532600Y-180086000D01*
X146532600Y-171168478D01*
X146628941Y-171264987D01*
X146879146Y-171368882D01*
X147150065Y-171369118D01*
X147400452Y-171265661D01*
X147592187Y-171074259D01*
X147696082Y-170824054D01*
X147696318Y-170553135D01*
X147599400Y-170318574D01*
X147599400Y-167533723D01*
X147853249Y-167279874D01*
X148086252Y-167183600D01*
X148277987Y-166992198D01*
X148381882Y-166741993D01*
X148382118Y-166471074D01*
X148278661Y-166220687D01*
X148087259Y-166028952D01*
X147837054Y-165925057D01*
X147566135Y-165924821D01*
X147315748Y-166028278D01*
X147124013Y-166219680D01*
X147026685Y-166454070D01*
X146602108Y-166878647D01*
X146532600Y-166982674D01*
X146532600Y-164808488D01*
X146629282Y-164575654D01*
X146629518Y-164304735D01*
X146526061Y-164054348D01*
X146334659Y-163862613D01*
X146084454Y-163758718D01*
X145813535Y-163758482D01*
X145563148Y-163861939D01*
X145371413Y-164053341D01*
X145267518Y-164303546D01*
X145267282Y-164574465D01*
X145364200Y-164809026D01*
X145364200Y-179709782D01*
X145359948Y-179711539D01*
X145168213Y-179902941D01*
X145064318Y-180153146D01*
X145064082Y-180424065D01*
X140792200Y-180424065D01*
X140792200Y-177787984D01*
X144304089Y-174276094D01*
X144304092Y-174276092D01*
X144405138Y-174124865D01*
X144430731Y-174086563D01*
X144475201Y-173863000D01*
X144475200Y-173862995D01*
X144475200Y-172206487D01*
X144571882Y-171973653D01*
X144572118Y-171702734D01*
X144468661Y-171452347D01*
X144277259Y-171260612D01*
X144027054Y-171156717D01*
X143756135Y-171156481D01*
X143505748Y-171259938D01*
X143314013Y-171451340D01*
X143210118Y-171701545D01*
X143209882Y-171972464D01*
X143306800Y-172207025D01*
X143306800Y-173621017D01*
X139794908Y-177132908D01*
X139668270Y-177322436D01*
X139623800Y-177546000D01*
X139623800Y-180136800D01*
X138536342Y-180136800D01*
X138510554Y-180074388D01*
X138189303Y-179752577D01*
X137769354Y-179578199D01*
X137314641Y-179577802D01*
X136894388Y-179751446D01*
X136572577Y-180072697D01*
X136398199Y-180492646D01*
X136397802Y-180947359D01*
X136571446Y-181367612D01*
X136892697Y-181689423D01*
X137312646Y-181863801D01*
X137767359Y-181864198D01*
X138187612Y-181690554D01*
X138509423Y-181369303D01*
X138536041Y-181305200D01*
X139623800Y-181305200D01*
X139623800Y-195465016D01*
X138720720Y-196368096D01*
X138658354Y-196342199D01*
X138203641Y-196341802D01*
X137783388Y-196515446D01*
X137461577Y-196836697D01*
X137287199Y-197256646D01*
X137286802Y-197711359D01*
X137460446Y-198131612D01*
X137626345Y-198297800D01*
X134861984Y-198297800D01*
X133807200Y-197243016D01*
X133807200Y-186027359D01*
X136397802Y-186027359D01*
X136571446Y-186447612D01*
X136892697Y-186769423D01*
X137312646Y-186943801D01*
X137767359Y-186944198D01*
X138187612Y-186770554D01*
X138509423Y-186449303D01*
X138683801Y-186029354D01*
X138684198Y-185574641D01*
X138510554Y-185154388D01*
X138189303Y-184832577D01*
X137769354Y-184658199D01*
X137314641Y-184657802D01*
X136894388Y-184831446D01*
X136572577Y-185152697D01*
X136398199Y-185572646D01*
X136397802Y-186027359D01*
X133807200Y-186027359D01*
X133807200Y-174343359D01*
X133857802Y-174343359D01*
X134031446Y-174763612D01*
X134352697Y-175085423D01*
X134772646Y-175259801D01*
X135227359Y-175260198D01*
X135647612Y-175086554D01*
X135969423Y-174765303D01*
X136143801Y-174345354D01*
X136144198Y-173890641D01*
X135970554Y-173470388D01*
X135649303Y-173148577D01*
X135229354Y-172974199D01*
X134774641Y-172973802D01*
X134354388Y-173147446D01*
X134032577Y-173468697D01*
X133858199Y-173888646D01*
X133857802Y-174343359D01*
X133807200Y-174343359D01*
X133807200Y-166723359D01*
X133857802Y-166723359D01*
X134031446Y-167143612D01*
X134352697Y-167465423D01*
X134772646Y-167639801D01*
X135227359Y-167640198D01*
X135647612Y-167466554D01*
X135969423Y-167145303D01*
X136143801Y-166725354D01*
X136144198Y-166270641D01*
X135970554Y-165850388D01*
X135649303Y-165528577D01*
X135229354Y-165354199D01*
X134774641Y-165353802D01*
X134354388Y-165527446D01*
X134032577Y-165848697D01*
X133858199Y-166268646D01*
X133857802Y-166723359D01*
X133807200Y-166723359D01*
X133807200Y-165037386D01*
X133871231Y-165101529D01*
X134290445Y-165275602D01*
X134744363Y-165275998D01*
X135163880Y-165102657D01*
X135485129Y-164781969D01*
X135659202Y-164362755D01*
X135659203Y-164360763D01*
X135917202Y-164360763D01*
X136090543Y-164780280D01*
X136411231Y-165101529D01*
X136830445Y-165275602D01*
X137284363Y-165275998D01*
X137347377Y-165249961D01*
X137405307Y-165307891D01*
X137474226Y-165353941D01*
X137314641Y-165353802D01*
X136894388Y-165527446D01*
X136572577Y-165848697D01*
X136398199Y-166268646D01*
X136397802Y-166723359D01*
X136571446Y-167143612D01*
X136892697Y-167465423D01*
X137312646Y-167639801D01*
X137767359Y-167640198D01*
X138187612Y-167466554D01*
X138226800Y-167427434D01*
X138226800Y-169557112D01*
X138130118Y-169789946D01*
X138129882Y-170060865D01*
X138226800Y-170295426D01*
X138226800Y-172605016D01*
X137831720Y-173000096D01*
X137769354Y-172974199D01*
X137314641Y-172973802D01*
X136894388Y-173147446D01*
X136572577Y-173468697D01*
X136398199Y-173888646D01*
X136397802Y-174343359D01*
X136571446Y-174763612D01*
X136892697Y-175085423D01*
X137312646Y-175259801D01*
X137767359Y-175260198D01*
X138187612Y-175086554D01*
X138509423Y-174765303D01*
X138683801Y-174345354D01*
X138683802Y-174343359D01*
X138937802Y-174343359D01*
X139111446Y-174763612D01*
X139432697Y-175085423D01*
X139852646Y-175259801D01*
X140307359Y-175260198D01*
X140727612Y-175086554D01*
X141049423Y-174765303D01*
X141223801Y-174345354D01*
X141224198Y-173890641D01*
X141050554Y-173470388D01*
X140729303Y-173148577D01*
X140309354Y-172974199D01*
X139854641Y-172973802D01*
X139434388Y-173147446D01*
X139112577Y-173468697D01*
X138938199Y-173888646D01*
X138937802Y-174343359D01*
X138683802Y-174343359D01*
X138684198Y-173890641D01*
X138657692Y-173826492D01*
X139224092Y-173260092D01*
X139296450Y-173151800D01*
X139350730Y-173070564D01*
X139395200Y-172847000D01*
X139395200Y-170294888D01*
X139491882Y-170062054D01*
X139492118Y-169791135D01*
X139395200Y-169556574D01*
X139395200Y-167427861D01*
X139432697Y-167465423D01*
X139496800Y-167492041D01*
X139496800Y-168160112D01*
X139400118Y-168392946D01*
X139399882Y-168663865D01*
X139503339Y-168914252D01*
X139694741Y-169105987D01*
X139944946Y-169209882D01*
X140215865Y-169210118D01*
X140466252Y-169106661D01*
X140657987Y-168915259D01*
X140761882Y-168665054D01*
X140762118Y-168394135D01*
X140665200Y-168159574D01*
X140665200Y-167492342D01*
X140727612Y-167466554D01*
X141049423Y-167145303D01*
X141223801Y-166725354D01*
X141224198Y-166270641D01*
X141050554Y-165850388D01*
X140729303Y-165528577D01*
X140309354Y-165354199D01*
X139854641Y-165353802D01*
X139434388Y-165527446D01*
X139339717Y-165621953D01*
X139224092Y-165448908D01*
X138256891Y-164481707D01*
X138231887Y-164465000D01*
X138180344Y-164430560D01*
X138173775Y-164423991D01*
X138199202Y-164362755D01*
X138199203Y-164360763D01*
X138457202Y-164360763D01*
X138630543Y-164780280D01*
X138951231Y-165101529D01*
X139370445Y-165275602D01*
X139824363Y-165275998D01*
X140243880Y-165102657D01*
X140565129Y-164781969D01*
X140739202Y-164362755D01*
X140739203Y-164360763D01*
X140997202Y-164360763D01*
X141170543Y-164780280D01*
X141491231Y-165101529D01*
X141910445Y-165275602D01*
X142364363Y-165275998D01*
X142783880Y-165102657D01*
X143105129Y-164781969D01*
X143279202Y-164362755D01*
X143279598Y-163908837D01*
X143106257Y-163489320D01*
X142785569Y-163168071D01*
X142366355Y-162993998D01*
X141912437Y-162993602D01*
X141492920Y-163166943D01*
X141171671Y-163487631D01*
X140997598Y-163906845D01*
X140997202Y-164360763D01*
X140739203Y-164360763D01*
X140739598Y-163908837D01*
X140566257Y-163489320D01*
X140245569Y-163168071D01*
X139826355Y-162993998D01*
X139372437Y-162993602D01*
X138952920Y-163166943D01*
X138631671Y-163487631D01*
X138457598Y-163906845D01*
X138457202Y-164360763D01*
X138199203Y-164360763D01*
X138199598Y-163908837D01*
X138026257Y-163489320D01*
X137705569Y-163168071D01*
X137286355Y-162993998D01*
X136832437Y-162993602D01*
X136412920Y-163166943D01*
X136091671Y-163487631D01*
X135917598Y-163906845D01*
X135917202Y-164360763D01*
X135659203Y-164360763D01*
X135659598Y-163908837D01*
X135486257Y-163489320D01*
X135165569Y-163168071D01*
X134746355Y-162993998D01*
X134292437Y-162993602D01*
X133872920Y-163166943D01*
X133807200Y-163232548D01*
X133807200Y-163132184D01*
X134229209Y-162710175D01*
X134290445Y-162735602D01*
X134744363Y-162735998D01*
X135163880Y-162562657D01*
X135485129Y-162241969D01*
X135659202Y-161822755D01*
X135659598Y-161368837D01*
X135486257Y-160949320D01*
X135192451Y-160655000D01*
X136384814Y-160655000D01*
X136091671Y-160947631D01*
X135917598Y-161366845D01*
X135917202Y-161820763D01*
X136090543Y-162240280D01*
X136411231Y-162561529D01*
X136830445Y-162735602D01*
X137284363Y-162735998D01*
X137703880Y-162562657D01*
X138025129Y-162241969D01*
X138199202Y-161822755D01*
X138199598Y-161368837D01*
X138026257Y-160949320D01*
X137732451Y-160655000D01*
X138924814Y-160655000D01*
X138631671Y-160947631D01*
X138457598Y-161366845D01*
X138457202Y-161820763D01*
X138630543Y-162240280D01*
X138951231Y-162561529D01*
X139370445Y-162735602D01*
X139824363Y-162735998D01*
X140243880Y-162562657D01*
X140565129Y-162241969D01*
X140739202Y-161822755D01*
X140739598Y-161368837D01*
X140566257Y-160949320D01*
X140272451Y-160655000D01*
X141464814Y-160655000D01*
X141171671Y-160947631D01*
X140997598Y-161366845D01*
X140997202Y-161820763D01*
X141170543Y-162240280D01*
X141491231Y-162561529D01*
X141910445Y-162735602D01*
X142364363Y-162735998D01*
X142783880Y-162562657D01*
X143105129Y-162241969D01*
X143279202Y-161822755D01*
X143279598Y-161368837D01*
X143106257Y-160949320D01*
X142812451Y-160655000D01*
X143786310Y-160655000D01*
X150212150Y-163690830D01*
X150266400Y-163703000D01*
X156798999Y-163703000D01*
X156798882Y-163837865D01*
X156843281Y-163945319D01*
X156743401Y-185419409D01*
X156753177Y-185468865D01*
X156781424Y-185510622D01*
X156823691Y-185538099D01*
X156870090Y-185547000D01*
X177267400Y-185596750D01*
X177267400Y-186139552D01*
X177133864Y-186810883D01*
X176777628Y-187344029D01*
X176244485Y-187700263D01*
X175573152Y-187833800D01*
X161188400Y-187833800D01*
X161023463Y-187866608D01*
X160883637Y-187960037D01*
X160790208Y-188099863D01*
X160757400Y-188264800D01*
X160757400Y-209092800D01*
X160790208Y-209257737D01*
X160883637Y-209397563D01*
X161023463Y-209490992D01*
X161188400Y-209523800D01*
X175674752Y-209523800D01*
X176307204Y-209649603D01*
X176807385Y-209983813D01*
X177141598Y-210483997D01*
X177267400Y-211116449D01*
X177267400Y-218899088D01*
X176836708Y-218984758D01*
X176836704Y-218984758D01*
X176681336Y-219049113D01*
X176022110Y-219489594D01*
X175903196Y-219608508D01*
X175462714Y-220267736D01*
X175398358Y-220423103D01*
X175243682Y-221200716D01*
X175243682Y-221368884D01*
X175398358Y-222146496D01*
X175462714Y-222301864D01*
X175903194Y-222961090D01*
X176022108Y-223080004D01*
X176681336Y-223520487D01*
X176836704Y-223584842D01*
X176836708Y-223584842D01*
X177267400Y-223670512D01*
X177267400Y-231351552D01*
X177095194Y-232217288D01*
X176628838Y-232915238D01*
X175930888Y-233381594D01*
X175065152Y-233553800D01*
X120540048Y-233553800D01*
X119713192Y-233389328D01*
X119048203Y-232944997D01*
X118603872Y-232280008D01*
X118439400Y-231453152D01*
X118439400Y-223670512D01*
X118870097Y-223584842D01*
X119025464Y-223520486D01*
X119684692Y-223080004D01*
X119803606Y-222961090D01*
X120244087Y-222301864D01*
X120308442Y-222146496D01*
X120308442Y-222146492D01*
X120463118Y-221368884D01*
X120463118Y-221200716D01*
X120308442Y-220423108D01*
X120308442Y-220423104D01*
X120244087Y-220267736D01*
X119803604Y-219608508D01*
X119684690Y-219489594D01*
X119025464Y-219049114D01*
X119025462Y-219049113D01*
X118870097Y-218984758D01*
X118439400Y-218899088D01*
X118439400Y-208089362D01*
X118631231Y-208281529D01*
X119050445Y-208455602D01*
X119504363Y-208455998D01*
X119923880Y-208282657D01*
X120245129Y-207961969D01*
X120419202Y-207542755D01*
X120419203Y-207540763D01*
X120677202Y-207540763D01*
X120850543Y-207960280D01*
X121171231Y-208281529D01*
X121590445Y-208455602D01*
X122044363Y-208455998D01*
X122463880Y-208282657D01*
X122785129Y-207961969D01*
X122959202Y-207542755D01*
X122959203Y-207540763D01*
X123217202Y-207540763D01*
X123390543Y-207960280D01*
X123711231Y-208281529D01*
X124130445Y-208455602D01*
X124584363Y-208455998D01*
X125003880Y-208282657D01*
X125325129Y-207961969D01*
X125499202Y-207542755D01*
X125499203Y-207540763D01*
X125757202Y-207540763D01*
X125930543Y-207960280D01*
X126251231Y-208281529D01*
X126670445Y-208455602D01*
X127124363Y-208455998D01*
X127543880Y-208282657D01*
X127865129Y-207961969D01*
X128039202Y-207542755D01*
X128039203Y-207540763D01*
X128297202Y-207540763D01*
X128470543Y-207960280D01*
X128791231Y-208281529D01*
X129210445Y-208455602D01*
X129664363Y-208455998D01*
X130083880Y-208282657D01*
X130405129Y-207961969D01*
X130579202Y-207542755D01*
X130579203Y-207540763D01*
X130837202Y-207540763D01*
X131010543Y-207960280D01*
X131331231Y-208281529D01*
X131750445Y-208455602D01*
X132204363Y-208455998D01*
X132623880Y-208282657D01*
X132945129Y-207961969D01*
X133119202Y-207542755D01*
X133119203Y-207540763D01*
X133377202Y-207540763D01*
X133550543Y-207960280D01*
X133871231Y-208281529D01*
X134290445Y-208455602D01*
X134744363Y-208455998D01*
X135163880Y-208282657D01*
X135485129Y-207961969D01*
X135659202Y-207542755D01*
X135659203Y-207540763D01*
X135917202Y-207540763D01*
X136090543Y-207960280D01*
X136411231Y-208281529D01*
X136830445Y-208455602D01*
X137284363Y-208455998D01*
X137703880Y-208282657D01*
X138025129Y-207961969D01*
X138199202Y-207542755D01*
X138199203Y-207540763D01*
X138457202Y-207540763D01*
X138630543Y-207960280D01*
X138951231Y-208281529D01*
X139370445Y-208455602D01*
X139824363Y-208455998D01*
X140243880Y-208282657D01*
X140565129Y-207961969D01*
X140739202Y-207542755D01*
X140739203Y-207540763D01*
X140997202Y-207540763D01*
X141170543Y-207960280D01*
X141491231Y-208281529D01*
X141910445Y-208455602D01*
X142364363Y-208455998D01*
X142783880Y-208282657D01*
X143105129Y-207961969D01*
X143279202Y-207542755D01*
X143279598Y-207088837D01*
X143106257Y-206669320D01*
X142785569Y-206348071D01*
X142366355Y-206173998D01*
X141912437Y-206173602D01*
X141492920Y-206346943D01*
X141171671Y-206667631D01*
X140997598Y-207086845D01*
X140997202Y-207540763D01*
X140739203Y-207540763D01*
X140739598Y-207088837D01*
X140566257Y-206669320D01*
X140245569Y-206348071D01*
X139826355Y-206173998D01*
X139372437Y-206173602D01*
X138952920Y-206346943D01*
X138631671Y-206667631D01*
X138457598Y-207086845D01*
X138457202Y-207540763D01*
X138199203Y-207540763D01*
X138199598Y-207088837D01*
X138026257Y-206669320D01*
X137705569Y-206348071D01*
X137286355Y-206173998D01*
X136832437Y-206173602D01*
X136412920Y-206346943D01*
X136091671Y-206667631D01*
X135917598Y-207086845D01*
X135917202Y-207540763D01*
X135659203Y-207540763D01*
X135659598Y-207088837D01*
X135486257Y-206669320D01*
X135165569Y-206348071D01*
X134746355Y-206173998D01*
X134292437Y-206173602D01*
X133872920Y-206346943D01*
X133551671Y-206667631D01*
X133377598Y-207086845D01*
X133377202Y-207540763D01*
X133119203Y-207540763D01*
X133119598Y-207088837D01*
X132946257Y-206669320D01*
X132625569Y-206348071D01*
X132206355Y-206173998D01*
X131752437Y-206173602D01*
X131332920Y-206346943D01*
X131011671Y-206667631D01*
X130837598Y-207086845D01*
X130837202Y-207540763D01*
X130579203Y-207540763D01*
X130579598Y-207088837D01*
X130406257Y-206669320D01*
X130085569Y-206348071D01*
X129666355Y-206173998D01*
X129212437Y-206173602D01*
X128792920Y-206346943D01*
X128471671Y-206667631D01*
X128297598Y-207086845D01*
X128297202Y-207540763D01*
X128039203Y-207540763D01*
X128039598Y-207088837D01*
X127866257Y-206669320D01*
X127545569Y-206348071D01*
X127126355Y-206173998D01*
X126672437Y-206173602D01*
X126252920Y-206346943D01*
X125931671Y-206667631D01*
X125757598Y-207086845D01*
X125757202Y-207540763D01*
X125499203Y-207540763D01*
X125499598Y-207088837D01*
X125326257Y-206669320D01*
X125005569Y-206348071D01*
X124586355Y-206173998D01*
X124132437Y-206173602D01*
X123712920Y-206346943D01*
X123391671Y-206667631D01*
X123217598Y-207086845D01*
X123217202Y-207540763D01*
X122959203Y-207540763D01*
X122959598Y-207088837D01*
X122786257Y-206669320D01*
X122465569Y-206348071D01*
X122046355Y-206173998D01*
X121592437Y-206173602D01*
X121172920Y-206346943D01*
X120851671Y-206667631D01*
X120677598Y-207086845D01*
X120677202Y-207540763D01*
X120419203Y-207540763D01*
X120419598Y-207088837D01*
X120393561Y-207025823D01*
X120936092Y-206483292D01*
X121027197Y-206346943D01*
X121062730Y-206293764D01*
X121107200Y-206070200D01*
X121107200Y-205000763D01*
X123217202Y-205000763D01*
X123390543Y-205420280D01*
X123711231Y-205741529D01*
X124130445Y-205915602D01*
X124584363Y-205915998D01*
X125003880Y-205742657D01*
X125325129Y-205421969D01*
X125499202Y-205002755D01*
X125499203Y-205000763D01*
X125757202Y-205000763D01*
X125930543Y-205420280D01*
X126251231Y-205741529D01*
X126670445Y-205915602D01*
X127124363Y-205915998D01*
X127543880Y-205742657D01*
X127865129Y-205421969D01*
X128039202Y-205002755D01*
X128039203Y-205000763D01*
X128297202Y-205000763D01*
X128470543Y-205420280D01*
X128791231Y-205741529D01*
X129210445Y-205915602D01*
X129664363Y-205915998D01*
X130083880Y-205742657D01*
X130405129Y-205421969D01*
X130579202Y-205002755D01*
X130579203Y-205000763D01*
X130837202Y-205000763D01*
X131010543Y-205420280D01*
X131331231Y-205741529D01*
X131750445Y-205915602D01*
X132204363Y-205915998D01*
X132623880Y-205742657D01*
X132945129Y-205421969D01*
X133119202Y-205002755D01*
X133119203Y-205000763D01*
X133377202Y-205000763D01*
X133550543Y-205420280D01*
X133871231Y-205741529D01*
X134290445Y-205915602D01*
X134744363Y-205915998D01*
X135163880Y-205742657D01*
X135485129Y-205421969D01*
X135659202Y-205002755D01*
X135659203Y-205000763D01*
X135917202Y-205000763D01*
X136090543Y-205420280D01*
X136411231Y-205741529D01*
X136830445Y-205915602D01*
X137284363Y-205915998D01*
X137703880Y-205742657D01*
X138025129Y-205421969D01*
X138199202Y-205002755D01*
X138199203Y-205000763D01*
X138457202Y-205000763D01*
X138630543Y-205420280D01*
X138951231Y-205741529D01*
X139370445Y-205915602D01*
X139824363Y-205915998D01*
X140243880Y-205742657D01*
X140565129Y-205421969D01*
X140739202Y-205002755D01*
X140739203Y-205000763D01*
X140997202Y-205000763D01*
X141170543Y-205420280D01*
X141491231Y-205741529D01*
X141910445Y-205915602D01*
X142364363Y-205915998D01*
X142783880Y-205742657D01*
X143105129Y-205421969D01*
X143279202Y-205002755D01*
X143279598Y-204548837D01*
X143106257Y-204129320D01*
X142785569Y-203808071D01*
X142366355Y-203633998D01*
X141912437Y-203633602D01*
X141492920Y-203806943D01*
X141171671Y-204127631D01*
X140997598Y-204546845D01*
X140997202Y-205000763D01*
X140739203Y-205000763D01*
X140739598Y-204548837D01*
X140566257Y-204129320D01*
X140245569Y-203808071D01*
X139826355Y-203633998D01*
X139372437Y-203633602D01*
X138952920Y-203806943D01*
X138631671Y-204127631D01*
X138457598Y-204546845D01*
X138457202Y-205000763D01*
X138199203Y-205000763D01*
X138199598Y-204548837D01*
X138026257Y-204129320D01*
X137705569Y-203808071D01*
X137286355Y-203633998D01*
X136832437Y-203633602D01*
X136412920Y-203806943D01*
X136091671Y-204127631D01*
X135917598Y-204546845D01*
X135917202Y-205000763D01*
X135659203Y-205000763D01*
X135659598Y-204548837D01*
X135486257Y-204129320D01*
X135165569Y-203808071D01*
X134746355Y-203633998D01*
X134292437Y-203633602D01*
X133872920Y-203806943D01*
X133551671Y-204127631D01*
X133377598Y-204546845D01*
X133377202Y-205000763D01*
X133119203Y-205000763D01*
X133119598Y-204548837D01*
X132946257Y-204129320D01*
X132625569Y-203808071D01*
X132206355Y-203633998D01*
X131752437Y-203633602D01*
X131332920Y-203806943D01*
X131011671Y-204127631D01*
X130837598Y-204546845D01*
X130837202Y-205000763D01*
X130579203Y-205000763D01*
X130579598Y-204548837D01*
X130406257Y-204129320D01*
X130085569Y-203808071D01*
X129666355Y-203633998D01*
X129212437Y-203633602D01*
X128792920Y-203806943D01*
X128471671Y-204127631D01*
X128297598Y-204546845D01*
X128297202Y-205000763D01*
X128039203Y-205000763D01*
X128039598Y-204548837D01*
X127866257Y-204129320D01*
X127545569Y-203808071D01*
X127126355Y-203633998D01*
X126672437Y-203633602D01*
X126252920Y-203806943D01*
X125931671Y-204127631D01*
X125757598Y-204546845D01*
X125757202Y-205000763D01*
X125499203Y-205000763D01*
X125499598Y-204548837D01*
X125326257Y-204129320D01*
X125005569Y-203808071D01*
X124586355Y-203633998D01*
X124132437Y-203633602D01*
X123712920Y-203806943D01*
X123391671Y-204127631D01*
X123217598Y-204546845D01*
X123217202Y-205000763D01*
X121107200Y-205000763D01*
X121107200Y-204330984D01*
X121190092Y-204248092D01*
X121316730Y-204058564D01*
X121361200Y-203835000D01*
X121361200Y-198669639D01*
X121525697Y-198834423D01*
X121945646Y-199008801D01*
X122400359Y-199009198D01*
X122820612Y-198835554D01*
X123142423Y-198514303D01*
X123316801Y-198094354D01*
X123317198Y-197639641D01*
X123143554Y-197219388D01*
X122822303Y-196897577D01*
X122402354Y-196723199D01*
X121947641Y-196722802D01*
X121527388Y-196896446D01*
X121361200Y-197062345D01*
X121361200Y-196129639D01*
X121525697Y-196294423D01*
X121945646Y-196468801D01*
X122400359Y-196469198D01*
X122820612Y-196295554D01*
X123142423Y-195974303D01*
X123316801Y-195554354D01*
X123317198Y-195099641D01*
X123143554Y-194679388D01*
X122822303Y-194357577D01*
X122402354Y-194183199D01*
X121947641Y-194182802D01*
X121527388Y-194356446D01*
X121361200Y-194522345D01*
X121361200Y-190922639D01*
X121525697Y-191087423D01*
X121945646Y-191261801D01*
X122400359Y-191262198D01*
X122820612Y-191088554D01*
X123142423Y-190767303D01*
X123316801Y-190347354D01*
X123317198Y-189892641D01*
X123143554Y-189472388D01*
X122822303Y-189150577D01*
X122402354Y-188976199D01*
X121947641Y-188975802D01*
X121527388Y-189149446D01*
X121361200Y-189315345D01*
X121361200Y-188382639D01*
X121525697Y-188547423D01*
X121945646Y-188721801D01*
X122400359Y-188722198D01*
X122820612Y-188548554D01*
X123142423Y-188227303D01*
X123316801Y-187807354D01*
X123317198Y-187352641D01*
X123143554Y-186932388D01*
X122822303Y-186610577D01*
X122402354Y-186436199D01*
X121947641Y-186435802D01*
X121527388Y-186609446D01*
X121361200Y-186775345D01*
X121361200Y-183175639D01*
X121525697Y-183340423D01*
X121945646Y-183514801D01*
X122400359Y-183515198D01*
X122820612Y-183341554D01*
X123142423Y-183020303D01*
X123316801Y-182600354D01*
X123317198Y-182145641D01*
X123143554Y-181725388D01*
X122822303Y-181403577D01*
X122402354Y-181229199D01*
X121947641Y-181228802D01*
X121527388Y-181402446D01*
X121361200Y-181568345D01*
X121361200Y-180635639D01*
X121525697Y-180800423D01*
X121945646Y-180974801D01*
X122400359Y-180975198D01*
X122820612Y-180801554D01*
X123142423Y-180480303D01*
X123316801Y-180060354D01*
X123317198Y-179605641D01*
X123143554Y-179185388D01*
X122822303Y-178863577D01*
X122402354Y-178689199D01*
X121947641Y-178688802D01*
X121527388Y-178862446D01*
X121361200Y-179028345D01*
X121361200Y-175428639D01*
X121525697Y-175593423D01*
X121945646Y-175767801D01*
X122400359Y-175768198D01*
X122820612Y-175594554D01*
X123142423Y-175273303D01*
X123316801Y-174853354D01*
X123317198Y-174398641D01*
X123143554Y-173978388D01*
X122822303Y-173656577D01*
X122402354Y-173482199D01*
X121947641Y-173481802D01*
X121527388Y-173655446D01*
X121361200Y-173821345D01*
X121361200Y-172888639D01*
X121525697Y-173053423D01*
X121945646Y-173227801D01*
X122400359Y-173228198D01*
X122820612Y-173054554D01*
X123142423Y-172733303D01*
X123316801Y-172313354D01*
X123316896Y-172204229D01*
X123374339Y-172343252D01*
X123565741Y-172534987D01*
X123815946Y-172638882D01*
X124086865Y-172639118D01*
X124337252Y-172535661D01*
X124528987Y-172344259D01*
X124632882Y-172094054D01*
X124633118Y-171823135D01*
X124536200Y-171588574D01*
X124536200Y-166268400D01*
X124491730Y-166044836D01*
X124365092Y-165855308D01*
X122933775Y-164423991D01*
X122959202Y-164362755D01*
X122959203Y-164360763D01*
X123217202Y-164360763D01*
X123390543Y-164780280D01*
X123711231Y-165101529D01*
X124130445Y-165275602D01*
X124584363Y-165275998D01*
X125003880Y-165102657D01*
X125325129Y-164781969D01*
X125499202Y-164362755D01*
X125499598Y-163908837D01*
X125326257Y-163489320D01*
X125005569Y-163168071D01*
X124586355Y-162993998D01*
X124132437Y-162993602D01*
X123712920Y-163166943D01*
X123391671Y-163487631D01*
X123217598Y-163906845D01*
X123217202Y-164360763D01*
X122959203Y-164360763D01*
X122959598Y-163908837D01*
X122786257Y-163489320D01*
X122465569Y-163168071D01*
X122046355Y-162993998D01*
X121592437Y-162993602D01*
X121172920Y-163166943D01*
X120851671Y-163487631D01*
X120677598Y-163906845D01*
X120677202Y-164360763D01*
X120850543Y-164780280D01*
X121171231Y-165101529D01*
X121590445Y-165275602D01*
X122044363Y-165275998D01*
X122107377Y-165249961D01*
X123367800Y-166510384D01*
X123367800Y-171589112D01*
X123286615Y-171784625D01*
X123143554Y-171438388D01*
X122822303Y-171116577D01*
X122402354Y-170942199D01*
X121947641Y-170941802D01*
X121793828Y-171005356D01*
X121945249Y-170853935D01*
X122178252Y-170757661D01*
X122369987Y-170566259D01*
X122473882Y-170316054D01*
X122474118Y-170045135D01*
X122370661Y-169794748D01*
X122179259Y-169603013D01*
X121929054Y-169499118D01*
X121658135Y-169498882D01*
X121407748Y-169602339D01*
X121216013Y-169793741D01*
X121118685Y-170028131D01*
X120363908Y-170782908D01*
X120237270Y-170972436D01*
X120192800Y-171196000D01*
X120192800Y-203593016D01*
X120109908Y-203675908D01*
X119983270Y-203865436D01*
X119983198Y-203865800D01*
X119925569Y-203808071D01*
X119506355Y-203633998D01*
X119052437Y-203633602D01*
X118632920Y-203806943D01*
X118439400Y-204000125D01*
X118439400Y-164909362D01*
X118631231Y-165101529D01*
X118795800Y-165169864D01*
X118795800Y-167779112D01*
X118699118Y-168011946D01*
X118698882Y-168282865D01*
X118802339Y-168533252D01*
X118993741Y-168724987D01*
X119243946Y-168828882D01*
X119514865Y-168829118D01*
X119765252Y-168725661D01*
X119956987Y-168534259D01*
X120060882Y-168284054D01*
X120061118Y-168013135D01*
X119964200Y-167778574D01*
X119964200Y-165062407D01*
X120245129Y-164781969D01*
X120419202Y-164362755D01*
X120419598Y-163908837D01*
X120246257Y-163489320D01*
X119925569Y-163168071D01*
X119506355Y-162993998D01*
X119052437Y-162993602D01*
X118632920Y-163166943D01*
X118439400Y-163360125D01*
X118439400Y-160655000D01*
X121144814Y-160655000D01*
X120851671Y-160947631D01*
X120851671Y-160947631D01*
G37*
X120851671Y-160947631D02*
X120677598Y-161366845D01*
X120677202Y-161820763D01*
X120850543Y-162240280D01*
X121171231Y-162561529D01*
X121590445Y-162735602D01*
X122044363Y-162735998D01*
X122463880Y-162562657D01*
X122785129Y-162241969D01*
X122959202Y-161822755D01*
X122959598Y-161368837D01*
X122786257Y-160949320D01*
X122492451Y-160655000D01*
X123684814Y-160655000D01*
X123391671Y-160947631D01*
X123217598Y-161366845D01*
X123217202Y-161820763D01*
X123390543Y-162240280D01*
X123711231Y-162561529D01*
X124130445Y-162735602D01*
X124584363Y-162735998D01*
X125003880Y-162562657D01*
X125325129Y-162241969D01*
X125499202Y-161822755D01*
X125499598Y-161368837D01*
X125326257Y-160949320D01*
X125032451Y-160655000D01*
X126224814Y-160655000D01*
X125931671Y-160947631D01*
X125757598Y-161366845D01*
X125757202Y-161820763D01*
X125930543Y-162240280D01*
X126251231Y-162561529D01*
X126670445Y-162735602D01*
X127124363Y-162735998D01*
X127187377Y-162709961D01*
X127427261Y-162949845D01*
X127427261Y-163118945D01*
X127126355Y-162993998D01*
X126672437Y-162993602D01*
X126252920Y-163166943D01*
X125931671Y-163487631D01*
X125757598Y-163906845D01*
X125757202Y-164360763D01*
X125930543Y-164780280D01*
X126251231Y-165101529D01*
X126670445Y-165275602D01*
X127124363Y-165275998D01*
X127427261Y-165150843D01*
X127427261Y-165476461D01*
X127431800Y-165499280D01*
X127431800Y-173736000D01*
X127476270Y-173959564D01*
X127581465Y-174117000D01*
X127602908Y-174149092D01*
X127723065Y-174269249D01*
X127819339Y-174502252D01*
X128010741Y-174693987D01*
X128260946Y-174797882D01*
X128531865Y-174798118D01*
X128782252Y-174694661D01*
X128973987Y-174503259D01*
X129077882Y-174253054D01*
X129078118Y-173982135D01*
X128974661Y-173731748D01*
X128783259Y-173540013D01*
X128600200Y-173464000D01*
X128600200Y-165481000D01*
X128595661Y-165458181D01*
X128595661Y-164905617D01*
X128791231Y-165101529D01*
X129210445Y-165275602D01*
X129664363Y-165275998D01*
X130083880Y-165102657D01*
X130098800Y-165087763D01*
X130098800Y-165227000D01*
X130143270Y-165450564D01*
X130268802Y-165638436D01*
X130269908Y-165640092D01*
X132082530Y-167452714D01*
X132082531Y-197715415D01*
X132127001Y-197938979D01*
X132214012Y-198069200D01*
X132253639Y-198128507D01*
X133976494Y-199851362D01*
X134166022Y-199978000D01*
X134389586Y-200022470D01*
X150446730Y-200022470D01*
X150670294Y-199978000D01*
X150859822Y-199851362D01*
X152109280Y-198601904D01*
X152171646Y-198627801D01*
X152626359Y-198628198D01*
X153046612Y-198454554D01*
X153368423Y-198133303D01*
X153542801Y-197713354D01*
X153543198Y-197258641D01*
X153369554Y-196838388D01*
X153048303Y-196516577D01*
X152628354Y-196342199D01*
X152173641Y-196341802D01*
X151753388Y-196515446D01*
X151431577Y-196836697D01*
X151257199Y-197256646D01*
X151256802Y-197711359D01*
X151283308Y-197775508D01*
X150204746Y-198854070D01*
X140427114Y-198854070D01*
X140679280Y-198601904D01*
X140741646Y-198627801D01*
X141196359Y-198628198D01*
X141616612Y-198454554D01*
X141938423Y-198133303D01*
X142112801Y-197713354D01*
X142113198Y-197258641D01*
X141939554Y-196838388D01*
X141618303Y-196516577D01*
X141198354Y-196342199D01*
X140743641Y-196341802D01*
X140323388Y-196515446D01*
X140001577Y-196836697D01*
X139827199Y-197256646D01*
X139826802Y-197711359D01*
X139853308Y-197775508D01*
X139331016Y-198297800D01*
X139233639Y-198297800D01*
X139398423Y-198133303D01*
X139572801Y-197713354D01*
X139573198Y-197258641D01*
X139546692Y-197194492D01*
X140449984Y-196291200D01*
X147840016Y-196291200D01*
X148743096Y-197194280D01*
X148717199Y-197256646D01*
X148716802Y-197711359D01*
X148890446Y-198131612D01*
X149211697Y-198453423D01*
X149631646Y-198627801D01*
X150086359Y-198628198D01*
X150506612Y-198454554D01*
X150828423Y-198133303D01*
X151002801Y-197713354D01*
X151003198Y-197258641D01*
X150829554Y-196838388D01*
X150508303Y-196516577D01*
X150088354Y-196342199D01*
X149633641Y-196341802D01*
X149569492Y-196368308D01*
X148495092Y-195293908D01*
X148305564Y-195167270D01*
X148082000Y-195122800D01*
X140792200Y-195122800D01*
X140792200Y-180424065D01*
X145064082Y-180424065D01*
X145167539Y-180674452D01*
X145358941Y-180866187D01*
X145609146Y-180970082D01*
X145880065Y-180970318D01*
X146130452Y-180866861D01*
X146322187Y-180675459D01*
X146426082Y-180425254D01*
X146426102Y-180402396D01*
X146488130Y-180309564D01*
X146532600Y-180086000D01*
X146532600Y-171168478D01*
X146628941Y-171264987D01*
X146879146Y-171368882D01*
X147150065Y-171369118D01*
X147400452Y-171265661D01*
X147592187Y-171074259D01*
X147696082Y-170824054D01*
X147696318Y-170553135D01*
X147599400Y-170318574D01*
X147599400Y-167533723D01*
X147853249Y-167279874D01*
X148086252Y-167183600D01*
X148277987Y-166992198D01*
X148381882Y-166741993D01*
X148382118Y-166471074D01*
X148278661Y-166220687D01*
X148087259Y-166028952D01*
X147837054Y-165925057D01*
X147566135Y-165924821D01*
X147315748Y-166028278D01*
X147124013Y-166219680D01*
X147026685Y-166454070D01*
X146602108Y-166878647D01*
X146532600Y-166982674D01*
X146532600Y-164808488D01*
X146629282Y-164575654D01*
X146629518Y-164304735D01*
X146526061Y-164054348D01*
X146334659Y-163862613D01*
X146084454Y-163758718D01*
X145813535Y-163758482D01*
X145563148Y-163861939D01*
X145371413Y-164053341D01*
X145267518Y-164303546D01*
X145267282Y-164574465D01*
X145364200Y-164809026D01*
X145364200Y-179709782D01*
X145359948Y-179711539D01*
X145168213Y-179902941D01*
X145064318Y-180153146D01*
X145064082Y-180424065D01*
X140792200Y-180424065D01*
X140792200Y-177787984D01*
X144304089Y-174276094D01*
X144304092Y-174276092D01*
X144405138Y-174124865D01*
X144430731Y-174086563D01*
X144475201Y-173863000D01*
X144475200Y-173862995D01*
X144475200Y-172206487D01*
X144571882Y-171973653D01*
X144572118Y-171702734D01*
X144468661Y-171452347D01*
X144277259Y-171260612D01*
X144027054Y-171156717D01*
X143756135Y-171156481D01*
X143505748Y-171259938D01*
X143314013Y-171451340D01*
X143210118Y-171701545D01*
X143209882Y-171972464D01*
X143306800Y-172207025D01*
X143306800Y-173621017D01*
X139794908Y-177132908D01*
X139668270Y-177322436D01*
X139623800Y-177546000D01*
X139623800Y-180136800D01*
X138536342Y-180136800D01*
X138510554Y-180074388D01*
X138189303Y-179752577D01*
X137769354Y-179578199D01*
X137314641Y-179577802D01*
X136894388Y-179751446D01*
X136572577Y-180072697D01*
X136398199Y-180492646D01*
X136397802Y-180947359D01*
X136571446Y-181367612D01*
X136892697Y-181689423D01*
X137312646Y-181863801D01*
X137767359Y-181864198D01*
X138187612Y-181690554D01*
X138509423Y-181369303D01*
X138536041Y-181305200D01*
X139623800Y-181305200D01*
X139623800Y-195465016D01*
X138720720Y-196368096D01*
X138658354Y-196342199D01*
X138203641Y-196341802D01*
X137783388Y-196515446D01*
X137461577Y-196836697D01*
X137287199Y-197256646D01*
X137286802Y-197711359D01*
X137460446Y-198131612D01*
X137626345Y-198297800D01*
X134861984Y-198297800D01*
X133807200Y-197243016D01*
X133807200Y-186027359D01*
X136397802Y-186027359D01*
X136571446Y-186447612D01*
X136892697Y-186769423D01*
X137312646Y-186943801D01*
X137767359Y-186944198D01*
X138187612Y-186770554D01*
X138509423Y-186449303D01*
X138683801Y-186029354D01*
X138684198Y-185574641D01*
X138510554Y-185154388D01*
X138189303Y-184832577D01*
X137769354Y-184658199D01*
X137314641Y-184657802D01*
X136894388Y-184831446D01*
X136572577Y-185152697D01*
X136398199Y-185572646D01*
X136397802Y-186027359D01*
X133807200Y-186027359D01*
X133807200Y-174343359D01*
X133857802Y-174343359D01*
X134031446Y-174763612D01*
X134352697Y-175085423D01*
X134772646Y-175259801D01*
X135227359Y-175260198D01*
X135647612Y-175086554D01*
X135969423Y-174765303D01*
X136143801Y-174345354D01*
X136144198Y-173890641D01*
X135970554Y-173470388D01*
X135649303Y-173148577D01*
X135229354Y-172974199D01*
X134774641Y-172973802D01*
X134354388Y-173147446D01*
X134032577Y-173468697D01*
X133858199Y-173888646D01*
X133857802Y-174343359D01*
X133807200Y-174343359D01*
X133807200Y-166723359D01*
X133857802Y-166723359D01*
X134031446Y-167143612D01*
X134352697Y-167465423D01*
X134772646Y-167639801D01*
X135227359Y-167640198D01*
X135647612Y-167466554D01*
X135969423Y-167145303D01*
X136143801Y-166725354D01*
X136144198Y-166270641D01*
X135970554Y-165850388D01*
X135649303Y-165528577D01*
X135229354Y-165354199D01*
X134774641Y-165353802D01*
X134354388Y-165527446D01*
X134032577Y-165848697D01*
X133858199Y-166268646D01*
X133857802Y-166723359D01*
X133807200Y-166723359D01*
X133807200Y-165037386D01*
X133871231Y-165101529D01*
X134290445Y-165275602D01*
X134744363Y-165275998D01*
X135163880Y-165102657D01*
X135485129Y-164781969D01*
X135659202Y-164362755D01*
X135659203Y-164360763D01*
X135917202Y-164360763D01*
X136090543Y-164780280D01*
X136411231Y-165101529D01*
X136830445Y-165275602D01*
X137284363Y-165275998D01*
X137347377Y-165249961D01*
X137405307Y-165307891D01*
X137474226Y-165353941D01*
X137314641Y-165353802D01*
X136894388Y-165527446D01*
X136572577Y-165848697D01*
X136398199Y-166268646D01*
X136397802Y-166723359D01*
X136571446Y-167143612D01*
X136892697Y-167465423D01*
X137312646Y-167639801D01*
X137767359Y-167640198D01*
X138187612Y-167466554D01*
X138226800Y-167427434D01*
X138226800Y-169557112D01*
X138130118Y-169789946D01*
X138129882Y-170060865D01*
X138226800Y-170295426D01*
X138226800Y-172605016D01*
X137831720Y-173000096D01*
X137769354Y-172974199D01*
X137314641Y-172973802D01*
X136894388Y-173147446D01*
X136572577Y-173468697D01*
X136398199Y-173888646D01*
X136397802Y-174343359D01*
X136571446Y-174763612D01*
X136892697Y-175085423D01*
X137312646Y-175259801D01*
X137767359Y-175260198D01*
X138187612Y-175086554D01*
X138509423Y-174765303D01*
X138683801Y-174345354D01*
X138683802Y-174343359D01*
X138937802Y-174343359D01*
X139111446Y-174763612D01*
X139432697Y-175085423D01*
X139852646Y-175259801D01*
X140307359Y-175260198D01*
X140727612Y-175086554D01*
X141049423Y-174765303D01*
X141223801Y-174345354D01*
X141224198Y-173890641D01*
X141050554Y-173470388D01*
X140729303Y-173148577D01*
X140309354Y-172974199D01*
X139854641Y-172973802D01*
X139434388Y-173147446D01*
X139112577Y-173468697D01*
X138938199Y-173888646D01*
X138937802Y-174343359D01*
X138683802Y-174343359D01*
X138684198Y-173890641D01*
X138657692Y-173826492D01*
X139224092Y-173260092D01*
X139296450Y-173151800D01*
X139350730Y-173070564D01*
X139395200Y-172847000D01*
X139395200Y-170294888D01*
X139491882Y-170062054D01*
X139492118Y-169791135D01*
X139395200Y-169556574D01*
X139395200Y-167427861D01*
X139432697Y-167465423D01*
X139496800Y-167492041D01*
X139496800Y-168160112D01*
X139400118Y-168392946D01*
X139399882Y-168663865D01*
X139503339Y-168914252D01*
X139694741Y-169105987D01*
X139944946Y-169209882D01*
X140215865Y-169210118D01*
X140466252Y-169106661D01*
X140657987Y-168915259D01*
X140761882Y-168665054D01*
X140762118Y-168394135D01*
X140665200Y-168159574D01*
X140665200Y-167492342D01*
X140727612Y-167466554D01*
X141049423Y-167145303D01*
X141223801Y-166725354D01*
X141224198Y-166270641D01*
X141050554Y-165850388D01*
X140729303Y-165528577D01*
X140309354Y-165354199D01*
X139854641Y-165353802D01*
X139434388Y-165527446D01*
X139339717Y-165621953D01*
X139224092Y-165448908D01*
X138256891Y-164481707D01*
X138231887Y-164465000D01*
X138180344Y-164430560D01*
X138173775Y-164423991D01*
X138199202Y-164362755D01*
X138199203Y-164360763D01*
X138457202Y-164360763D01*
X138630543Y-164780280D01*
X138951231Y-165101529D01*
X139370445Y-165275602D01*
X139824363Y-165275998D01*
X140243880Y-165102657D01*
X140565129Y-164781969D01*
X140739202Y-164362755D01*
X140739203Y-164360763D01*
X140997202Y-164360763D01*
X141170543Y-164780280D01*
X141491231Y-165101529D01*
X141910445Y-165275602D01*
X142364363Y-165275998D01*
X142783880Y-165102657D01*
X143105129Y-164781969D01*
X143279202Y-164362755D01*
X143279598Y-163908837D01*
X143106257Y-163489320D01*
X142785569Y-163168071D01*
X142366355Y-162993998D01*
X141912437Y-162993602D01*
X141492920Y-163166943D01*
X141171671Y-163487631D01*
X140997598Y-163906845D01*
X140997202Y-164360763D01*
X140739203Y-164360763D01*
X140739598Y-163908837D01*
X140566257Y-163489320D01*
X140245569Y-163168071D01*
X139826355Y-162993998D01*
X139372437Y-162993602D01*
X138952920Y-163166943D01*
X138631671Y-163487631D01*
X138457598Y-163906845D01*
X138457202Y-164360763D01*
X138199203Y-164360763D01*
X138199598Y-163908837D01*
X138026257Y-163489320D01*
X137705569Y-163168071D01*
X137286355Y-162993998D01*
X136832437Y-162993602D01*
X136412920Y-163166943D01*
X136091671Y-163487631D01*
X135917598Y-163906845D01*
X135917202Y-164360763D01*
X135659203Y-164360763D01*
X135659598Y-163908837D01*
X135486257Y-163489320D01*
X135165569Y-163168071D01*
X134746355Y-162993998D01*
X134292437Y-162993602D01*
X133872920Y-163166943D01*
X133807200Y-163232548D01*
X133807200Y-163132184D01*
X134229209Y-162710175D01*
X134290445Y-162735602D01*
X134744363Y-162735998D01*
X135163880Y-162562657D01*
X135485129Y-162241969D01*
X135659202Y-161822755D01*
X135659598Y-161368837D01*
X135486257Y-160949320D01*
X135192451Y-160655000D01*
X136384814Y-160655000D01*
X136091671Y-160947631D01*
X135917598Y-161366845D01*
X135917202Y-161820763D01*
X136090543Y-162240280D01*
X136411231Y-162561529D01*
X136830445Y-162735602D01*
X137284363Y-162735998D01*
X137703880Y-162562657D01*
X138025129Y-162241969D01*
X138199202Y-161822755D01*
X138199598Y-161368837D01*
X138026257Y-160949320D01*
X137732451Y-160655000D01*
X138924814Y-160655000D01*
X138631671Y-160947631D01*
X138457598Y-161366845D01*
X138457202Y-161820763D01*
X138630543Y-162240280D01*
X138951231Y-162561529D01*
X139370445Y-162735602D01*
X139824363Y-162735998D01*
X140243880Y-162562657D01*
X140565129Y-162241969D01*
X140739202Y-161822755D01*
X140739598Y-161368837D01*
X140566257Y-160949320D01*
X140272451Y-160655000D01*
X141464814Y-160655000D01*
X141171671Y-160947631D01*
X140997598Y-161366845D01*
X140997202Y-161820763D01*
X141170543Y-162240280D01*
X141491231Y-162561529D01*
X141910445Y-162735602D01*
X142364363Y-162735998D01*
X142783880Y-162562657D01*
X143105129Y-162241969D01*
X143279202Y-161822755D01*
X143279598Y-161368837D01*
X143106257Y-160949320D01*
X142812451Y-160655000D01*
X143786310Y-160655000D01*
X150212150Y-163690830D01*
X150266400Y-163703000D01*
X156798999Y-163703000D01*
X156798882Y-163837865D01*
X156843281Y-163945319D01*
X156743401Y-185419409D01*
X156753177Y-185468865D01*
X156781424Y-185510622D01*
X156823691Y-185538099D01*
X156870090Y-185547000D01*
X177267400Y-185596750D01*
X177267400Y-186139552D01*
X177133864Y-186810883D01*
X176777628Y-187344029D01*
X176244485Y-187700263D01*
X175573152Y-187833800D01*
X161188400Y-187833800D01*
X161023463Y-187866608D01*
X160883637Y-187960037D01*
X160790208Y-188099863D01*
X160757400Y-188264800D01*
X160757400Y-209092800D01*
X160790208Y-209257737D01*
X160883637Y-209397563D01*
X161023463Y-209490992D01*
X161188400Y-209523800D01*
X175674752Y-209523800D01*
X176307204Y-209649603D01*
X176807385Y-209983813D01*
X177141598Y-210483997D01*
X177267400Y-211116449D01*
X177267400Y-218899088D01*
X176836708Y-218984758D01*
X176836704Y-218984758D01*
X176681336Y-219049113D01*
X176022110Y-219489594D01*
X175903196Y-219608508D01*
X175462714Y-220267736D01*
X175398358Y-220423103D01*
X175243682Y-221200716D01*
X175243682Y-221368884D01*
X175398358Y-222146496D01*
X175462714Y-222301864D01*
X175903194Y-222961090D01*
X176022108Y-223080004D01*
X176681336Y-223520487D01*
X176836704Y-223584842D01*
X176836708Y-223584842D01*
X177267400Y-223670512D01*
X177267400Y-231351552D01*
X177095194Y-232217288D01*
X176628838Y-232915238D01*
X175930888Y-233381594D01*
X175065152Y-233553800D01*
X120540048Y-233553800D01*
X119713192Y-233389328D01*
X119048203Y-232944997D01*
X118603872Y-232280008D01*
X118439400Y-231453152D01*
X118439400Y-223670512D01*
X118870097Y-223584842D01*
X119025464Y-223520486D01*
X119684692Y-223080004D01*
X119803606Y-222961090D01*
X120244087Y-222301864D01*
X120308442Y-222146496D01*
X120308442Y-222146492D01*
X120463118Y-221368884D01*
X120463118Y-221200716D01*
X120308442Y-220423108D01*
X120308442Y-220423104D01*
X120244087Y-220267736D01*
X119803604Y-219608508D01*
X119684690Y-219489594D01*
X119025464Y-219049114D01*
X119025462Y-219049113D01*
X118870097Y-218984758D01*
X118439400Y-218899088D01*
X118439400Y-208089362D01*
X118631231Y-208281529D01*
X119050445Y-208455602D01*
X119504363Y-208455998D01*
X119923880Y-208282657D01*
X120245129Y-207961969D01*
X120419202Y-207542755D01*
X120419203Y-207540763D01*
X120677202Y-207540763D01*
X120850543Y-207960280D01*
X121171231Y-208281529D01*
X121590445Y-208455602D01*
X122044363Y-208455998D01*
X122463880Y-208282657D01*
X122785129Y-207961969D01*
X122959202Y-207542755D01*
X122959203Y-207540763D01*
X123217202Y-207540763D01*
X123390543Y-207960280D01*
X123711231Y-208281529D01*
X124130445Y-208455602D01*
X124584363Y-208455998D01*
X125003880Y-208282657D01*
X125325129Y-207961969D01*
X125499202Y-207542755D01*
X125499203Y-207540763D01*
X125757202Y-207540763D01*
X125930543Y-207960280D01*
X126251231Y-208281529D01*
X126670445Y-208455602D01*
X127124363Y-208455998D01*
X127543880Y-208282657D01*
X127865129Y-207961969D01*
X128039202Y-207542755D01*
X128039203Y-207540763D01*
X128297202Y-207540763D01*
X128470543Y-207960280D01*
X128791231Y-208281529D01*
X129210445Y-208455602D01*
X129664363Y-208455998D01*
X130083880Y-208282657D01*
X130405129Y-207961969D01*
X130579202Y-207542755D01*
X130579203Y-207540763D01*
X130837202Y-207540763D01*
X131010543Y-207960280D01*
X131331231Y-208281529D01*
X131750445Y-208455602D01*
X132204363Y-208455998D01*
X132623880Y-208282657D01*
X132945129Y-207961969D01*
X133119202Y-207542755D01*
X133119203Y-207540763D01*
X133377202Y-207540763D01*
X133550543Y-207960280D01*
X133871231Y-208281529D01*
X134290445Y-208455602D01*
X134744363Y-208455998D01*
X135163880Y-208282657D01*
X135485129Y-207961969D01*
X135659202Y-207542755D01*
X135659203Y-207540763D01*
X135917202Y-207540763D01*
X136090543Y-207960280D01*
X136411231Y-208281529D01*
X136830445Y-208455602D01*
X137284363Y-208455998D01*
X137703880Y-208282657D01*
X138025129Y-207961969D01*
X138199202Y-207542755D01*
X138199203Y-207540763D01*
X138457202Y-207540763D01*
X138630543Y-207960280D01*
X138951231Y-208281529D01*
X139370445Y-208455602D01*
X139824363Y-208455998D01*
X140243880Y-208282657D01*
X140565129Y-207961969D01*
X140739202Y-207542755D01*
X140739203Y-207540763D01*
X140997202Y-207540763D01*
X141170543Y-207960280D01*
X141491231Y-208281529D01*
X141910445Y-208455602D01*
X142364363Y-208455998D01*
X142783880Y-208282657D01*
X143105129Y-207961969D01*
X143279202Y-207542755D01*
X143279598Y-207088837D01*
X143106257Y-206669320D01*
X142785569Y-206348071D01*
X142366355Y-206173998D01*
X141912437Y-206173602D01*
X141492920Y-206346943D01*
X141171671Y-206667631D01*
X140997598Y-207086845D01*
X140997202Y-207540763D01*
X140739203Y-207540763D01*
X140739598Y-207088837D01*
X140566257Y-206669320D01*
X140245569Y-206348071D01*
X139826355Y-206173998D01*
X139372437Y-206173602D01*
X138952920Y-206346943D01*
X138631671Y-206667631D01*
X138457598Y-207086845D01*
X138457202Y-207540763D01*
X138199203Y-207540763D01*
X138199598Y-207088837D01*
X138026257Y-206669320D01*
X137705569Y-206348071D01*
X137286355Y-206173998D01*
X136832437Y-206173602D01*
X136412920Y-206346943D01*
X136091671Y-206667631D01*
X135917598Y-207086845D01*
X135917202Y-207540763D01*
X135659203Y-207540763D01*
X135659598Y-207088837D01*
X135486257Y-206669320D01*
X135165569Y-206348071D01*
X134746355Y-206173998D01*
X134292437Y-206173602D01*
X133872920Y-206346943D01*
X133551671Y-206667631D01*
X133377598Y-207086845D01*
X133377202Y-207540763D01*
X133119203Y-207540763D01*
X133119598Y-207088837D01*
X132946257Y-206669320D01*
X132625569Y-206348071D01*
X132206355Y-206173998D01*
X131752437Y-206173602D01*
X131332920Y-206346943D01*
X131011671Y-206667631D01*
X130837598Y-207086845D01*
X130837202Y-207540763D01*
X130579203Y-207540763D01*
X130579598Y-207088837D01*
X130406257Y-206669320D01*
X130085569Y-206348071D01*
X129666355Y-206173998D01*
X129212437Y-206173602D01*
X128792920Y-206346943D01*
X128471671Y-206667631D01*
X128297598Y-207086845D01*
X128297202Y-207540763D01*
X128039203Y-207540763D01*
X128039598Y-207088837D01*
X127866257Y-206669320D01*
X127545569Y-206348071D01*
X127126355Y-206173998D01*
X126672437Y-206173602D01*
X126252920Y-206346943D01*
X125931671Y-206667631D01*
X125757598Y-207086845D01*
X125757202Y-207540763D01*
X125499203Y-207540763D01*
X125499598Y-207088837D01*
X125326257Y-206669320D01*
X125005569Y-206348071D01*
X124586355Y-206173998D01*
X124132437Y-206173602D01*
X123712920Y-206346943D01*
X123391671Y-206667631D01*
X123217598Y-207086845D01*
X123217202Y-207540763D01*
X122959203Y-207540763D01*
X122959598Y-207088837D01*
X122786257Y-206669320D01*
X122465569Y-206348071D01*
X122046355Y-206173998D01*
X121592437Y-206173602D01*
X121172920Y-206346943D01*
X120851671Y-206667631D01*
X120677598Y-207086845D01*
X120677202Y-207540763D01*
X120419203Y-207540763D01*
X120419598Y-207088837D01*
X120393561Y-207025823D01*
X120936092Y-206483292D01*
X121027197Y-206346943D01*
X121062730Y-206293764D01*
X121107200Y-206070200D01*
X121107200Y-205000763D01*
X123217202Y-205000763D01*
X123390543Y-205420280D01*
X123711231Y-205741529D01*
X124130445Y-205915602D01*
X124584363Y-205915998D01*
X125003880Y-205742657D01*
X125325129Y-205421969D01*
X125499202Y-205002755D01*
X125499203Y-205000763D01*
X125757202Y-205000763D01*
X125930543Y-205420280D01*
X126251231Y-205741529D01*
X126670445Y-205915602D01*
X127124363Y-205915998D01*
X127543880Y-205742657D01*
X127865129Y-205421969D01*
X128039202Y-205002755D01*
X128039203Y-205000763D01*
X128297202Y-205000763D01*
X128470543Y-205420280D01*
X128791231Y-205741529D01*
X129210445Y-205915602D01*
X129664363Y-205915998D01*
X130083880Y-205742657D01*
X130405129Y-205421969D01*
X130579202Y-205002755D01*
X130579203Y-205000763D01*
X130837202Y-205000763D01*
X131010543Y-205420280D01*
X131331231Y-205741529D01*
X131750445Y-205915602D01*
X132204363Y-205915998D01*
X132623880Y-205742657D01*
X132945129Y-205421969D01*
X133119202Y-205002755D01*
X133119203Y-205000763D01*
X133377202Y-205000763D01*
X133550543Y-205420280D01*
X133871231Y-205741529D01*
X134290445Y-205915602D01*
X134744363Y-205915998D01*
X135163880Y-205742657D01*
X135485129Y-205421969D01*
X135659202Y-205002755D01*
X135659203Y-205000763D01*
X135917202Y-205000763D01*
X136090543Y-205420280D01*
X136411231Y-205741529D01*
X136830445Y-205915602D01*
X137284363Y-205915998D01*
X137703880Y-205742657D01*
X138025129Y-205421969D01*
X138199202Y-205002755D01*
X138199203Y-205000763D01*
X138457202Y-205000763D01*
X138630543Y-205420280D01*
X138951231Y-205741529D01*
X139370445Y-205915602D01*
X139824363Y-205915998D01*
X140243880Y-205742657D01*
X140565129Y-205421969D01*
X140739202Y-205002755D01*
X140739203Y-205000763D01*
X140997202Y-205000763D01*
X141170543Y-205420280D01*
X141491231Y-205741529D01*
X141910445Y-205915602D01*
X142364363Y-205915998D01*
X142783880Y-205742657D01*
X143105129Y-205421969D01*
X143279202Y-205002755D01*
X143279598Y-204548837D01*
X143106257Y-204129320D01*
X142785569Y-203808071D01*
X142366355Y-203633998D01*
X141912437Y-203633602D01*
X141492920Y-203806943D01*
X141171671Y-204127631D01*
X140997598Y-204546845D01*
X140997202Y-205000763D01*
X140739203Y-205000763D01*
X140739598Y-204548837D01*
X140566257Y-204129320D01*
X140245569Y-203808071D01*
X139826355Y-203633998D01*
X139372437Y-203633602D01*
X138952920Y-203806943D01*
X138631671Y-204127631D01*
X138457598Y-204546845D01*
X138457202Y-205000763D01*
X138199203Y-205000763D01*
X138199598Y-204548837D01*
X138026257Y-204129320D01*
X137705569Y-203808071D01*
X137286355Y-203633998D01*
X136832437Y-203633602D01*
X136412920Y-203806943D01*
X136091671Y-204127631D01*
X135917598Y-204546845D01*
X135917202Y-205000763D01*
X135659203Y-205000763D01*
X135659598Y-204548837D01*
X135486257Y-204129320D01*
X135165569Y-203808071D01*
X134746355Y-203633998D01*
X134292437Y-203633602D01*
X133872920Y-203806943D01*
X133551671Y-204127631D01*
X133377598Y-204546845D01*
X133377202Y-205000763D01*
X133119203Y-205000763D01*
X133119598Y-204548837D01*
X132946257Y-204129320D01*
X132625569Y-203808071D01*
X132206355Y-203633998D01*
X131752437Y-203633602D01*
X131332920Y-203806943D01*
X131011671Y-204127631D01*
X130837598Y-204546845D01*
X130837202Y-205000763D01*
X130579203Y-205000763D01*
X130579598Y-204548837D01*
X130406257Y-204129320D01*
X130085569Y-203808071D01*
X129666355Y-203633998D01*
X129212437Y-203633602D01*
X128792920Y-203806943D01*
X128471671Y-204127631D01*
X128297598Y-204546845D01*
X128297202Y-205000763D01*
X128039203Y-205000763D01*
X128039598Y-204548837D01*
X127866257Y-204129320D01*
X127545569Y-203808071D01*
X127126355Y-203633998D01*
X126672437Y-203633602D01*
X126252920Y-203806943D01*
X125931671Y-204127631D01*
X125757598Y-204546845D01*
X125757202Y-205000763D01*
X125499203Y-205000763D01*
X125499598Y-204548837D01*
X125326257Y-204129320D01*
X125005569Y-203808071D01*
X124586355Y-203633998D01*
X124132437Y-203633602D01*
X123712920Y-203806943D01*
X123391671Y-204127631D01*
X123217598Y-204546845D01*
X123217202Y-205000763D01*
X121107200Y-205000763D01*
X121107200Y-204330984D01*
X121190092Y-204248092D01*
X121316730Y-204058564D01*
X121361200Y-203835000D01*
X121361200Y-198669639D01*
X121525697Y-198834423D01*
X121945646Y-199008801D01*
X122400359Y-199009198D01*
X122820612Y-198835554D01*
X123142423Y-198514303D01*
X123316801Y-198094354D01*
X123317198Y-197639641D01*
X123143554Y-197219388D01*
X122822303Y-196897577D01*
X122402354Y-196723199D01*
X121947641Y-196722802D01*
X121527388Y-196896446D01*
X121361200Y-197062345D01*
X121361200Y-196129639D01*
X121525697Y-196294423D01*
X121945646Y-196468801D01*
X122400359Y-196469198D01*
X122820612Y-196295554D01*
X123142423Y-195974303D01*
X123316801Y-195554354D01*
X123317198Y-195099641D01*
X123143554Y-194679388D01*
X122822303Y-194357577D01*
X122402354Y-194183199D01*
X121947641Y-194182802D01*
X121527388Y-194356446D01*
X121361200Y-194522345D01*
X121361200Y-190922639D01*
X121525697Y-191087423D01*
X121945646Y-191261801D01*
X122400359Y-191262198D01*
X122820612Y-191088554D01*
X123142423Y-190767303D01*
X123316801Y-190347354D01*
X123317198Y-189892641D01*
X123143554Y-189472388D01*
X122822303Y-189150577D01*
X122402354Y-188976199D01*
X121947641Y-188975802D01*
X121527388Y-189149446D01*
X121361200Y-189315345D01*
X121361200Y-188382639D01*
X121525697Y-188547423D01*
X121945646Y-188721801D01*
X122400359Y-188722198D01*
X122820612Y-188548554D01*
X123142423Y-188227303D01*
X123316801Y-187807354D01*
X123317198Y-187352641D01*
X123143554Y-186932388D01*
X122822303Y-186610577D01*
X122402354Y-186436199D01*
X121947641Y-186435802D01*
X121527388Y-186609446D01*
X121361200Y-186775345D01*
X121361200Y-183175639D01*
X121525697Y-183340423D01*
X121945646Y-183514801D01*
X122400359Y-183515198D01*
X122820612Y-183341554D01*
X123142423Y-183020303D01*
X123316801Y-182600354D01*
X123317198Y-182145641D01*
X123143554Y-181725388D01*
X122822303Y-181403577D01*
X122402354Y-181229199D01*
X121947641Y-181228802D01*
X121527388Y-181402446D01*
X121361200Y-181568345D01*
X121361200Y-180635639D01*
X121525697Y-180800423D01*
X121945646Y-180974801D01*
X122400359Y-180975198D01*
X122820612Y-180801554D01*
X123142423Y-180480303D01*
X123316801Y-180060354D01*
X123317198Y-179605641D01*
X123143554Y-179185388D01*
X122822303Y-178863577D01*
X122402354Y-178689199D01*
X121947641Y-178688802D01*
X121527388Y-178862446D01*
X121361200Y-179028345D01*
X121361200Y-175428639D01*
X121525697Y-175593423D01*
X121945646Y-175767801D01*
X122400359Y-175768198D01*
X122820612Y-175594554D01*
X123142423Y-175273303D01*
X123316801Y-174853354D01*
X123317198Y-174398641D01*
X123143554Y-173978388D01*
X122822303Y-173656577D01*
X122402354Y-173482199D01*
X121947641Y-173481802D01*
X121527388Y-173655446D01*
X121361200Y-173821345D01*
X121361200Y-172888639D01*
X121525697Y-173053423D01*
X121945646Y-173227801D01*
X122400359Y-173228198D01*
X122820612Y-173054554D01*
X123142423Y-172733303D01*
X123316801Y-172313354D01*
X123316896Y-172204229D01*
X123374339Y-172343252D01*
X123565741Y-172534987D01*
X123815946Y-172638882D01*
X124086865Y-172639118D01*
X124337252Y-172535661D01*
X124528987Y-172344259D01*
X124632882Y-172094054D01*
X124633118Y-171823135D01*
X124536200Y-171588574D01*
X124536200Y-166268400D01*
X124491730Y-166044836D01*
X124365092Y-165855308D01*
X122933775Y-164423991D01*
X122959202Y-164362755D01*
X122959203Y-164360763D01*
X123217202Y-164360763D01*
X123390543Y-164780280D01*
X123711231Y-165101529D01*
X124130445Y-165275602D01*
X124584363Y-165275998D01*
X125003880Y-165102657D01*
X125325129Y-164781969D01*
X125499202Y-164362755D01*
X125499598Y-163908837D01*
X125326257Y-163489320D01*
X125005569Y-163168071D01*
X124586355Y-162993998D01*
X124132437Y-162993602D01*
X123712920Y-163166943D01*
X123391671Y-163487631D01*
X123217598Y-163906845D01*
X123217202Y-164360763D01*
X122959203Y-164360763D01*
X122959598Y-163908837D01*
X122786257Y-163489320D01*
X122465569Y-163168071D01*
X122046355Y-162993998D01*
X121592437Y-162993602D01*
X121172920Y-163166943D01*
X120851671Y-163487631D01*
X120677598Y-163906845D01*
X120677202Y-164360763D01*
X120850543Y-164780280D01*
X121171231Y-165101529D01*
X121590445Y-165275602D01*
X122044363Y-165275998D01*
X122107377Y-165249961D01*
X123367800Y-166510384D01*
X123367800Y-171589112D01*
X123286615Y-171784625D01*
X123143554Y-171438388D01*
X122822303Y-171116577D01*
X122402354Y-170942199D01*
X121947641Y-170941802D01*
X121793828Y-171005356D01*
X121945249Y-170853935D01*
X122178252Y-170757661D01*
X122369987Y-170566259D01*
X122473882Y-170316054D01*
X122474118Y-170045135D01*
X122370661Y-169794748D01*
X122179259Y-169603013D01*
X121929054Y-169499118D01*
X121658135Y-169498882D01*
X121407748Y-169602339D01*
X121216013Y-169793741D01*
X121118685Y-170028131D01*
X120363908Y-170782908D01*
X120237270Y-170972436D01*
X120192800Y-171196000D01*
X120192800Y-203593016D01*
X120109908Y-203675908D01*
X119983270Y-203865436D01*
X119983198Y-203865800D01*
X119925569Y-203808071D01*
X119506355Y-203633998D01*
X119052437Y-203633602D01*
X118632920Y-203806943D01*
X118439400Y-204000125D01*
X118439400Y-164909362D01*
X118631231Y-165101529D01*
X118795800Y-165169864D01*
X118795800Y-167779112D01*
X118699118Y-168011946D01*
X118698882Y-168282865D01*
X118802339Y-168533252D01*
X118993741Y-168724987D01*
X119243946Y-168828882D01*
X119514865Y-168829118D01*
X119765252Y-168725661D01*
X119956987Y-168534259D01*
X120060882Y-168284054D01*
X120061118Y-168013135D01*
X119964200Y-167778574D01*
X119964200Y-165062407D01*
X120245129Y-164781969D01*
X120419202Y-164362755D01*
X120419598Y-163908837D01*
X120246257Y-163489320D01*
X119925569Y-163168071D01*
X119506355Y-162993998D01*
X119052437Y-162993602D01*
X118632920Y-163166943D01*
X118439400Y-163360125D01*
X118439400Y-160655000D01*
X121144814Y-160655000D01*
X120851671Y-160947631D01*
M02*
