G04 #@! TF.FileFunction,Legend,Top*
%FSLAX46Y46*%
G04 Gerber Fmt 4.6, Leading zero omitted, Abs format (unit mm)*
G04 Created by KiCad (PCBNEW 4.0.7) date 08/13/18 10:27:34*
%MOMM*%
%LPD*%
G01*
G04 APERTURE LIST*
%ADD10C,0.100000*%
%ADD11C,0.300000*%
%ADD12C,0.275000*%
%ADD13C,0.250000*%
%ADD14C,0.200000*%
%ADD15C,0.190500*%
%ADD16C,0.150000*%
%ADD17C,0.120000*%
%ADD18C,0.152400*%
%ADD19C,0.010000*%
G04 APERTURE END LIST*
D10*
D11*
X119925333Y-152852571D02*
X121711048Y-152852571D01*
X120639619Y-150709714D02*
X119925333Y-157138286D01*
X121472953Y-154995429D02*
X119687238Y-154995429D01*
X120758667Y-157138286D02*
X121472953Y-150709714D01*
X123972953Y-156185905D02*
X123139619Y-153804952D01*
X122544381Y-156185905D02*
X122544381Y-151185905D01*
X123496762Y-151185905D01*
X123734857Y-151424000D01*
X123853905Y-151662095D01*
X123972953Y-152138286D01*
X123972953Y-152852571D01*
X123853905Y-153328762D01*
X123734857Y-153566857D01*
X123496762Y-153804952D01*
X122544381Y-153804952D01*
X125520572Y-151185905D02*
X125996762Y-151185905D01*
X126234857Y-151424000D01*
X126472953Y-151900190D01*
X126592000Y-152852571D01*
X126592000Y-154519238D01*
X126472953Y-155471619D01*
X126234857Y-155947810D01*
X125996762Y-156185905D01*
X125520572Y-156185905D01*
X125282476Y-155947810D01*
X125044381Y-155471619D01*
X124925333Y-154519238D01*
X124925333Y-152852571D01*
X125044381Y-151900190D01*
X125282476Y-151424000D01*
X125520572Y-151185905D01*
X127306286Y-151185905D02*
X128139620Y-156185905D01*
X128972953Y-151185905D01*
X129806286Y-153566857D02*
X130639619Y-153566857D01*
X130996762Y-156185905D02*
X129806286Y-156185905D01*
X129806286Y-151185905D01*
X130996762Y-151185905D01*
X131949143Y-155947810D02*
X132306286Y-156185905D01*
X132901524Y-156185905D01*
X133139620Y-155947810D01*
X133258667Y-155709714D01*
X133377715Y-155233524D01*
X133377715Y-154757333D01*
X133258667Y-154281143D01*
X133139620Y-154043048D01*
X132901524Y-153804952D01*
X132425334Y-153566857D01*
X132187239Y-153328762D01*
X132068191Y-153090667D01*
X131949143Y-152614476D01*
X131949143Y-152138286D01*
X132068191Y-151662095D01*
X132187239Y-151424000D01*
X132425334Y-151185905D01*
X133020572Y-151185905D01*
X133377715Y-151424000D01*
X134925334Y-151185905D02*
X135401524Y-151185905D01*
X135639619Y-151424000D01*
X135877715Y-151900190D01*
X135996762Y-152852571D01*
X135996762Y-154519238D01*
X135877715Y-155471619D01*
X135639619Y-155947810D01*
X135401524Y-156185905D01*
X134925334Y-156185905D01*
X134687238Y-155947810D01*
X134449143Y-155471619D01*
X134330095Y-154519238D01*
X134330095Y-152852571D01*
X134449143Y-151900190D01*
X134687238Y-151424000D01*
X134925334Y-151185905D01*
X137068191Y-156185905D02*
X137068191Y-151185905D01*
X137068191Y-153566857D02*
X138496763Y-153566857D01*
X138496763Y-156185905D02*
X138496763Y-151185905D01*
X139568191Y-154757333D02*
X140758668Y-154757333D01*
X139330096Y-156185905D02*
X140163430Y-151185905D01*
X140996763Y-156185905D01*
X143258668Y-156185905D02*
X142425334Y-153804952D01*
X141830096Y-156185905D02*
X141830096Y-151185905D01*
X142782477Y-151185905D01*
X143020572Y-151424000D01*
X143139620Y-151662095D01*
X143258668Y-152138286D01*
X143258668Y-152852571D01*
X143139620Y-153328762D01*
X143020572Y-153566857D01*
X142782477Y-153804952D01*
X141830096Y-153804952D01*
X144330096Y-156185905D02*
X144330096Y-151185905D01*
X144925334Y-151185905D01*
X145282477Y-151424000D01*
X145520572Y-151900190D01*
X145639620Y-152376381D01*
X145758668Y-153328762D01*
X145758668Y-154043048D01*
X145639620Y-154995429D01*
X145520572Y-155471619D01*
X145282477Y-155947810D01*
X144925334Y-156185905D01*
X144330096Y-156185905D01*
D12*
X135801998Y-228890286D02*
X135668664Y-228836000D01*
X135535331Y-228727429D01*
X135335331Y-228564571D01*
X135201998Y-228510286D01*
X135068664Y-228510286D01*
X135135331Y-228781714D02*
X135001998Y-228727429D01*
X134868664Y-228618857D01*
X134801998Y-228401714D01*
X134801998Y-228021714D01*
X134868664Y-227804571D01*
X135001998Y-227696000D01*
X135135331Y-227641714D01*
X135401998Y-227641714D01*
X135535331Y-227696000D01*
X135668664Y-227804571D01*
X135735331Y-228021714D01*
X135735331Y-228401714D01*
X135668664Y-228618857D01*
X135535331Y-228727429D01*
X135401998Y-228781714D01*
X135135331Y-228781714D01*
X136935331Y-228021714D02*
X136935331Y-228781714D01*
X136335331Y-228021714D02*
X136335331Y-228618857D01*
X136401998Y-228727429D01*
X136535331Y-228781714D01*
X136735331Y-228781714D01*
X136868665Y-228727429D01*
X136935331Y-228673143D01*
X138135332Y-228727429D02*
X138001998Y-228781714D01*
X137735332Y-228781714D01*
X137601998Y-228727429D01*
X137535332Y-228618857D01*
X137535332Y-228184571D01*
X137601998Y-228076000D01*
X137735332Y-228021714D01*
X138001998Y-228021714D01*
X138135332Y-228076000D01*
X138201998Y-228184571D01*
X138201998Y-228293143D01*
X137535332Y-228401714D01*
X138735332Y-228727429D02*
X138868665Y-228781714D01*
X139135332Y-228781714D01*
X139268665Y-228727429D01*
X139335332Y-228618857D01*
X139335332Y-228564571D01*
X139268665Y-228456000D01*
X139135332Y-228401714D01*
X138935332Y-228401714D01*
X138801998Y-228347429D01*
X138735332Y-228238857D01*
X138735332Y-228184571D01*
X138801998Y-228076000D01*
X138935332Y-228021714D01*
X139135332Y-228021714D01*
X139268665Y-228076000D01*
X139735331Y-228021714D02*
X140268665Y-228021714D01*
X139935331Y-227641714D02*
X139935331Y-228618857D01*
X140001998Y-228727429D01*
X140135331Y-228781714D01*
X140268665Y-228781714D01*
X140735331Y-228781714D02*
X140735331Y-228021714D01*
X140735331Y-227641714D02*
X140668665Y-227696000D01*
X140735331Y-227750286D01*
X140801998Y-227696000D01*
X140735331Y-227641714D01*
X140735331Y-227750286D01*
X141601998Y-228781714D02*
X141468665Y-228727429D01*
X141401998Y-228673143D01*
X141335332Y-228564571D01*
X141335332Y-228238857D01*
X141401998Y-228130286D01*
X141468665Y-228076000D01*
X141601998Y-228021714D01*
X141801998Y-228021714D01*
X141935332Y-228076000D01*
X142001998Y-228130286D01*
X142068665Y-228238857D01*
X142068665Y-228564571D01*
X142001998Y-228673143D01*
X141935332Y-228727429D01*
X141801998Y-228781714D01*
X141601998Y-228781714D01*
X142668665Y-228021714D02*
X142668665Y-228781714D01*
X142668665Y-228130286D02*
X142735332Y-228076000D01*
X142868665Y-228021714D01*
X143068665Y-228021714D01*
X143201999Y-228076000D01*
X143268665Y-228184571D01*
X143268665Y-228781714D01*
X143868666Y-228727429D02*
X144001999Y-228781714D01*
X144268666Y-228781714D01*
X144401999Y-228727429D01*
X144468666Y-228618857D01*
X144468666Y-228564571D01*
X144401999Y-228456000D01*
X144268666Y-228401714D01*
X144068666Y-228401714D01*
X143935332Y-228347429D01*
X143868666Y-228238857D01*
X143868666Y-228184571D01*
X143935332Y-228076000D01*
X144068666Y-228021714D01*
X144268666Y-228021714D01*
X144401999Y-228076000D01*
X145268665Y-228673143D02*
X145335332Y-228727429D01*
X145268665Y-228781714D01*
X145201999Y-228727429D01*
X145268665Y-228673143D01*
X145268665Y-228781714D01*
X145001999Y-227696000D02*
X145135332Y-227641714D01*
X145468665Y-227641714D01*
X145601999Y-227696000D01*
X145668665Y-227804571D01*
X145668665Y-227913143D01*
X145601999Y-228021714D01*
X145535332Y-228076000D01*
X145401999Y-228130286D01*
X145335332Y-228184571D01*
X145268665Y-228293143D01*
X145268665Y-228347429D01*
X148135332Y-228673143D02*
X148068666Y-228727429D01*
X147868666Y-228781714D01*
X147735332Y-228781714D01*
X147535332Y-228727429D01*
X147401999Y-228618857D01*
X147335332Y-228510286D01*
X147268666Y-228293143D01*
X147268666Y-228130286D01*
X147335332Y-227913143D01*
X147401999Y-227804571D01*
X147535332Y-227696000D01*
X147735332Y-227641714D01*
X147868666Y-227641714D01*
X148068666Y-227696000D01*
X148135332Y-227750286D01*
X148935332Y-228781714D02*
X148801999Y-228727429D01*
X148735332Y-228673143D01*
X148668666Y-228564571D01*
X148668666Y-228238857D01*
X148735332Y-228130286D01*
X148801999Y-228076000D01*
X148935332Y-228021714D01*
X149135332Y-228021714D01*
X149268666Y-228076000D01*
X149335332Y-228130286D01*
X149401999Y-228238857D01*
X149401999Y-228564571D01*
X149335332Y-228673143D01*
X149268666Y-228727429D01*
X149135332Y-228781714D01*
X148935332Y-228781714D01*
X150001999Y-228021714D02*
X150001999Y-228781714D01*
X150001999Y-228130286D02*
X150068666Y-228076000D01*
X150201999Y-228021714D01*
X150401999Y-228021714D01*
X150535333Y-228076000D01*
X150601999Y-228184571D01*
X150601999Y-228781714D01*
X151068666Y-228021714D02*
X151602000Y-228021714D01*
X151268666Y-227641714D02*
X151268666Y-228618857D01*
X151335333Y-228727429D01*
X151468666Y-228781714D01*
X151602000Y-228781714D01*
X152668666Y-228781714D02*
X152668666Y-228184571D01*
X152602000Y-228076000D01*
X152468666Y-228021714D01*
X152202000Y-228021714D01*
X152068666Y-228076000D01*
X152668666Y-228727429D02*
X152535333Y-228781714D01*
X152202000Y-228781714D01*
X152068666Y-228727429D01*
X152002000Y-228618857D01*
X152002000Y-228510286D01*
X152068666Y-228401714D01*
X152202000Y-228347429D01*
X152535333Y-228347429D01*
X152668666Y-228293143D01*
X153935333Y-228727429D02*
X153802000Y-228781714D01*
X153535333Y-228781714D01*
X153402000Y-228727429D01*
X153335333Y-228673143D01*
X153268667Y-228564571D01*
X153268667Y-228238857D01*
X153335333Y-228130286D01*
X153402000Y-228076000D01*
X153535333Y-228021714D01*
X153802000Y-228021714D01*
X153935333Y-228076000D01*
X154335333Y-228021714D02*
X154868667Y-228021714D01*
X154535333Y-227641714D02*
X154535333Y-228618857D01*
X154602000Y-228727429D01*
X154735333Y-228781714D01*
X154868667Y-228781714D01*
X156402000Y-228781714D02*
X156402000Y-227641714D01*
X156868667Y-228456000D01*
X157335334Y-227641714D01*
X157335334Y-228781714D01*
X158602000Y-228781714D02*
X158602000Y-228184571D01*
X158535334Y-228076000D01*
X158402000Y-228021714D01*
X158135334Y-228021714D01*
X158002000Y-228076000D01*
X158602000Y-228727429D02*
X158468667Y-228781714D01*
X158135334Y-228781714D01*
X158002000Y-228727429D01*
X157935334Y-228618857D01*
X157935334Y-228510286D01*
X158002000Y-228401714D01*
X158135334Y-228347429D01*
X158468667Y-228347429D01*
X158602000Y-228293143D01*
X159268667Y-228781714D02*
X159268667Y-228021714D01*
X159268667Y-228238857D02*
X159335334Y-228130286D01*
X159402001Y-228076000D01*
X159535334Y-228021714D01*
X159668667Y-228021714D01*
X160068668Y-228727429D02*
X160202001Y-228781714D01*
X160468668Y-228781714D01*
X160602001Y-228727429D01*
X160668668Y-228618857D01*
X160668668Y-228564571D01*
X160602001Y-228456000D01*
X160468668Y-228401714D01*
X160268668Y-228401714D01*
X160135334Y-228347429D01*
X160068668Y-228238857D01*
X160068668Y-228184571D01*
X160135334Y-228076000D01*
X160268668Y-228021714D01*
X160468668Y-228021714D01*
X160602001Y-228076000D01*
X161268667Y-228781714D02*
X161268667Y-228021714D01*
X161268667Y-228238857D02*
X161335334Y-228130286D01*
X161402001Y-228076000D01*
X161535334Y-228021714D01*
X161668667Y-228021714D01*
X162335334Y-228781714D02*
X162202001Y-228727429D01*
X162135334Y-228673143D01*
X162068668Y-228564571D01*
X162068668Y-228238857D01*
X162135334Y-228130286D01*
X162202001Y-228076000D01*
X162335334Y-228021714D01*
X162535334Y-228021714D01*
X162668668Y-228076000D01*
X162735334Y-228130286D01*
X162802001Y-228238857D01*
X162802001Y-228564571D01*
X162735334Y-228673143D01*
X162668668Y-228727429D01*
X162535334Y-228781714D01*
X162335334Y-228781714D01*
X163268668Y-228021714D02*
X163602001Y-228781714D01*
X163935335Y-228021714D01*
X165002002Y-228727429D02*
X164868668Y-228781714D01*
X164602002Y-228781714D01*
X164468668Y-228727429D01*
X164402002Y-228618857D01*
X164402002Y-228184571D01*
X164468668Y-228076000D01*
X164602002Y-228021714D01*
X164868668Y-228021714D01*
X165002002Y-228076000D01*
X165068668Y-228184571D01*
X165068668Y-228293143D01*
X164402002Y-228401714D01*
X165668668Y-228781714D02*
X165668668Y-228021714D01*
X165668668Y-228238857D02*
X165735335Y-228130286D01*
X165802002Y-228076000D01*
X165935335Y-228021714D01*
X166068668Y-228021714D01*
X167402002Y-228238857D02*
X167335335Y-228184571D01*
X167202002Y-228130286D01*
X167068669Y-228130286D01*
X166935335Y-228184571D01*
X166868669Y-228238857D01*
X166802002Y-228347429D01*
X166802002Y-228456000D01*
X166868669Y-228564571D01*
X166935335Y-228618857D01*
X167068669Y-228673143D01*
X167202002Y-228673143D01*
X167335335Y-228618857D01*
X167402002Y-228564571D01*
X167402002Y-228130286D02*
X167402002Y-228564571D01*
X167468669Y-228618857D01*
X167535335Y-228618857D01*
X167668669Y-228564571D01*
X167735335Y-228456000D01*
X167735335Y-228184571D01*
X167602002Y-228021714D01*
X167402002Y-227913143D01*
X167135335Y-227858857D01*
X166868669Y-227913143D01*
X166668669Y-228021714D01*
X166535335Y-228184571D01*
X166468669Y-228401714D01*
X166535335Y-228618857D01*
X166668669Y-228781714D01*
X166868669Y-228890286D01*
X167135335Y-228944571D01*
X167402002Y-228890286D01*
X167602002Y-228781714D01*
X168335335Y-228781714D02*
X168335335Y-228021714D01*
X168335335Y-228130286D02*
X168402002Y-228076000D01*
X168535335Y-228021714D01*
X168735335Y-228021714D01*
X168868669Y-228076000D01*
X168935335Y-228184571D01*
X168935335Y-228781714D01*
X168935335Y-228184571D02*
X169002002Y-228076000D01*
X169135335Y-228021714D01*
X169335335Y-228021714D01*
X169468669Y-228076000D01*
X169535335Y-228184571D01*
X169535335Y-228781714D01*
X170135336Y-228727429D02*
X170268669Y-228781714D01*
X170535336Y-228781714D01*
X170668669Y-228727429D01*
X170735336Y-228618857D01*
X170735336Y-228564571D01*
X170668669Y-228456000D01*
X170535336Y-228401714D01*
X170335336Y-228401714D01*
X170202002Y-228347429D01*
X170135336Y-228238857D01*
X170135336Y-228184571D01*
X170202002Y-228076000D01*
X170335336Y-228021714D01*
X170535336Y-228021714D01*
X170668669Y-228076000D01*
X171135335Y-228021714D02*
X171668669Y-228021714D01*
X171335335Y-227641714D02*
X171335335Y-228618857D01*
X171402002Y-228727429D01*
X171535335Y-228781714D01*
X171668669Y-228781714D01*
X172135335Y-228673143D02*
X172202002Y-228727429D01*
X172135335Y-228781714D01*
X172068669Y-228727429D01*
X172135335Y-228673143D01*
X172135335Y-228781714D01*
X173335336Y-228727429D02*
X173202002Y-228781714D01*
X172935336Y-228781714D01*
X172802002Y-228727429D01*
X172735336Y-228618857D01*
X172735336Y-228184571D01*
X172802002Y-228076000D01*
X172935336Y-228021714D01*
X173202002Y-228021714D01*
X173335336Y-228076000D01*
X173402002Y-228184571D01*
X173402002Y-228293143D01*
X172735336Y-228401714D01*
X174602002Y-228781714D02*
X174602002Y-227641714D01*
X174602002Y-228727429D02*
X174468669Y-228781714D01*
X174202002Y-228781714D01*
X174068669Y-228727429D01*
X174002002Y-228673143D01*
X173935336Y-228564571D01*
X173935336Y-228238857D01*
X174002002Y-228130286D01*
X174068669Y-228076000D01*
X174202002Y-228021714D01*
X174468669Y-228021714D01*
X174602002Y-228076000D01*
X175868669Y-228021714D02*
X175868669Y-228781714D01*
X175268669Y-228021714D02*
X175268669Y-228618857D01*
X175335336Y-228727429D01*
X175468669Y-228781714D01*
X175668669Y-228781714D01*
X175802003Y-228727429D01*
X175868669Y-228673143D01*
X176602003Y-228727429D02*
X176602003Y-228781714D01*
X176535336Y-228890286D01*
X176468670Y-228944571D01*
X138168664Y-229626714D02*
X138168664Y-230441000D01*
X138101998Y-230603857D01*
X137968664Y-230712429D01*
X137768664Y-230766714D01*
X137635331Y-230766714D01*
X139435331Y-230766714D02*
X139435331Y-230169571D01*
X139368665Y-230061000D01*
X139235331Y-230006714D01*
X138968665Y-230006714D01*
X138835331Y-230061000D01*
X139435331Y-230712429D02*
X139301998Y-230766714D01*
X138968665Y-230766714D01*
X138835331Y-230712429D01*
X138768665Y-230603857D01*
X138768665Y-230495286D01*
X138835331Y-230386714D01*
X138968665Y-230332429D01*
X139301998Y-230332429D01*
X139435331Y-230278143D01*
X140701998Y-230712429D02*
X140568665Y-230766714D01*
X140301998Y-230766714D01*
X140168665Y-230712429D01*
X140101998Y-230658143D01*
X140035332Y-230549571D01*
X140035332Y-230223857D01*
X140101998Y-230115286D01*
X140168665Y-230061000D01*
X140301998Y-230006714D01*
X140568665Y-230006714D01*
X140701998Y-230061000D01*
X141501998Y-230766714D02*
X141368665Y-230712429D01*
X141301998Y-230658143D01*
X141235332Y-230549571D01*
X141235332Y-230223857D01*
X141301998Y-230115286D01*
X141368665Y-230061000D01*
X141501998Y-230006714D01*
X141701998Y-230006714D01*
X141835332Y-230061000D01*
X141901998Y-230115286D01*
X141968665Y-230223857D01*
X141968665Y-230549571D01*
X141901998Y-230658143D01*
X141835332Y-230712429D01*
X141701998Y-230766714D01*
X141501998Y-230766714D01*
X142568665Y-230766714D02*
X142568665Y-229626714D01*
X142568665Y-230061000D02*
X142701999Y-230006714D01*
X142968665Y-230006714D01*
X143101999Y-230061000D01*
X143168665Y-230115286D01*
X143235332Y-230223857D01*
X143235332Y-230549571D01*
X143168665Y-230658143D01*
X143101999Y-230712429D01*
X142968665Y-230766714D01*
X142701999Y-230766714D01*
X142568665Y-230712429D01*
X145568666Y-230766714D02*
X144901999Y-230766714D01*
X144901999Y-229626714D01*
X146035332Y-230766714D02*
X146035332Y-230006714D01*
X146035332Y-229626714D02*
X145968666Y-229681000D01*
X146035332Y-229735286D01*
X146101999Y-229681000D01*
X146035332Y-229626714D01*
X146035332Y-229735286D01*
X146701999Y-230006714D02*
X146701999Y-231146714D01*
X146701999Y-230061000D02*
X146835333Y-230006714D01*
X147101999Y-230006714D01*
X147235333Y-230061000D01*
X147301999Y-230115286D01*
X147368666Y-230223857D01*
X147368666Y-230549571D01*
X147301999Y-230658143D01*
X147235333Y-230712429D01*
X147101999Y-230766714D01*
X146835333Y-230766714D01*
X146701999Y-230712429D01*
X147968666Y-230766714D02*
X147968666Y-230006714D01*
X147968666Y-229626714D02*
X147902000Y-229681000D01*
X147968666Y-229735286D01*
X148035333Y-229681000D01*
X147968666Y-229626714D01*
X147968666Y-229735286D01*
X148635333Y-230006714D02*
X148635333Y-230766714D01*
X148635333Y-230115286D02*
X148702000Y-230061000D01*
X148835333Y-230006714D01*
X149035333Y-230006714D01*
X149168667Y-230061000D01*
X149235333Y-230169571D01*
X149235333Y-230766714D01*
X150502000Y-230766714D02*
X150502000Y-230169571D01*
X150435334Y-230061000D01*
X150302000Y-230006714D01*
X150035334Y-230006714D01*
X149902000Y-230061000D01*
X150502000Y-230712429D02*
X150368667Y-230766714D01*
X150035334Y-230766714D01*
X149902000Y-230712429D01*
X149835334Y-230603857D01*
X149835334Y-230495286D01*
X149902000Y-230386714D01*
X150035334Y-230332429D01*
X150368667Y-230332429D01*
X150502000Y-230278143D01*
X152635334Y-231201000D02*
X152568668Y-231146714D01*
X152435334Y-230983857D01*
X152368668Y-230875286D01*
X152302001Y-230712429D01*
X152235334Y-230441000D01*
X152235334Y-230223857D01*
X152302001Y-229952429D01*
X152368668Y-229789571D01*
X152435334Y-229681000D01*
X152568668Y-229518143D01*
X152635334Y-229463857D01*
X153168667Y-230006714D02*
X153168667Y-230983857D01*
X153102001Y-231092429D01*
X152968667Y-231146714D01*
X152902001Y-231146714D01*
X153168667Y-229626714D02*
X153102001Y-229681000D01*
X153168667Y-229735286D01*
X153235334Y-229681000D01*
X153168667Y-229626714D01*
X153168667Y-229735286D01*
X153835334Y-230766714D02*
X153835334Y-230006714D01*
X153835334Y-230223857D02*
X153902001Y-230115286D01*
X153968668Y-230061000D01*
X154102001Y-230006714D01*
X154235334Y-230006714D01*
X154902001Y-230766714D02*
X154768668Y-230712429D01*
X154702001Y-230603857D01*
X154702001Y-229626714D01*
X155302001Y-230006714D02*
X155568668Y-230766714D01*
X155835334Y-230223857D01*
X156102001Y-230766714D01*
X156368668Y-230006714D01*
X157502001Y-230766714D02*
X157502001Y-229626714D01*
X157502001Y-230712429D02*
X157368668Y-230766714D01*
X157102001Y-230766714D01*
X156968668Y-230712429D01*
X156902001Y-230658143D01*
X156835335Y-230549571D01*
X156835335Y-230223857D01*
X156902001Y-230115286D01*
X156968668Y-230061000D01*
X157102001Y-230006714D01*
X157368668Y-230006714D01*
X157502001Y-230061000D01*
X158835335Y-229626714D02*
X158168668Y-229626714D01*
X158102002Y-230169571D01*
X158168668Y-230115286D01*
X158302002Y-230061000D01*
X158635335Y-230061000D01*
X158768668Y-230115286D01*
X158835335Y-230169571D01*
X158902002Y-230278143D01*
X158902002Y-230549571D01*
X158835335Y-230658143D01*
X158768668Y-230712429D01*
X158635335Y-230766714D01*
X158302002Y-230766714D01*
X158168668Y-230712429D01*
X158102002Y-230658143D01*
X160368668Y-230223857D02*
X160302001Y-230169571D01*
X160168668Y-230115286D01*
X160035335Y-230115286D01*
X159902001Y-230169571D01*
X159835335Y-230223857D01*
X159768668Y-230332429D01*
X159768668Y-230441000D01*
X159835335Y-230549571D01*
X159902001Y-230603857D01*
X160035335Y-230658143D01*
X160168668Y-230658143D01*
X160302001Y-230603857D01*
X160368668Y-230549571D01*
X160368668Y-230115286D02*
X160368668Y-230549571D01*
X160435335Y-230603857D01*
X160502001Y-230603857D01*
X160635335Y-230549571D01*
X160702001Y-230441000D01*
X160702001Y-230169571D01*
X160568668Y-230006714D01*
X160368668Y-229898143D01*
X160102001Y-229843857D01*
X159835335Y-229898143D01*
X159635335Y-230006714D01*
X159502001Y-230169571D01*
X159435335Y-230386714D01*
X159502001Y-230603857D01*
X159635335Y-230766714D01*
X159835335Y-230875286D01*
X160102001Y-230929571D01*
X160368668Y-230875286D01*
X160568668Y-230766714D01*
X161302001Y-230766714D02*
X161302001Y-230006714D01*
X161302001Y-230115286D02*
X161368668Y-230061000D01*
X161502001Y-230006714D01*
X161702001Y-230006714D01*
X161835335Y-230061000D01*
X161902001Y-230169571D01*
X161902001Y-230766714D01*
X161902001Y-230169571D02*
X161968668Y-230061000D01*
X162102001Y-230006714D01*
X162302001Y-230006714D01*
X162435335Y-230061000D01*
X162502001Y-230169571D01*
X162502001Y-230766714D01*
X163102002Y-230712429D02*
X163235335Y-230766714D01*
X163502002Y-230766714D01*
X163635335Y-230712429D01*
X163702002Y-230603857D01*
X163702002Y-230549571D01*
X163635335Y-230441000D01*
X163502002Y-230386714D01*
X163302002Y-230386714D01*
X163168668Y-230332429D01*
X163102002Y-230223857D01*
X163102002Y-230169571D01*
X163168668Y-230061000D01*
X163302002Y-230006714D01*
X163502002Y-230006714D01*
X163635335Y-230061000D01*
X164102001Y-230006714D02*
X164635335Y-230006714D01*
X164302001Y-229626714D02*
X164302001Y-230603857D01*
X164368668Y-230712429D01*
X164502001Y-230766714D01*
X164635335Y-230766714D01*
X165102001Y-230658143D02*
X165168668Y-230712429D01*
X165102001Y-230766714D01*
X165035335Y-230712429D01*
X165102001Y-230658143D01*
X165102001Y-230766714D01*
X166302002Y-230712429D02*
X166168668Y-230766714D01*
X165902002Y-230766714D01*
X165768668Y-230712429D01*
X165702002Y-230603857D01*
X165702002Y-230169571D01*
X165768668Y-230061000D01*
X165902002Y-230006714D01*
X166168668Y-230006714D01*
X166302002Y-230061000D01*
X166368668Y-230169571D01*
X166368668Y-230278143D01*
X165702002Y-230386714D01*
X167568668Y-230766714D02*
X167568668Y-229626714D01*
X167568668Y-230712429D02*
X167435335Y-230766714D01*
X167168668Y-230766714D01*
X167035335Y-230712429D01*
X166968668Y-230658143D01*
X166902002Y-230549571D01*
X166902002Y-230223857D01*
X166968668Y-230115286D01*
X167035335Y-230061000D01*
X167168668Y-230006714D01*
X167435335Y-230006714D01*
X167568668Y-230061000D01*
X168835335Y-230006714D02*
X168835335Y-230766714D01*
X168235335Y-230006714D02*
X168235335Y-230603857D01*
X168302002Y-230712429D01*
X168435335Y-230766714D01*
X168635335Y-230766714D01*
X168768669Y-230712429D01*
X168835335Y-230658143D01*
X169368669Y-231201000D02*
X169435336Y-231146714D01*
X169568669Y-230983857D01*
X169635336Y-230875286D01*
X169702002Y-230712429D01*
X169768669Y-230441000D01*
X169768669Y-230223857D01*
X169702002Y-229952429D01*
X169635336Y-229789571D01*
X169568669Y-229681000D01*
X169435336Y-229518143D01*
X169368669Y-229463857D01*
X170502002Y-230712429D02*
X170502002Y-230766714D01*
X170435335Y-230875286D01*
X170368669Y-230929571D01*
X172368669Y-230766714D02*
X172235336Y-230712429D01*
X172168669Y-230658143D01*
X172102003Y-230549571D01*
X172102003Y-230223857D01*
X172168669Y-230115286D01*
X172235336Y-230061000D01*
X172368669Y-230006714D01*
X172568669Y-230006714D01*
X172702003Y-230061000D01*
X172768669Y-230115286D01*
X172835336Y-230223857D01*
X172835336Y-230549571D01*
X172768669Y-230658143D01*
X172702003Y-230712429D01*
X172568669Y-230766714D01*
X172368669Y-230766714D01*
X173435336Y-230766714D02*
X173435336Y-230006714D01*
X173435336Y-230223857D02*
X173502003Y-230115286D01*
X173568670Y-230061000D01*
X173702003Y-230006714D01*
X173835336Y-230006714D01*
X136968664Y-232426000D02*
X137635330Y-232426000D01*
X136835330Y-232751714D02*
X137301997Y-231611714D01*
X137768664Y-232751714D01*
X138235330Y-231991714D02*
X138235330Y-232751714D01*
X138235330Y-232100286D02*
X138301997Y-232046000D01*
X138435330Y-231991714D01*
X138635330Y-231991714D01*
X138768664Y-232046000D01*
X138835330Y-232154571D01*
X138835330Y-232751714D01*
X140101997Y-232751714D02*
X140101997Y-231611714D01*
X140101997Y-232697429D02*
X139968664Y-232751714D01*
X139701997Y-232751714D01*
X139568664Y-232697429D01*
X139501997Y-232643143D01*
X139435331Y-232534571D01*
X139435331Y-232208857D01*
X139501997Y-232100286D01*
X139568664Y-232046000D01*
X139701997Y-231991714D01*
X139968664Y-231991714D01*
X140101997Y-232046000D01*
X140768664Y-232751714D02*
X140768664Y-231991714D01*
X140768664Y-232208857D02*
X140835331Y-232100286D01*
X140901998Y-232046000D01*
X141035331Y-231991714D01*
X141168664Y-231991714D01*
X142168665Y-232697429D02*
X142035331Y-232751714D01*
X141768665Y-232751714D01*
X141635331Y-232697429D01*
X141568665Y-232588857D01*
X141568665Y-232154571D01*
X141635331Y-232046000D01*
X141768665Y-231991714D01*
X142035331Y-231991714D01*
X142168665Y-232046000D01*
X142235331Y-232154571D01*
X142235331Y-232263143D01*
X141568665Y-232371714D01*
X142701998Y-231991714D02*
X142968665Y-232751714D01*
X143235331Y-232208857D01*
X143501998Y-232751714D01*
X143768665Y-231991714D01*
X145168665Y-231611714D02*
X145635332Y-232751714D01*
X146101999Y-231611714D01*
X147168665Y-232751714D02*
X147168665Y-232154571D01*
X147101999Y-232046000D01*
X146968665Y-231991714D01*
X146701999Y-231991714D01*
X146568665Y-232046000D01*
X147168665Y-232697429D02*
X147035332Y-232751714D01*
X146701999Y-232751714D01*
X146568665Y-232697429D01*
X146501999Y-232588857D01*
X146501999Y-232480286D01*
X146568665Y-232371714D01*
X146701999Y-232317429D01*
X147035332Y-232317429D01*
X147168665Y-232263143D01*
X147835332Y-231991714D02*
X147835332Y-232751714D01*
X147835332Y-232100286D02*
X147901999Y-232046000D01*
X148035332Y-231991714D01*
X148235332Y-231991714D01*
X148368666Y-232046000D01*
X148435332Y-232154571D01*
X148435332Y-232751714D01*
X150168666Y-232751714D02*
X150168666Y-231611714D01*
X150168666Y-232154571D02*
X150968666Y-232154571D01*
X150968666Y-232751714D02*
X150968666Y-231611714D01*
X151835333Y-232751714D02*
X151702000Y-232697429D01*
X151635333Y-232643143D01*
X151568667Y-232534571D01*
X151568667Y-232208857D01*
X151635333Y-232100286D01*
X151702000Y-232046000D01*
X151835333Y-231991714D01*
X152035333Y-231991714D01*
X152168667Y-232046000D01*
X152235333Y-232100286D01*
X152302000Y-232208857D01*
X152302000Y-232534571D01*
X152235333Y-232643143D01*
X152168667Y-232697429D01*
X152035333Y-232751714D01*
X151835333Y-232751714D01*
X152902000Y-232751714D02*
X152902000Y-231991714D01*
X152902000Y-232208857D02*
X152968667Y-232100286D01*
X153035334Y-232046000D01*
X153168667Y-231991714D01*
X153302000Y-231991714D01*
X153768667Y-231991714D02*
X153768667Y-232751714D01*
X153768667Y-232100286D02*
X153835334Y-232046000D01*
X153968667Y-231991714D01*
X154168667Y-231991714D01*
X154302001Y-232046000D01*
X154368667Y-232154571D01*
X154368667Y-232751714D01*
X156502001Y-233186000D02*
X156435335Y-233131714D01*
X156302001Y-232968857D01*
X156235335Y-232860286D01*
X156168668Y-232697429D01*
X156102001Y-232426000D01*
X156102001Y-232208857D01*
X156168668Y-231937429D01*
X156235335Y-231774571D01*
X156302001Y-231666000D01*
X156435335Y-231503143D01*
X156502001Y-231448857D01*
X157635334Y-232751714D02*
X157635334Y-232154571D01*
X157568668Y-232046000D01*
X157435334Y-231991714D01*
X157168668Y-231991714D01*
X157035334Y-232046000D01*
X157635334Y-232697429D02*
X157502001Y-232751714D01*
X157168668Y-232751714D01*
X157035334Y-232697429D01*
X156968668Y-232588857D01*
X156968668Y-232480286D01*
X157035334Y-232371714D01*
X157168668Y-232317429D01*
X157502001Y-232317429D01*
X157635334Y-232263143D01*
X158235335Y-232697429D02*
X158368668Y-232751714D01*
X158635335Y-232751714D01*
X158768668Y-232697429D01*
X158835335Y-232588857D01*
X158835335Y-232534571D01*
X158768668Y-232426000D01*
X158635335Y-232371714D01*
X158435335Y-232371714D01*
X158302001Y-232317429D01*
X158235335Y-232208857D01*
X158235335Y-232154571D01*
X158302001Y-232046000D01*
X158435335Y-231991714D01*
X158635335Y-231991714D01*
X158768668Y-232046000D01*
X159302001Y-231991714D02*
X159635334Y-232751714D01*
X159968668Y-231991714D01*
X161102001Y-231991714D02*
X161102001Y-232914571D01*
X161035335Y-233023143D01*
X160968668Y-233077429D01*
X160835335Y-233131714D01*
X160635335Y-233131714D01*
X160502001Y-233077429D01*
X161102001Y-232697429D02*
X160968668Y-232751714D01*
X160702001Y-232751714D01*
X160568668Y-232697429D01*
X160502001Y-232643143D01*
X160435335Y-232534571D01*
X160435335Y-232208857D01*
X160502001Y-232100286D01*
X160568668Y-232046000D01*
X160702001Y-231991714D01*
X160968668Y-231991714D01*
X161102001Y-232046000D01*
X162368668Y-232751714D02*
X162368668Y-231611714D01*
X162368668Y-232697429D02*
X162235335Y-232751714D01*
X161968668Y-232751714D01*
X161835335Y-232697429D01*
X161768668Y-232643143D01*
X161702002Y-232534571D01*
X161702002Y-232208857D01*
X161768668Y-232100286D01*
X161835335Y-232046000D01*
X161968668Y-231991714D01*
X162235335Y-231991714D01*
X162368668Y-232046000D01*
X162902002Y-231991714D02*
X163235335Y-232751714D01*
X163568669Y-231991714D01*
X164968669Y-232208857D02*
X164902002Y-232154571D01*
X164768669Y-232100286D01*
X164635336Y-232100286D01*
X164502002Y-232154571D01*
X164435336Y-232208857D01*
X164368669Y-232317429D01*
X164368669Y-232426000D01*
X164435336Y-232534571D01*
X164502002Y-232588857D01*
X164635336Y-232643143D01*
X164768669Y-232643143D01*
X164902002Y-232588857D01*
X164968669Y-232534571D01*
X164968669Y-232100286D02*
X164968669Y-232534571D01*
X165035336Y-232588857D01*
X165102002Y-232588857D01*
X165235336Y-232534571D01*
X165302002Y-232426000D01*
X165302002Y-232154571D01*
X165168669Y-231991714D01*
X164968669Y-231883143D01*
X164702002Y-231828857D01*
X164435336Y-231883143D01*
X164235336Y-231991714D01*
X164102002Y-232154571D01*
X164035336Y-232371714D01*
X164102002Y-232588857D01*
X164235336Y-232751714D01*
X164435336Y-232860286D01*
X164702002Y-232914571D01*
X164968669Y-232860286D01*
X165168669Y-232751714D01*
X165902002Y-232751714D02*
X165902002Y-231991714D01*
X165902002Y-232100286D02*
X165968669Y-232046000D01*
X166102002Y-231991714D01*
X166302002Y-231991714D01*
X166435336Y-232046000D01*
X166502002Y-232154571D01*
X166502002Y-232751714D01*
X166502002Y-232154571D02*
X166568669Y-232046000D01*
X166702002Y-231991714D01*
X166902002Y-231991714D01*
X167035336Y-232046000D01*
X167102002Y-232154571D01*
X167102002Y-232751714D01*
X167702003Y-232697429D02*
X167835336Y-232751714D01*
X168102003Y-232751714D01*
X168235336Y-232697429D01*
X168302003Y-232588857D01*
X168302003Y-232534571D01*
X168235336Y-232426000D01*
X168102003Y-232371714D01*
X167902003Y-232371714D01*
X167768669Y-232317429D01*
X167702003Y-232208857D01*
X167702003Y-232154571D01*
X167768669Y-232046000D01*
X167902003Y-231991714D01*
X168102003Y-231991714D01*
X168235336Y-232046000D01*
X168702002Y-231991714D02*
X169235336Y-231991714D01*
X168902002Y-231611714D02*
X168902002Y-232588857D01*
X168968669Y-232697429D01*
X169102002Y-232751714D01*
X169235336Y-232751714D01*
X169702002Y-232643143D02*
X169768669Y-232697429D01*
X169702002Y-232751714D01*
X169635336Y-232697429D01*
X169702002Y-232643143D01*
X169702002Y-232751714D01*
X170902003Y-232697429D02*
X170768669Y-232751714D01*
X170502003Y-232751714D01*
X170368669Y-232697429D01*
X170302003Y-232588857D01*
X170302003Y-232154571D01*
X170368669Y-232046000D01*
X170502003Y-231991714D01*
X170768669Y-231991714D01*
X170902003Y-232046000D01*
X170968669Y-232154571D01*
X170968669Y-232263143D01*
X170302003Y-232371714D01*
X172168669Y-232751714D02*
X172168669Y-231611714D01*
X172168669Y-232697429D02*
X172035336Y-232751714D01*
X171768669Y-232751714D01*
X171635336Y-232697429D01*
X171568669Y-232643143D01*
X171502003Y-232534571D01*
X171502003Y-232208857D01*
X171568669Y-232100286D01*
X171635336Y-232046000D01*
X171768669Y-231991714D01*
X172035336Y-231991714D01*
X172168669Y-232046000D01*
X173435336Y-231991714D02*
X173435336Y-232751714D01*
X172835336Y-231991714D02*
X172835336Y-232588857D01*
X172902003Y-232697429D01*
X173035336Y-232751714D01*
X173235336Y-232751714D01*
X173368670Y-232697429D01*
X173435336Y-232643143D01*
X173968670Y-233186000D02*
X174035337Y-233131714D01*
X174168670Y-232968857D01*
X174235337Y-232860286D01*
X174302003Y-232697429D01*
X174368670Y-232426000D01*
X174368670Y-232208857D01*
X174302003Y-231937429D01*
X174235337Y-231774571D01*
X174168670Y-231666000D01*
X174035337Y-231503143D01*
X173968670Y-231448857D01*
X137956000Y-223533357D02*
X137384571Y-223533357D01*
X137384571Y-222333357D01*
X138813143Y-223476214D02*
X138698857Y-223533357D01*
X138470286Y-223533357D01*
X138356000Y-223476214D01*
X138298857Y-223361929D01*
X138298857Y-222904786D01*
X138356000Y-222790500D01*
X138470286Y-222733357D01*
X138698857Y-222733357D01*
X138813143Y-222790500D01*
X138870286Y-222904786D01*
X138870286Y-223019071D01*
X138298857Y-223133357D01*
X139898857Y-223533357D02*
X139898857Y-222904786D01*
X139841714Y-222790500D01*
X139727428Y-222733357D01*
X139498857Y-222733357D01*
X139384571Y-222790500D01*
X139898857Y-223476214D02*
X139784571Y-223533357D01*
X139498857Y-223533357D01*
X139384571Y-223476214D01*
X139327428Y-223361929D01*
X139327428Y-223247643D01*
X139384571Y-223133357D01*
X139498857Y-223076214D01*
X139784571Y-223076214D01*
X139898857Y-223019071D01*
X140470285Y-223533357D02*
X140470285Y-222733357D01*
X140470285Y-222961929D02*
X140527428Y-222847643D01*
X140584571Y-222790500D01*
X140698857Y-222733357D01*
X140813142Y-222733357D01*
X141213142Y-222733357D02*
X141213142Y-223533357D01*
X141213142Y-222847643D02*
X141270285Y-222790500D01*
X141384571Y-222733357D01*
X141555999Y-222733357D01*
X141670285Y-222790500D01*
X141727428Y-222904786D01*
X141727428Y-223533357D01*
X143041714Y-222733357D02*
X143498857Y-222733357D01*
X143213142Y-222333357D02*
X143213142Y-223361929D01*
X143270285Y-223476214D01*
X143384571Y-223533357D01*
X143498857Y-223533357D01*
X144070285Y-223533357D02*
X143955999Y-223476214D01*
X143898856Y-223419071D01*
X143841713Y-223304786D01*
X143841713Y-222961929D01*
X143898856Y-222847643D01*
X143955999Y-222790500D01*
X144070285Y-222733357D01*
X144241713Y-222733357D01*
X144355999Y-222790500D01*
X144413142Y-222847643D01*
X144470285Y-222961929D01*
X144470285Y-223304786D01*
X144413142Y-223419071D01*
X144355999Y-223476214D01*
X144241713Y-223533357D01*
X144070285Y-223533357D01*
X145898856Y-223533357D02*
X145898856Y-222333357D01*
X146184571Y-222333357D01*
X146355999Y-222390500D01*
X146470285Y-222504786D01*
X146527428Y-222619071D01*
X146584571Y-222847643D01*
X146584571Y-223019071D01*
X146527428Y-223247643D01*
X146470285Y-223361929D01*
X146355999Y-223476214D01*
X146184571Y-223533357D01*
X145898856Y-223533357D01*
X147555999Y-223476214D02*
X147441713Y-223533357D01*
X147213142Y-223533357D01*
X147098856Y-223476214D01*
X147041713Y-223361929D01*
X147041713Y-222904786D01*
X147098856Y-222790500D01*
X147213142Y-222733357D01*
X147441713Y-222733357D01*
X147555999Y-222790500D01*
X147613142Y-222904786D01*
X147613142Y-223019071D01*
X147041713Y-223133357D01*
X148070284Y-223476214D02*
X148184570Y-223533357D01*
X148413142Y-223533357D01*
X148527427Y-223476214D01*
X148584570Y-223361929D01*
X148584570Y-223304786D01*
X148527427Y-223190500D01*
X148413142Y-223133357D01*
X148241713Y-223133357D01*
X148127427Y-223076214D01*
X148070284Y-222961929D01*
X148070284Y-222904786D01*
X148127427Y-222790500D01*
X148241713Y-222733357D01*
X148413142Y-222733357D01*
X148527427Y-222790500D01*
X149098856Y-223533357D02*
X149098856Y-222733357D01*
X149098856Y-222333357D02*
X149041713Y-222390500D01*
X149098856Y-222447643D01*
X149155999Y-222390500D01*
X149098856Y-222333357D01*
X149098856Y-222447643D01*
X150184571Y-222733357D02*
X150184571Y-223704786D01*
X150127428Y-223819071D01*
X150070285Y-223876214D01*
X149956000Y-223933357D01*
X149784571Y-223933357D01*
X149670285Y-223876214D01*
X150184571Y-223476214D02*
X150070285Y-223533357D01*
X149841714Y-223533357D01*
X149727428Y-223476214D01*
X149670285Y-223419071D01*
X149613142Y-223304786D01*
X149613142Y-222961929D01*
X149670285Y-222847643D01*
X149727428Y-222790500D01*
X149841714Y-222733357D01*
X150070285Y-222733357D01*
X150184571Y-222790500D01*
X150755999Y-222733357D02*
X150755999Y-223533357D01*
X150755999Y-222847643D02*
X150813142Y-222790500D01*
X150927428Y-222733357D01*
X151098856Y-222733357D01*
X151213142Y-222790500D01*
X151270285Y-222904786D01*
X151270285Y-223533357D01*
X152755999Y-223533357D02*
X152755999Y-222333357D01*
X153213142Y-222333357D01*
X153327428Y-222390500D01*
X153384571Y-222447643D01*
X153441714Y-222561929D01*
X153441714Y-222733357D01*
X153384571Y-222847643D01*
X153327428Y-222904786D01*
X153213142Y-222961929D01*
X152755999Y-222961929D01*
X154641714Y-223419071D02*
X154584571Y-223476214D01*
X154413142Y-223533357D01*
X154298856Y-223533357D01*
X154127428Y-223476214D01*
X154013142Y-223361929D01*
X153955999Y-223247643D01*
X153898856Y-223019071D01*
X153898856Y-222847643D01*
X153955999Y-222619071D01*
X154013142Y-222504786D01*
X154127428Y-222390500D01*
X154298856Y-222333357D01*
X154413142Y-222333357D01*
X154584571Y-222390500D01*
X154641714Y-222447643D01*
X155555999Y-222904786D02*
X155727428Y-222961929D01*
X155784571Y-223019071D01*
X155841714Y-223133357D01*
X155841714Y-223304786D01*
X155784571Y-223419071D01*
X155727428Y-223476214D01*
X155613142Y-223533357D01*
X155155999Y-223533357D01*
X155155999Y-222333357D01*
X155555999Y-222333357D01*
X155670285Y-222390500D01*
X155727428Y-222447643D01*
X155784571Y-222561929D01*
X155784571Y-222676214D01*
X155727428Y-222790500D01*
X155670285Y-222847643D01*
X155555999Y-222904786D01*
X155155999Y-222904786D01*
X156298856Y-223476214D02*
X156413142Y-223533357D01*
X156641714Y-223533357D01*
X156755999Y-223476214D01*
X156813142Y-223361929D01*
X156813142Y-223304786D01*
X156755999Y-223190500D01*
X156641714Y-223133357D01*
X156470285Y-223133357D01*
X156355999Y-223076214D01*
X156298856Y-222961929D01*
X156298856Y-222904786D01*
X156355999Y-222790500D01*
X156470285Y-222733357D01*
X156641714Y-222733357D01*
X156755999Y-222790500D01*
X158241714Y-223533357D02*
X158241714Y-222733357D01*
X158241714Y-222333357D02*
X158184571Y-222390500D01*
X158241714Y-222447643D01*
X158298857Y-222390500D01*
X158241714Y-222333357D01*
X158241714Y-222447643D01*
X158813143Y-222733357D02*
X158813143Y-223533357D01*
X158813143Y-222847643D02*
X158870286Y-222790500D01*
X158984572Y-222733357D01*
X159156000Y-222733357D01*
X159270286Y-222790500D01*
X159327429Y-222904786D01*
X159327429Y-223533357D01*
X160641715Y-222333357D02*
X161327429Y-222333357D01*
X160984572Y-223533357D02*
X160984572Y-222333357D01*
X161727429Y-223533357D02*
X161727429Y-222333357D01*
X161727429Y-222904786D02*
X162413144Y-222904786D01*
X162413144Y-223533357D02*
X162413144Y-222333357D01*
X163670287Y-223533357D02*
X163270287Y-222961929D01*
X162984572Y-223533357D02*
X162984572Y-222333357D01*
X163441715Y-222333357D01*
X163556001Y-222390500D01*
X163613144Y-222447643D01*
X163670287Y-222561929D01*
X163670287Y-222733357D01*
X163613144Y-222847643D01*
X163556001Y-222904786D01*
X163441715Y-222961929D01*
X162984572Y-222961929D01*
X164184572Y-222904786D02*
X164584572Y-222904786D01*
X164756001Y-223533357D02*
X164184572Y-223533357D01*
X164184572Y-222333357D01*
X164756001Y-222333357D01*
X165270286Y-222904786D02*
X165670286Y-222904786D01*
X165841715Y-223533357D02*
X165270286Y-223533357D01*
X165270286Y-222333357D01*
X165841715Y-222333357D01*
X167213143Y-223476214D02*
X167384572Y-223533357D01*
X167670286Y-223533357D01*
X167784572Y-223476214D01*
X167841715Y-223419071D01*
X167898858Y-223304786D01*
X167898858Y-223190500D01*
X167841715Y-223076214D01*
X167784572Y-223019071D01*
X167670286Y-222961929D01*
X167441715Y-222904786D01*
X167327429Y-222847643D01*
X167270286Y-222790500D01*
X167213143Y-222676214D01*
X167213143Y-222561929D01*
X167270286Y-222447643D01*
X167327429Y-222390500D01*
X167441715Y-222333357D01*
X167727429Y-222333357D01*
X167898858Y-222390500D01*
X168870286Y-223476214D02*
X168756000Y-223533357D01*
X168527429Y-223533357D01*
X168413143Y-223476214D01*
X168356000Y-223361929D01*
X168356000Y-222904786D01*
X168413143Y-222790500D01*
X168527429Y-222733357D01*
X168756000Y-222733357D01*
X168870286Y-222790500D01*
X168927429Y-222904786D01*
X168927429Y-223019071D01*
X168356000Y-223133357D01*
X169384571Y-223476214D02*
X169498857Y-223533357D01*
X169727429Y-223533357D01*
X169841714Y-223476214D01*
X169898857Y-223361929D01*
X169898857Y-223304786D01*
X169841714Y-223190500D01*
X169727429Y-223133357D01*
X169556000Y-223133357D01*
X169441714Y-223076214D01*
X169384571Y-222961929D01*
X169384571Y-222904786D01*
X169441714Y-222790500D01*
X169556000Y-222733357D01*
X169727429Y-222733357D01*
X169841714Y-222790500D01*
X170356000Y-223476214D02*
X170470286Y-223533357D01*
X170698858Y-223533357D01*
X170813143Y-223476214D01*
X170870286Y-223361929D01*
X170870286Y-223304786D01*
X170813143Y-223190500D01*
X170698858Y-223133357D01*
X170527429Y-223133357D01*
X170413143Y-223076214D01*
X170356000Y-222961929D01*
X170356000Y-222904786D01*
X170413143Y-222790500D01*
X170527429Y-222733357D01*
X170698858Y-222733357D01*
X170813143Y-222790500D01*
X171384572Y-223533357D02*
X171384572Y-222733357D01*
X171384572Y-222333357D02*
X171327429Y-222390500D01*
X171384572Y-222447643D01*
X171441715Y-222390500D01*
X171384572Y-222333357D01*
X171384572Y-222447643D01*
X172127430Y-223533357D02*
X172013144Y-223476214D01*
X171956001Y-223419071D01*
X171898858Y-223304786D01*
X171898858Y-222961929D01*
X171956001Y-222847643D01*
X172013144Y-222790500D01*
X172127430Y-222733357D01*
X172298858Y-222733357D01*
X172413144Y-222790500D01*
X172470287Y-222847643D01*
X172527430Y-222961929D01*
X172527430Y-223304786D01*
X172470287Y-223419071D01*
X172413144Y-223476214D01*
X172298858Y-223533357D01*
X172127430Y-223533357D01*
X173041715Y-222733357D02*
X173041715Y-223533357D01*
X173041715Y-222847643D02*
X173098858Y-222790500D01*
X173213144Y-222733357D01*
X173384572Y-222733357D01*
X173498858Y-222790500D01*
X173556001Y-222904786D01*
X173556001Y-223533357D01*
X174070286Y-223476214D02*
X174184572Y-223533357D01*
X174413144Y-223533357D01*
X174527429Y-223476214D01*
X174584572Y-223361929D01*
X174584572Y-223304786D01*
X174527429Y-223190500D01*
X174413144Y-223133357D01*
X174241715Y-223133357D01*
X174127429Y-223076214D01*
X174070286Y-222961929D01*
X174070286Y-222904786D01*
X174127429Y-222790500D01*
X174241715Y-222733357D01*
X174413144Y-222733357D01*
X174527429Y-222790500D01*
X134756000Y-224979786D02*
X135156000Y-224979786D01*
X135327429Y-225608357D02*
X134756000Y-225608357D01*
X134756000Y-224408357D01*
X135327429Y-224408357D01*
X135841714Y-225608357D02*
X135841714Y-224808357D01*
X135841714Y-224922643D02*
X135898857Y-224865500D01*
X136013143Y-224808357D01*
X136184571Y-224808357D01*
X136298857Y-224865500D01*
X136356000Y-224979786D01*
X136356000Y-225608357D01*
X136356000Y-224979786D02*
X136413143Y-224865500D01*
X136527429Y-224808357D01*
X136698857Y-224808357D01*
X136813143Y-224865500D01*
X136870286Y-224979786D01*
X136870286Y-225608357D01*
X137898857Y-225551214D02*
X137784571Y-225608357D01*
X137556000Y-225608357D01*
X137441714Y-225551214D01*
X137384571Y-225436929D01*
X137384571Y-224979786D01*
X137441714Y-224865500D01*
X137556000Y-224808357D01*
X137784571Y-224808357D01*
X137898857Y-224865500D01*
X137956000Y-224979786D01*
X137956000Y-225094071D01*
X137384571Y-225208357D01*
X138470285Y-225608357D02*
X138470285Y-224808357D01*
X138470285Y-225036929D02*
X138527428Y-224922643D01*
X138584571Y-224865500D01*
X138698857Y-224808357D01*
X138813142Y-224808357D01*
X139155999Y-225551214D02*
X139270285Y-225608357D01*
X139498857Y-225608357D01*
X139613142Y-225551214D01*
X139670285Y-225436929D01*
X139670285Y-225379786D01*
X139613142Y-225265500D01*
X139498857Y-225208357D01*
X139327428Y-225208357D01*
X139213142Y-225151214D01*
X139155999Y-225036929D01*
X139155999Y-224979786D01*
X139213142Y-224865500D01*
X139327428Y-224808357D01*
X139498857Y-224808357D01*
X139613142Y-224865500D01*
X140356000Y-225608357D02*
X140241714Y-225551214D01*
X140184571Y-225494071D01*
X140127428Y-225379786D01*
X140127428Y-225036929D01*
X140184571Y-224922643D01*
X140241714Y-224865500D01*
X140356000Y-224808357D01*
X140527428Y-224808357D01*
X140641714Y-224865500D01*
X140698857Y-224922643D01*
X140756000Y-225036929D01*
X140756000Y-225379786D01*
X140698857Y-225494071D01*
X140641714Y-225551214D01*
X140527428Y-225608357D01*
X140356000Y-225608357D01*
X141270285Y-224808357D02*
X141270285Y-225608357D01*
X141270285Y-224922643D02*
X141327428Y-224865500D01*
X141441714Y-224808357D01*
X141613142Y-224808357D01*
X141727428Y-224865500D01*
X141784571Y-224979786D01*
X141784571Y-225608357D01*
X142984571Y-225608357D02*
X142298856Y-225608357D01*
X142641714Y-225608357D02*
X142641714Y-224408357D01*
X142527428Y-224579786D01*
X142413142Y-224694071D01*
X142298856Y-224751214D01*
X143727428Y-224408357D02*
X143841713Y-224408357D01*
X143955999Y-224465500D01*
X144013142Y-224522643D01*
X144070285Y-224636929D01*
X144127428Y-224865500D01*
X144127428Y-225151214D01*
X144070285Y-225379786D01*
X144013142Y-225494071D01*
X143955999Y-225551214D01*
X143841713Y-225608357D01*
X143727428Y-225608357D01*
X143613142Y-225551214D01*
X143555999Y-225494071D01*
X143498856Y-225379786D01*
X143441713Y-225151214D01*
X143441713Y-224865500D01*
X143498856Y-224636929D01*
X143555999Y-224522643D01*
X143613142Y-224465500D01*
X143727428Y-224408357D01*
X145213142Y-224408357D02*
X144641713Y-224408357D01*
X144584570Y-224979786D01*
X144641713Y-224922643D01*
X144755999Y-224865500D01*
X145041713Y-224865500D01*
X145155999Y-224922643D01*
X145213142Y-224979786D01*
X145270285Y-225094071D01*
X145270285Y-225379786D01*
X145213142Y-225494071D01*
X145155999Y-225551214D01*
X145041713Y-225608357D01*
X144755999Y-225608357D01*
X144641713Y-225551214D01*
X144584570Y-225494071D01*
X145841713Y-225551214D02*
X145841713Y-225608357D01*
X145784570Y-225722643D01*
X145727427Y-225779786D01*
X145784570Y-224865500D02*
X145841713Y-224922643D01*
X145784570Y-224979786D01*
X145727427Y-224922643D01*
X145784570Y-224865500D01*
X145784570Y-224979786D01*
X147213142Y-224522643D02*
X147270285Y-224465500D01*
X147384571Y-224408357D01*
X147670285Y-224408357D01*
X147784571Y-224465500D01*
X147841714Y-224522643D01*
X147898857Y-224636929D01*
X147898857Y-224751214D01*
X147841714Y-224922643D01*
X147156000Y-225608357D01*
X147898857Y-225608357D01*
X148413142Y-225151214D02*
X149327428Y-225151214D01*
X150413142Y-224808357D02*
X150413142Y-225608357D01*
X150127428Y-224351214D02*
X149841713Y-225208357D01*
X150584571Y-225208357D01*
X151041713Y-225608357D02*
X151041713Y-224408357D01*
X151498856Y-224408357D01*
X151613142Y-224465500D01*
X151670285Y-224522643D01*
X151727428Y-224636929D01*
X151727428Y-224808357D01*
X151670285Y-224922643D01*
X151613142Y-224979786D01*
X151498856Y-225036929D01*
X151041713Y-225036929D01*
X152241713Y-225608357D02*
X152241713Y-224408357D01*
X152641713Y-225265500D01*
X153041713Y-224408357D01*
X153041713Y-225608357D01*
X153670285Y-225551214D02*
X153670285Y-225608357D01*
X153613142Y-225722643D01*
X153555999Y-225779786D01*
X153613142Y-224865500D02*
X153670285Y-224922643D01*
X153613142Y-224979786D01*
X153555999Y-224922643D01*
X153613142Y-224865500D01*
X153613142Y-224979786D01*
X155041714Y-225551214D02*
X155213143Y-225608357D01*
X155498857Y-225608357D01*
X155613143Y-225551214D01*
X155670286Y-225494071D01*
X155727429Y-225379786D01*
X155727429Y-225265500D01*
X155670286Y-225151214D01*
X155613143Y-225094071D01*
X155498857Y-225036929D01*
X155270286Y-224979786D01*
X155156000Y-224922643D01*
X155098857Y-224865500D01*
X155041714Y-224751214D01*
X155041714Y-224636929D01*
X155098857Y-224522643D01*
X155156000Y-224465500D01*
X155270286Y-224408357D01*
X155556000Y-224408357D01*
X155727429Y-224465500D01*
X156756000Y-225608357D02*
X156756000Y-224979786D01*
X156698857Y-224865500D01*
X156584571Y-224808357D01*
X156356000Y-224808357D01*
X156241714Y-224865500D01*
X156756000Y-225551214D02*
X156641714Y-225608357D01*
X156356000Y-225608357D01*
X156241714Y-225551214D01*
X156184571Y-225436929D01*
X156184571Y-225322643D01*
X156241714Y-225208357D01*
X156356000Y-225151214D01*
X156641714Y-225151214D01*
X156756000Y-225094071D01*
X157156000Y-224808357D02*
X157613143Y-224808357D01*
X157327428Y-224408357D02*
X157327428Y-225436929D01*
X157384571Y-225551214D01*
X157498857Y-225608357D01*
X157613143Y-225608357D01*
X158013142Y-225494071D02*
X158070285Y-225551214D01*
X158013142Y-225608357D01*
X157955999Y-225551214D01*
X158013142Y-225494071D01*
X158013142Y-225608357D01*
X159441714Y-225551214D02*
X159613143Y-225608357D01*
X159898857Y-225608357D01*
X160013143Y-225551214D01*
X160070286Y-225494071D01*
X160127429Y-225379786D01*
X160127429Y-225265500D01*
X160070286Y-225151214D01*
X160013143Y-225094071D01*
X159898857Y-225036929D01*
X159670286Y-224979786D01*
X159556000Y-224922643D01*
X159498857Y-224865500D01*
X159441714Y-224751214D01*
X159441714Y-224636929D01*
X159498857Y-224522643D01*
X159556000Y-224465500D01*
X159670286Y-224408357D01*
X159956000Y-224408357D01*
X160127429Y-224465500D01*
X161098857Y-225551214D02*
X160984571Y-225608357D01*
X160756000Y-225608357D01*
X160641714Y-225551214D01*
X160584571Y-225436929D01*
X160584571Y-224979786D01*
X160641714Y-224865500D01*
X160756000Y-224808357D01*
X160984571Y-224808357D01*
X161098857Y-224865500D01*
X161156000Y-224979786D01*
X161156000Y-225094071D01*
X160584571Y-225208357D01*
X161670285Y-224808357D02*
X161670285Y-226008357D01*
X161670285Y-224865500D02*
X161784571Y-224808357D01*
X162013142Y-224808357D01*
X162127428Y-224865500D01*
X162184571Y-224922643D01*
X162241714Y-225036929D01*
X162241714Y-225379786D01*
X162184571Y-225494071D01*
X162127428Y-225551214D01*
X162013142Y-225608357D01*
X161784571Y-225608357D01*
X161670285Y-225551214D01*
X162584571Y-224808357D02*
X163041714Y-224808357D01*
X162755999Y-224408357D02*
X162755999Y-225436929D01*
X162813142Y-225551214D01*
X162927428Y-225608357D01*
X163041714Y-225608357D01*
X163441713Y-225494071D02*
X163498856Y-225551214D01*
X163441713Y-225608357D01*
X163384570Y-225551214D01*
X163441713Y-225494071D01*
X163441713Y-225608357D01*
X165556000Y-225608357D02*
X164870285Y-225608357D01*
X165213143Y-225608357D02*
X165213143Y-224408357D01*
X165098857Y-224579786D01*
X164984571Y-224694071D01*
X164870285Y-224751214D01*
X166641714Y-224408357D02*
X166070285Y-224408357D01*
X166013142Y-224979786D01*
X166070285Y-224922643D01*
X166184571Y-224865500D01*
X166470285Y-224865500D01*
X166584571Y-224922643D01*
X166641714Y-224979786D01*
X166698857Y-225094071D01*
X166698857Y-225379786D01*
X166641714Y-225494071D01*
X166584571Y-225551214D01*
X166470285Y-225608357D01*
X166184571Y-225608357D01*
X166070285Y-225551214D01*
X166013142Y-225494071D01*
X167270285Y-225551214D02*
X167270285Y-225608357D01*
X167213142Y-225722643D01*
X167155999Y-225779786D01*
X168641714Y-224522643D02*
X168698857Y-224465500D01*
X168813143Y-224408357D01*
X169098857Y-224408357D01*
X169213143Y-224465500D01*
X169270286Y-224522643D01*
X169327429Y-224636929D01*
X169327429Y-224751214D01*
X169270286Y-224922643D01*
X168584572Y-225608357D01*
X169327429Y-225608357D01*
X169784571Y-224522643D02*
X169841714Y-224465500D01*
X169956000Y-224408357D01*
X170241714Y-224408357D01*
X170356000Y-224465500D01*
X170413143Y-224522643D01*
X170470286Y-224636929D01*
X170470286Y-224751214D01*
X170413143Y-224922643D01*
X169727429Y-225608357D01*
X170470286Y-225608357D01*
X171041714Y-225551214D02*
X171041714Y-225608357D01*
X170984571Y-225722643D01*
X170927428Y-225779786D01*
X173441715Y-225608357D02*
X173384572Y-225608357D01*
X173270286Y-225551214D01*
X173098858Y-225379786D01*
X172813143Y-225036929D01*
X172698858Y-224865500D01*
X172641715Y-224694071D01*
X172641715Y-224579786D01*
X172698858Y-224465500D01*
X172813143Y-224408357D01*
X172870286Y-224408357D01*
X172984572Y-224465500D01*
X173041715Y-224579786D01*
X173041715Y-224636929D01*
X172984572Y-224751214D01*
X172927429Y-224808357D01*
X172584572Y-225036929D01*
X172527429Y-225094071D01*
X172470286Y-225208357D01*
X172470286Y-225379786D01*
X172527429Y-225494071D01*
X172584572Y-225551214D01*
X172698858Y-225608357D01*
X172870286Y-225608357D01*
X172984572Y-225551214D01*
X173041715Y-225494071D01*
X173213143Y-225265500D01*
X173270286Y-225094071D01*
X173270286Y-224979786D01*
X174813143Y-224522643D02*
X174870286Y-224465500D01*
X174984572Y-224408357D01*
X175270286Y-224408357D01*
X175384572Y-224465500D01*
X175441715Y-224522643D01*
X175498858Y-224636929D01*
X175498858Y-224751214D01*
X175441715Y-224922643D01*
X174756001Y-225608357D01*
X175498858Y-225608357D01*
X176070286Y-225608357D02*
X176298858Y-225608357D01*
X176413143Y-225551214D01*
X176470286Y-225494071D01*
X176584572Y-225322643D01*
X176641715Y-225094071D01*
X176641715Y-224636929D01*
X176584572Y-224522643D01*
X176527429Y-224465500D01*
X176413143Y-224408357D01*
X176184572Y-224408357D01*
X176070286Y-224465500D01*
X176013143Y-224522643D01*
X175956000Y-224636929D01*
X175956000Y-224922643D01*
X176013143Y-225036929D01*
X176070286Y-225094071D01*
X176184572Y-225151214D01*
X176413143Y-225151214D01*
X176527429Y-225094071D01*
X176584572Y-225036929D01*
X176641715Y-224922643D01*
X177156000Y-225494071D02*
X177213143Y-225551214D01*
X177156000Y-225608357D01*
X177098857Y-225551214D01*
X177156000Y-225494071D01*
X177156000Y-225608357D01*
D13*
X136527427Y-217313000D02*
X137241713Y-217313000D01*
X136384570Y-217741571D02*
X136884570Y-216241571D01*
X137384570Y-217741571D01*
X137670284Y-216741571D02*
X138241713Y-216741571D01*
X137884570Y-216241571D02*
X137884570Y-217527286D01*
X137955998Y-217670143D01*
X138098856Y-217741571D01*
X138241713Y-217741571D01*
X138527427Y-216741571D02*
X139098856Y-216741571D01*
X138741713Y-216241571D02*
X138741713Y-217527286D01*
X138813141Y-217670143D01*
X138955999Y-217741571D01*
X139098856Y-217741571D01*
X140170284Y-217670143D02*
X140027427Y-217741571D01*
X139741713Y-217741571D01*
X139598856Y-217670143D01*
X139527427Y-217527286D01*
X139527427Y-216955857D01*
X139598856Y-216813000D01*
X139741713Y-216741571D01*
X140027427Y-216741571D01*
X140170284Y-216813000D01*
X140241713Y-216955857D01*
X140241713Y-217098714D01*
X139527427Y-217241571D01*
X140884570Y-216741571D02*
X140884570Y-217741571D01*
X140884570Y-216884429D02*
X140955998Y-216813000D01*
X141098856Y-216741571D01*
X141313141Y-216741571D01*
X141455998Y-216813000D01*
X141527427Y-216955857D01*
X141527427Y-217741571D01*
X142884570Y-217741571D02*
X142884570Y-216241571D01*
X142884570Y-217670143D02*
X142741713Y-217741571D01*
X142455999Y-217741571D01*
X142313141Y-217670143D01*
X142241713Y-217598714D01*
X142170284Y-217455857D01*
X142170284Y-217027286D01*
X142241713Y-216884429D01*
X142313141Y-216813000D01*
X142455999Y-216741571D01*
X142741713Y-216741571D01*
X142884570Y-216813000D01*
X145027427Y-216241571D02*
X145313141Y-216241571D01*
X145455999Y-216313000D01*
X145598856Y-216455857D01*
X145670284Y-216741571D01*
X145670284Y-217241571D01*
X145598856Y-217527286D01*
X145455999Y-217670143D01*
X145313141Y-217741571D01*
X145027427Y-217741571D01*
X144884570Y-217670143D01*
X144741713Y-217527286D01*
X144670284Y-217241571D01*
X144670284Y-216741571D01*
X144741713Y-216455857D01*
X144884570Y-216313000D01*
X145027427Y-216241571D01*
X146313142Y-217741571D02*
X146313142Y-216241571D01*
X147170285Y-217741571D01*
X147170285Y-216241571D01*
X147884571Y-216955857D02*
X148384571Y-216955857D01*
X148598857Y-217741571D02*
X147884571Y-217741571D01*
X147884571Y-216241571D01*
X148598857Y-216241571D01*
X150670285Y-216241571D02*
X150955999Y-216241571D01*
X151098857Y-216313000D01*
X151241714Y-216455857D01*
X151313142Y-216741571D01*
X151313142Y-217241571D01*
X151241714Y-217527286D01*
X151098857Y-217670143D01*
X150955999Y-217741571D01*
X150670285Y-217741571D01*
X150527428Y-217670143D01*
X150384571Y-217527286D01*
X150313142Y-217241571D01*
X150313142Y-216741571D01*
X150384571Y-216455857D01*
X150527428Y-216313000D01*
X150670285Y-216241571D01*
X151956000Y-216741571D02*
X151956000Y-217741571D01*
X151956000Y-216884429D02*
X152027428Y-216813000D01*
X152170286Y-216741571D01*
X152384571Y-216741571D01*
X152527428Y-216813000D01*
X152598857Y-216955857D01*
X152598857Y-217741571D01*
X153313143Y-217741571D02*
X153313143Y-216241571D01*
X153313143Y-216813000D02*
X153456000Y-216741571D01*
X153741714Y-216741571D01*
X153884571Y-216813000D01*
X153956000Y-216884429D01*
X154027429Y-217027286D01*
X154027429Y-217455857D01*
X153956000Y-217598714D01*
X153884571Y-217670143D01*
X153741714Y-217741571D01*
X153456000Y-217741571D01*
X153313143Y-217670143D01*
X154884572Y-217741571D02*
X154741714Y-217670143D01*
X154670286Y-217598714D01*
X154598857Y-217455857D01*
X154598857Y-217027286D01*
X154670286Y-216884429D01*
X154741714Y-216813000D01*
X154884572Y-216741571D01*
X155098857Y-216741571D01*
X155241714Y-216813000D01*
X155313143Y-216884429D01*
X155384572Y-217027286D01*
X155384572Y-217455857D01*
X155313143Y-217598714D01*
X155241714Y-217670143D01*
X155098857Y-217741571D01*
X154884572Y-217741571D01*
X156670286Y-217741571D02*
X156670286Y-216955857D01*
X156598857Y-216813000D01*
X156456000Y-216741571D01*
X156170286Y-216741571D01*
X156027429Y-216813000D01*
X156670286Y-217670143D02*
X156527429Y-217741571D01*
X156170286Y-217741571D01*
X156027429Y-217670143D01*
X155956000Y-217527286D01*
X155956000Y-217384429D01*
X156027429Y-217241571D01*
X156170286Y-217170143D01*
X156527429Y-217170143D01*
X156670286Y-217098714D01*
X157384572Y-217741571D02*
X157384572Y-216741571D01*
X157384572Y-217027286D02*
X157456000Y-216884429D01*
X157527429Y-216813000D01*
X157670286Y-216741571D01*
X157813143Y-216741571D01*
X158956000Y-217741571D02*
X158956000Y-216241571D01*
X158956000Y-217670143D02*
X158813143Y-217741571D01*
X158527429Y-217741571D01*
X158384571Y-217670143D01*
X158313143Y-217598714D01*
X158241714Y-217455857D01*
X158241714Y-217027286D01*
X158313143Y-216884429D01*
X158384571Y-216813000D01*
X158527429Y-216741571D01*
X158813143Y-216741571D01*
X158956000Y-216813000D01*
X159670286Y-217741571D02*
X159670286Y-216741571D01*
X159670286Y-216241571D02*
X159598857Y-216313000D01*
X159670286Y-216384429D01*
X159741714Y-216313000D01*
X159670286Y-216241571D01*
X159670286Y-216384429D01*
X160384572Y-216741571D02*
X160384572Y-217741571D01*
X160384572Y-216884429D02*
X160456000Y-216813000D01*
X160598858Y-216741571D01*
X160813143Y-216741571D01*
X160956000Y-216813000D01*
X161027429Y-216955857D01*
X161027429Y-217741571D01*
X162384572Y-216741571D02*
X162384572Y-217955857D01*
X162313143Y-218098714D01*
X162241715Y-218170143D01*
X162098858Y-218241571D01*
X161884572Y-218241571D01*
X161741715Y-218170143D01*
X162384572Y-217670143D02*
X162241715Y-217741571D01*
X161956001Y-217741571D01*
X161813143Y-217670143D01*
X161741715Y-217598714D01*
X161670286Y-217455857D01*
X161670286Y-217027286D01*
X161741715Y-216884429D01*
X161813143Y-216813000D01*
X161956001Y-216741571D01*
X162241715Y-216741571D01*
X162384572Y-216813000D01*
X164241715Y-217741571D02*
X164241715Y-216241571D01*
X164741715Y-217313000D01*
X165241715Y-216241571D01*
X165241715Y-217741571D01*
X166527429Y-217670143D02*
X166384572Y-217741571D01*
X166098858Y-217741571D01*
X165956001Y-217670143D01*
X165884572Y-217527286D01*
X165884572Y-216955857D01*
X165956001Y-216813000D01*
X166098858Y-216741571D01*
X166384572Y-216741571D01*
X166527429Y-216813000D01*
X166598858Y-216955857D01*
X166598858Y-217098714D01*
X165884572Y-217241571D01*
X167813143Y-217670143D02*
X167670286Y-217741571D01*
X167384572Y-217741571D01*
X167241715Y-217670143D01*
X167170286Y-217527286D01*
X167170286Y-216955857D01*
X167241715Y-216813000D01*
X167384572Y-216741571D01*
X167670286Y-216741571D01*
X167813143Y-216813000D01*
X167884572Y-216955857D01*
X167884572Y-217098714D01*
X167170286Y-217241571D01*
X168313143Y-216741571D02*
X168884572Y-216741571D01*
X168527429Y-216241571D02*
X168527429Y-217527286D01*
X168598857Y-217670143D01*
X168741715Y-217741571D01*
X168884572Y-217741571D01*
X169384572Y-217741571D02*
X169384572Y-216741571D01*
X169384572Y-216241571D02*
X169313143Y-216313000D01*
X169384572Y-216384429D01*
X169456000Y-216313000D01*
X169384572Y-216241571D01*
X169384572Y-216384429D01*
X170098858Y-216741571D02*
X170098858Y-217741571D01*
X170098858Y-216884429D02*
X170170286Y-216813000D01*
X170313144Y-216741571D01*
X170527429Y-216741571D01*
X170670286Y-216813000D01*
X170741715Y-216955857D01*
X170741715Y-217741571D01*
X172098858Y-216741571D02*
X172098858Y-217955857D01*
X172027429Y-218098714D01*
X171956001Y-218170143D01*
X171813144Y-218241571D01*
X171598858Y-218241571D01*
X171456001Y-218170143D01*
X172098858Y-217670143D02*
X171956001Y-217741571D01*
X171670287Y-217741571D01*
X171527429Y-217670143D01*
X171456001Y-217598714D01*
X171384572Y-217455857D01*
X171384572Y-217027286D01*
X171456001Y-216884429D01*
X171527429Y-216813000D01*
X171670287Y-216741571D01*
X171956001Y-216741571D01*
X172098858Y-216813000D01*
X173956001Y-217741571D02*
X173956001Y-216741571D01*
X173956001Y-216241571D02*
X173884572Y-216313000D01*
X173956001Y-216384429D01*
X174027429Y-216313000D01*
X173956001Y-216241571D01*
X173956001Y-216384429D01*
X174670287Y-216741571D02*
X174670287Y-217741571D01*
X174670287Y-216884429D02*
X174741715Y-216813000D01*
X174884573Y-216741571D01*
X175098858Y-216741571D01*
X175241715Y-216813000D01*
X175313144Y-216955857D01*
X175313144Y-217741571D01*
X136241716Y-219455857D02*
X136741716Y-219455857D01*
X136956002Y-220241571D02*
X136241716Y-220241571D01*
X136241716Y-218741571D01*
X136956002Y-218741571D01*
X137598859Y-220241571D02*
X137598859Y-218741571D01*
X138098859Y-219813000D01*
X138598859Y-218741571D01*
X138598859Y-220241571D01*
X139241716Y-219813000D02*
X139956002Y-219813000D01*
X139098859Y-220241571D02*
X139598859Y-218741571D01*
X140098859Y-220241571D01*
X140598859Y-220241571D02*
X140598859Y-218741571D01*
X141456002Y-220241571D01*
X141456002Y-218741571D01*
X142956002Y-220241571D02*
X142098859Y-220241571D01*
X142527431Y-220241571D02*
X142527431Y-218741571D01*
X142384574Y-218955857D01*
X142241716Y-219098714D01*
X142098859Y-219170143D01*
X143884573Y-218741571D02*
X144027430Y-218741571D01*
X144170287Y-218813000D01*
X144241716Y-218884429D01*
X144313145Y-219027286D01*
X144384573Y-219313000D01*
X144384573Y-219670143D01*
X144313145Y-219955857D01*
X144241716Y-220098714D01*
X144170287Y-220170143D01*
X144027430Y-220241571D01*
X143884573Y-220241571D01*
X143741716Y-220170143D01*
X143670287Y-220098714D01*
X143598859Y-219955857D01*
X143527430Y-219670143D01*
X143527430Y-219313000D01*
X143598859Y-219027286D01*
X143670287Y-218884429D01*
X143741716Y-218813000D01*
X143884573Y-218741571D01*
X144884573Y-218741571D02*
X145813144Y-218741571D01*
X145313144Y-219313000D01*
X145527430Y-219313000D01*
X145670287Y-219384429D01*
X145741716Y-219455857D01*
X145813144Y-219598714D01*
X145813144Y-219955857D01*
X145741716Y-220098714D01*
X145670287Y-220170143D01*
X145527430Y-220241571D01*
X145098858Y-220241571D01*
X144956001Y-220170143D01*
X144884573Y-220098714D01*
X146527429Y-220170143D02*
X146527429Y-220241571D01*
X146456001Y-220384429D01*
X146384572Y-220455857D01*
X146456001Y-219313000D02*
X146527429Y-219384429D01*
X146456001Y-219455857D01*
X146384572Y-219384429D01*
X146456001Y-219313000D01*
X146456001Y-219455857D01*
X148527430Y-219384429D02*
X148384572Y-219313000D01*
X148313144Y-219241571D01*
X148241715Y-219098714D01*
X148241715Y-219027286D01*
X148313144Y-218884429D01*
X148384572Y-218813000D01*
X148527430Y-218741571D01*
X148813144Y-218741571D01*
X148956001Y-218813000D01*
X149027430Y-218884429D01*
X149098858Y-219027286D01*
X149098858Y-219098714D01*
X149027430Y-219241571D01*
X148956001Y-219313000D01*
X148813144Y-219384429D01*
X148527430Y-219384429D01*
X148384572Y-219455857D01*
X148313144Y-219527286D01*
X148241715Y-219670143D01*
X148241715Y-219955857D01*
X148313144Y-220098714D01*
X148384572Y-220170143D01*
X148527430Y-220241571D01*
X148813144Y-220241571D01*
X148956001Y-220170143D01*
X149027430Y-220098714D01*
X149098858Y-219955857D01*
X149098858Y-219670143D01*
X149027430Y-219527286D01*
X148956001Y-219455857D01*
X148813144Y-219384429D01*
X149741715Y-220241571D02*
X149741715Y-218741571D01*
X150313143Y-218741571D01*
X150456001Y-218813000D01*
X150527429Y-218884429D01*
X150598858Y-219027286D01*
X150598858Y-219241571D01*
X150527429Y-219384429D01*
X150456001Y-219455857D01*
X150313143Y-219527286D01*
X149741715Y-219527286D01*
X151241715Y-220241571D02*
X151241715Y-218741571D01*
X151741715Y-219813000D01*
X152241715Y-218741571D01*
X152241715Y-220241571D01*
X153027429Y-220170143D02*
X153027429Y-220241571D01*
X152956001Y-220384429D01*
X152884572Y-220455857D01*
X152956001Y-219313000D02*
X153027429Y-219384429D01*
X152956001Y-219455857D01*
X152884572Y-219384429D01*
X152956001Y-219313000D01*
X152956001Y-219455857D01*
X154741715Y-219813000D02*
X155456001Y-219813000D01*
X154598858Y-220241571D02*
X155098858Y-218741571D01*
X155598858Y-220241571D01*
X156741715Y-219241571D02*
X156741715Y-220241571D01*
X156098858Y-219241571D02*
X156098858Y-220027286D01*
X156170286Y-220170143D01*
X156313144Y-220241571D01*
X156527429Y-220241571D01*
X156670286Y-220170143D01*
X156741715Y-220098714D01*
X158098858Y-219241571D02*
X158098858Y-220455857D01*
X158027429Y-220598714D01*
X157956001Y-220670143D01*
X157813144Y-220741571D01*
X157598858Y-220741571D01*
X157456001Y-220670143D01*
X158098858Y-220170143D02*
X157956001Y-220241571D01*
X157670287Y-220241571D01*
X157527429Y-220170143D01*
X157456001Y-220098714D01*
X157384572Y-219955857D01*
X157384572Y-219527286D01*
X157456001Y-219384429D01*
X157527429Y-219313000D01*
X157670287Y-219241571D01*
X157956001Y-219241571D01*
X158098858Y-219313000D01*
X159884572Y-218884429D02*
X159956001Y-218813000D01*
X160098858Y-218741571D01*
X160456001Y-218741571D01*
X160598858Y-218813000D01*
X160670287Y-218884429D01*
X160741715Y-219027286D01*
X160741715Y-219170143D01*
X160670287Y-219384429D01*
X159813144Y-220241571D01*
X160741715Y-220241571D01*
X161598858Y-219384429D02*
X161456000Y-219313000D01*
X161384572Y-219241571D01*
X161313143Y-219098714D01*
X161313143Y-219027286D01*
X161384572Y-218884429D01*
X161456000Y-218813000D01*
X161598858Y-218741571D01*
X161884572Y-218741571D01*
X162027429Y-218813000D01*
X162098858Y-218884429D01*
X162170286Y-219027286D01*
X162170286Y-219098714D01*
X162098858Y-219241571D01*
X162027429Y-219313000D01*
X161884572Y-219384429D01*
X161598858Y-219384429D01*
X161456000Y-219455857D01*
X161384572Y-219527286D01*
X161313143Y-219670143D01*
X161313143Y-219955857D01*
X161384572Y-220098714D01*
X161456000Y-220170143D01*
X161598858Y-220241571D01*
X161884572Y-220241571D01*
X162027429Y-220170143D01*
X162098858Y-220098714D01*
X162170286Y-219955857D01*
X162170286Y-219670143D01*
X162098858Y-219527286D01*
X162027429Y-219455857D01*
X161884572Y-219384429D01*
X162884571Y-220170143D02*
X162884571Y-220241571D01*
X162813143Y-220384429D01*
X162741714Y-220455857D01*
X164598857Y-218884429D02*
X164670286Y-218813000D01*
X164813143Y-218741571D01*
X165170286Y-218741571D01*
X165313143Y-218813000D01*
X165384572Y-218884429D01*
X165456000Y-219027286D01*
X165456000Y-219170143D01*
X165384572Y-219384429D01*
X164527429Y-220241571D01*
X165456000Y-220241571D01*
X166170285Y-220241571D02*
X166456000Y-220241571D01*
X166598857Y-220170143D01*
X166670285Y-220098714D01*
X166813143Y-219884429D01*
X166884571Y-219598714D01*
X166884571Y-219027286D01*
X166813143Y-218884429D01*
X166741714Y-218813000D01*
X166598857Y-218741571D01*
X166313143Y-218741571D01*
X166170285Y-218813000D01*
X166098857Y-218884429D01*
X166027428Y-219027286D01*
X166027428Y-219384429D01*
X166098857Y-219527286D01*
X166170285Y-219598714D01*
X166313143Y-219670143D01*
X166598857Y-219670143D01*
X166741714Y-219598714D01*
X166813143Y-219527286D01*
X166884571Y-219384429D01*
X167598856Y-220170143D02*
X167598856Y-220241571D01*
X167527428Y-220384429D01*
X167455999Y-220455857D01*
X169598857Y-220241571D02*
X169455999Y-220170143D01*
X169384571Y-220098714D01*
X169313142Y-219955857D01*
X169313142Y-219527286D01*
X169384571Y-219384429D01*
X169455999Y-219313000D01*
X169598857Y-219241571D01*
X169813142Y-219241571D01*
X169955999Y-219313000D01*
X170027428Y-219384429D01*
X170098857Y-219527286D01*
X170098857Y-219955857D01*
X170027428Y-220098714D01*
X169955999Y-220170143D01*
X169813142Y-220241571D01*
X169598857Y-220241571D01*
X170741714Y-220241571D02*
X170741714Y-219241571D01*
X170741714Y-219527286D02*
X170813142Y-219384429D01*
X170884571Y-219313000D01*
X171027428Y-219241571D01*
X171170285Y-219241571D01*
X172670285Y-218741571D02*
X173598856Y-218741571D01*
X173098856Y-219313000D01*
X173313142Y-219313000D01*
X173455999Y-219384429D01*
X173527428Y-219455857D01*
X173598856Y-219598714D01*
X173598856Y-219955857D01*
X173527428Y-220098714D01*
X173455999Y-220170143D01*
X173313142Y-220241571D01*
X172884570Y-220241571D01*
X172741713Y-220170143D01*
X172670285Y-220098714D01*
X174527427Y-218741571D02*
X174670284Y-218741571D01*
X174813141Y-218813000D01*
X174884570Y-218884429D01*
X174955999Y-219027286D01*
X175027427Y-219313000D01*
X175027427Y-219670143D01*
X174955999Y-219955857D01*
X174884570Y-220098714D01*
X174813141Y-220170143D01*
X174670284Y-220241571D01*
X174527427Y-220241571D01*
X174384570Y-220170143D01*
X174313141Y-220098714D01*
X174241713Y-219955857D01*
X174170284Y-219670143D01*
X174170284Y-219313000D01*
X174241713Y-219027286D01*
X174313141Y-218884429D01*
X174384570Y-218813000D01*
X174527427Y-218741571D01*
X175670284Y-220098714D02*
X175741712Y-220170143D01*
X175670284Y-220241571D01*
X175598855Y-220170143D01*
X175670284Y-220098714D01*
X175670284Y-220241571D01*
D11*
X122272523Y-211171857D02*
X122272523Y-213529000D01*
X122082047Y-214000429D01*
X121701095Y-214314714D01*
X121129666Y-214471857D01*
X120748714Y-214471857D01*
X124748714Y-214471857D02*
X124367761Y-214314714D01*
X124177285Y-214157571D01*
X123986809Y-213843286D01*
X123986809Y-212900429D01*
X124177285Y-212586143D01*
X124367761Y-212429000D01*
X124748714Y-212271857D01*
X125320142Y-212271857D01*
X125701094Y-212429000D01*
X125891571Y-212586143D01*
X126082047Y-212900429D01*
X126082047Y-213843286D01*
X125891571Y-214157571D01*
X125701094Y-214314714D01*
X125320142Y-214471857D01*
X124748714Y-214471857D01*
X127796333Y-214471857D02*
X127796333Y-212271857D01*
X127796333Y-211171857D02*
X127605857Y-211329000D01*
X127796333Y-211486143D01*
X127986809Y-211329000D01*
X127796333Y-211171857D01*
X127796333Y-211486143D01*
X129701095Y-212271857D02*
X129701095Y-214471857D01*
X129701095Y-212586143D02*
X129891571Y-212429000D01*
X130272524Y-212271857D01*
X130843952Y-212271857D01*
X131224904Y-212429000D01*
X131415381Y-212743286D01*
X131415381Y-214471857D01*
X136367762Y-214471857D02*
X136367762Y-211171857D01*
X137701095Y-213529000D01*
X139034429Y-211171857D01*
X139034429Y-214471857D01*
X143224905Y-214471857D02*
X141891572Y-212900429D01*
X140939191Y-214471857D02*
X140939191Y-211171857D01*
X142463000Y-211171857D01*
X142843953Y-211329000D01*
X143034429Y-211486143D01*
X143224905Y-211800429D01*
X143224905Y-212271857D01*
X143034429Y-212586143D01*
X142843953Y-212743286D01*
X142463000Y-212900429D01*
X140939191Y-212900429D01*
X144939191Y-214471857D02*
X144939191Y-211171857D01*
X145891572Y-211171857D01*
X146463000Y-211329000D01*
X146843953Y-211643286D01*
X147034429Y-211957571D01*
X147224905Y-212586143D01*
X147224905Y-213057571D01*
X147034429Y-213686143D01*
X146843953Y-214000429D01*
X146463000Y-214314714D01*
X145891572Y-214471857D01*
X144939191Y-214471857D01*
X148367762Y-211171857D02*
X150653477Y-211171857D01*
X149510620Y-214471857D02*
X149510620Y-211171857D01*
X154463000Y-211171857D02*
X156748715Y-211171857D01*
X155605858Y-214471857D02*
X155605858Y-211171857D01*
X158653477Y-214471857D02*
X158272524Y-214314714D01*
X158082048Y-214157571D01*
X157891572Y-213843286D01*
X157891572Y-212900429D01*
X158082048Y-212586143D01*
X158272524Y-212429000D01*
X158653477Y-212271857D01*
X159224905Y-212271857D01*
X159605857Y-212429000D01*
X159796334Y-212586143D01*
X159986810Y-212900429D01*
X159986810Y-213843286D01*
X159796334Y-214157571D01*
X159605857Y-214314714D01*
X159224905Y-214471857D01*
X158653477Y-214471857D01*
X163415382Y-214471857D02*
X163415382Y-211171857D01*
X163415382Y-214314714D02*
X163034429Y-214471857D01*
X162272525Y-214471857D01*
X161891572Y-214314714D01*
X161701096Y-214157571D01*
X161510620Y-213843286D01*
X161510620Y-212900429D01*
X161701096Y-212586143D01*
X161891572Y-212429000D01*
X162272525Y-212271857D01*
X163034429Y-212271857D01*
X163415382Y-212429000D01*
X167034430Y-214471857D02*
X167034430Y-212743286D01*
X166843953Y-212429000D01*
X166463001Y-212271857D01*
X165701096Y-212271857D01*
X165320144Y-212429000D01*
X167034430Y-214314714D02*
X166653477Y-214471857D01*
X165701096Y-214471857D01*
X165320144Y-214314714D01*
X165129668Y-214000429D01*
X165129668Y-213686143D01*
X165320144Y-213371857D01*
X165701096Y-213214714D01*
X166653477Y-213214714D01*
X167034430Y-213057571D01*
X168558240Y-212271857D02*
X169510621Y-214471857D01*
X170463001Y-212271857D02*
X169510621Y-214471857D01*
X169129668Y-215257571D01*
X168939192Y-215414714D01*
X168558240Y-215571857D01*
X171986811Y-214157571D02*
X172177287Y-214314714D01*
X171986811Y-214471857D01*
X171796335Y-214314714D01*
X171986811Y-214157571D01*
X171986811Y-214471857D01*
X171986811Y-213214714D02*
X171796335Y-211329000D01*
X171986811Y-211171857D01*
X172177287Y-211329000D01*
X171986811Y-213214714D01*
X171986811Y-211171857D01*
X173891573Y-214157571D02*
X174082049Y-214314714D01*
X173891573Y-214471857D01*
X173701097Y-214314714D01*
X173891573Y-214157571D01*
X173891573Y-214471857D01*
X173891573Y-213214714D02*
X173701097Y-211329000D01*
X173891573Y-211171857D01*
X174082049Y-211329000D01*
X173891573Y-213214714D01*
X173891573Y-211171857D01*
X175796335Y-214157571D02*
X175986811Y-214314714D01*
X175796335Y-214471857D01*
X175605859Y-214314714D01*
X175796335Y-214157571D01*
X175796335Y-214471857D01*
X175796335Y-213214714D02*
X175605859Y-211329000D01*
X175796335Y-211171857D01*
X175986811Y-211329000D01*
X175796335Y-213214714D01*
X175796335Y-211171857D01*
D14*
X144272000Y-172974000D02*
X144907000Y-172339000D01*
X143637000Y-172339000D02*
X144272000Y-172974000D01*
X144272000Y-172974000D02*
X143637000Y-172339000D01*
X144272000Y-167894000D02*
X144272000Y-172974000D01*
X144907000Y-168529000D02*
X144272000Y-167894000D01*
X144272000Y-167894000D02*
X144907000Y-168529000D01*
X143637000Y-168529000D02*
X144272000Y-167894000D01*
X144272000Y-167894000D02*
X143637000Y-168529000D01*
X144272000Y-170815000D02*
X144272000Y-167894000D01*
D15*
X135064501Y-169742757D02*
X135206015Y-169789929D01*
X135441872Y-169789929D01*
X135536215Y-169742757D01*
X135583386Y-169695586D01*
X135630558Y-169601243D01*
X135630558Y-169506900D01*
X135583386Y-169412557D01*
X135536215Y-169365386D01*
X135441872Y-169318214D01*
X135253186Y-169271043D01*
X135158844Y-169223871D01*
X135111672Y-169176700D01*
X135064501Y-169082357D01*
X135064501Y-168988014D01*
X135111672Y-168893671D01*
X135158844Y-168846500D01*
X135253186Y-168799329D01*
X135489044Y-168799329D01*
X135630558Y-168846500D01*
X135960758Y-168799329D02*
X136196615Y-169789929D01*
X136385301Y-169082357D01*
X136573987Y-169789929D01*
X136809844Y-168799329D01*
X137187215Y-169789929D02*
X137187215Y-168799329D01*
X137517415Y-168799329D02*
X138083472Y-168799329D01*
X137800443Y-169789929D02*
X137800443Y-168799329D01*
X138979729Y-169695586D02*
X138932558Y-169742757D01*
X138791044Y-169789929D01*
X138696701Y-169789929D01*
X138555186Y-169742757D01*
X138460844Y-169648414D01*
X138413672Y-169554071D01*
X138366501Y-169365386D01*
X138366501Y-169223871D01*
X138413672Y-169035186D01*
X138460844Y-168940843D01*
X138555186Y-168846500D01*
X138696701Y-168799329D01*
X138791044Y-168799329D01*
X138932558Y-168846500D01*
X138979729Y-168893671D01*
X139404272Y-169789929D02*
X139404272Y-168799329D01*
X139404272Y-169271043D02*
X139970329Y-169271043D01*
X139970329Y-169789929D02*
X139970329Y-168799329D01*
X135866414Y-170475729D02*
X136479643Y-170475729D01*
X136149443Y-170853100D01*
X136290957Y-170853100D01*
X136385300Y-170900271D01*
X136432471Y-170947443D01*
X136479643Y-171041786D01*
X136479643Y-171277643D01*
X136432471Y-171371986D01*
X136385300Y-171419157D01*
X136290957Y-171466329D01*
X136007929Y-171466329D01*
X135913586Y-171419157D01*
X135866414Y-171371986D01*
X136904186Y-171466329D02*
X136904186Y-170475729D01*
X137281558Y-170475729D01*
X137375900Y-170522900D01*
X137423072Y-170570071D01*
X137470243Y-170664414D01*
X137470243Y-170805929D01*
X137423072Y-170900271D01*
X137375900Y-170947443D01*
X137281558Y-170994614D01*
X136904186Y-170994614D01*
X138413672Y-171466329D02*
X137847615Y-171466329D01*
X138130643Y-171466329D02*
X138130643Y-170475729D01*
X138036300Y-170617243D01*
X137941958Y-170711586D01*
X137847615Y-170758757D01*
X138696701Y-170475729D02*
X139262758Y-170475729D01*
X138979729Y-171466329D02*
X138979729Y-170475729D01*
D11*
X127591715Y-179113571D02*
X127591715Y-177613571D01*
X128163143Y-177613571D01*
X128306001Y-177685000D01*
X128377429Y-177756429D01*
X128448858Y-177899286D01*
X128448858Y-178113571D01*
X128377429Y-178256429D01*
X128306001Y-178327857D01*
X128163143Y-178399286D01*
X127591715Y-178399286D01*
X129306001Y-179113571D02*
X129163143Y-179042143D01*
X129091715Y-178970714D01*
X129020286Y-178827857D01*
X129020286Y-178399286D01*
X129091715Y-178256429D01*
X129163143Y-178185000D01*
X129306001Y-178113571D01*
X129520286Y-178113571D01*
X129663143Y-178185000D01*
X129734572Y-178256429D01*
X129806001Y-178399286D01*
X129806001Y-178827857D01*
X129734572Y-178970714D01*
X129663143Y-179042143D01*
X129520286Y-179113571D01*
X129306001Y-179113571D01*
X130306001Y-178113571D02*
X130591715Y-179113571D01*
X130877429Y-178399286D01*
X131163144Y-179113571D01*
X131448858Y-178113571D01*
X132591715Y-179042143D02*
X132448858Y-179113571D01*
X132163144Y-179113571D01*
X132020287Y-179042143D01*
X131948858Y-178899286D01*
X131948858Y-178327857D01*
X132020287Y-178185000D01*
X132163144Y-178113571D01*
X132448858Y-178113571D01*
X132591715Y-178185000D01*
X132663144Y-178327857D01*
X132663144Y-178470714D01*
X131948858Y-178613571D01*
X133306001Y-179113571D02*
X133306001Y-178113571D01*
X133306001Y-178399286D02*
X133377429Y-178256429D01*
X133448858Y-178185000D01*
X133591715Y-178113571D01*
X133734572Y-178113571D01*
X126535571Y-198488856D02*
X126535571Y-199203142D01*
X125035571Y-199203142D01*
X126464143Y-198060285D02*
X126535571Y-197845999D01*
X126535571Y-197488856D01*
X126464143Y-197345999D01*
X126392714Y-197274570D01*
X126249857Y-197203142D01*
X126107000Y-197203142D01*
X125964143Y-197274570D01*
X125892714Y-197345999D01*
X125821286Y-197488856D01*
X125749857Y-197774570D01*
X125678429Y-197917428D01*
X125607000Y-197988856D01*
X125464143Y-198060285D01*
X125321286Y-198060285D01*
X125178429Y-197988856D01*
X125107000Y-197917428D01*
X125035571Y-197774570D01*
X125035571Y-197417428D01*
X125107000Y-197203142D01*
X125964143Y-196560285D02*
X125964143Y-195417428D01*
X125535571Y-194060285D02*
X126535571Y-194060285D01*
X124964143Y-194417428D02*
X126035571Y-194774571D01*
X126035571Y-193845999D01*
X126535571Y-190741856D02*
X126535571Y-191456142D01*
X125035571Y-191456142D01*
X126464143Y-190313285D02*
X126535571Y-190098999D01*
X126535571Y-189741856D01*
X126464143Y-189598999D01*
X126392714Y-189527570D01*
X126249857Y-189456142D01*
X126107000Y-189456142D01*
X125964143Y-189527570D01*
X125892714Y-189598999D01*
X125821286Y-189741856D01*
X125749857Y-190027570D01*
X125678429Y-190170428D01*
X125607000Y-190241856D01*
X125464143Y-190313285D01*
X125321286Y-190313285D01*
X125178429Y-190241856D01*
X125107000Y-190170428D01*
X125035571Y-190027570D01*
X125035571Y-189670428D01*
X125107000Y-189456142D01*
X125964143Y-188813285D02*
X125964143Y-187670428D01*
X125035571Y-187098999D02*
X125035571Y-186170428D01*
X125607000Y-186670428D01*
X125607000Y-186456142D01*
X125678429Y-186313285D01*
X125749857Y-186241856D01*
X125892714Y-186170428D01*
X126249857Y-186170428D01*
X126392714Y-186241856D01*
X126464143Y-186313285D01*
X126535571Y-186456142D01*
X126535571Y-186884714D01*
X126464143Y-187027571D01*
X126392714Y-187098999D01*
X126535571Y-182994856D02*
X126535571Y-183709142D01*
X125035571Y-183709142D01*
X126464143Y-182566285D02*
X126535571Y-182351999D01*
X126535571Y-181994856D01*
X126464143Y-181851999D01*
X126392714Y-181780570D01*
X126249857Y-181709142D01*
X126107000Y-181709142D01*
X125964143Y-181780570D01*
X125892714Y-181851999D01*
X125821286Y-181994856D01*
X125749857Y-182280570D01*
X125678429Y-182423428D01*
X125607000Y-182494856D01*
X125464143Y-182566285D01*
X125321286Y-182566285D01*
X125178429Y-182494856D01*
X125107000Y-182423428D01*
X125035571Y-182280570D01*
X125035571Y-181923428D01*
X125107000Y-181709142D01*
X125964143Y-181066285D02*
X125964143Y-179923428D01*
X125178429Y-179280571D02*
X125107000Y-179209142D01*
X125035571Y-179066285D01*
X125035571Y-178709142D01*
X125107000Y-178566285D01*
X125178429Y-178494856D01*
X125321286Y-178423428D01*
X125464143Y-178423428D01*
X125678429Y-178494856D01*
X126535571Y-179351999D01*
X126535571Y-178423428D01*
X126535571Y-175247856D02*
X126535571Y-175962142D01*
X125035571Y-175962142D01*
X126464143Y-174819285D02*
X126535571Y-174604999D01*
X126535571Y-174247856D01*
X126464143Y-174104999D01*
X126392714Y-174033570D01*
X126249857Y-173962142D01*
X126107000Y-173962142D01*
X125964143Y-174033570D01*
X125892714Y-174104999D01*
X125821286Y-174247856D01*
X125749857Y-174533570D01*
X125678429Y-174676428D01*
X125607000Y-174747856D01*
X125464143Y-174819285D01*
X125321286Y-174819285D01*
X125178429Y-174747856D01*
X125107000Y-174676428D01*
X125035571Y-174533570D01*
X125035571Y-174176428D01*
X125107000Y-173962142D01*
X125964143Y-173319285D02*
X125964143Y-172176428D01*
X126535571Y-170676428D02*
X126535571Y-171533571D01*
X126535571Y-171104999D02*
X125035571Y-171104999D01*
X125249857Y-171247856D01*
X125392714Y-171390714D01*
X125464143Y-171533571D01*
X166644429Y-146982571D02*
X166644429Y-145482571D01*
X167144429Y-146554000D01*
X167644429Y-145482571D01*
X167644429Y-146982571D01*
X168644429Y-145482571D02*
X168930143Y-145482571D01*
X169073001Y-145554000D01*
X169215858Y-145696857D01*
X169287286Y-145982571D01*
X169287286Y-146482571D01*
X169215858Y-146768286D01*
X169073001Y-146911143D01*
X168930143Y-146982571D01*
X168644429Y-146982571D01*
X168501572Y-146911143D01*
X168358715Y-146768286D01*
X168287286Y-146482571D01*
X168287286Y-145982571D01*
X168358715Y-145696857D01*
X168501572Y-145554000D01*
X168644429Y-145482571D01*
X169715858Y-145482571D02*
X170573001Y-145482571D01*
X170144430Y-146982571D02*
X170144430Y-145482571D01*
X171358715Y-145482571D02*
X171644429Y-145482571D01*
X171787287Y-145554000D01*
X171930144Y-145696857D01*
X172001572Y-145982571D01*
X172001572Y-146482571D01*
X171930144Y-146768286D01*
X171787287Y-146911143D01*
X171644429Y-146982571D01*
X171358715Y-146982571D01*
X171215858Y-146911143D01*
X171073001Y-146768286D01*
X171001572Y-146482571D01*
X171001572Y-145982571D01*
X171073001Y-145696857D01*
X171215858Y-145554000D01*
X171358715Y-145482571D01*
X173501573Y-146982571D02*
X173001573Y-146268286D01*
X172644430Y-146982571D02*
X172644430Y-145482571D01*
X173215858Y-145482571D01*
X173358716Y-145554000D01*
X173430144Y-145625429D01*
X173501573Y-145768286D01*
X173501573Y-145982571D01*
X173430144Y-146125429D01*
X173358716Y-146196857D01*
X173215858Y-146268286D01*
X172644430Y-146268286D01*
X175215858Y-145625429D02*
X175287287Y-145554000D01*
X175430144Y-145482571D01*
X175787287Y-145482571D01*
X175930144Y-145554000D01*
X176001573Y-145625429D01*
X176073001Y-145768286D01*
X176073001Y-145911143D01*
X176001573Y-146125429D01*
X175144430Y-146982571D01*
X176073001Y-146982571D01*
X121305429Y-146982571D02*
X121305429Y-145482571D01*
X121805429Y-146554000D01*
X122305429Y-145482571D01*
X122305429Y-146982571D01*
X123305429Y-145482571D02*
X123591143Y-145482571D01*
X123734001Y-145554000D01*
X123876858Y-145696857D01*
X123948286Y-145982571D01*
X123948286Y-146482571D01*
X123876858Y-146768286D01*
X123734001Y-146911143D01*
X123591143Y-146982571D01*
X123305429Y-146982571D01*
X123162572Y-146911143D01*
X123019715Y-146768286D01*
X122948286Y-146482571D01*
X122948286Y-145982571D01*
X123019715Y-145696857D01*
X123162572Y-145554000D01*
X123305429Y-145482571D01*
X124376858Y-145482571D02*
X125234001Y-145482571D01*
X124805430Y-146982571D02*
X124805430Y-145482571D01*
X126019715Y-145482571D02*
X126305429Y-145482571D01*
X126448287Y-145554000D01*
X126591144Y-145696857D01*
X126662572Y-145982571D01*
X126662572Y-146482571D01*
X126591144Y-146768286D01*
X126448287Y-146911143D01*
X126305429Y-146982571D01*
X126019715Y-146982571D01*
X125876858Y-146911143D01*
X125734001Y-146768286D01*
X125662572Y-146482571D01*
X125662572Y-145982571D01*
X125734001Y-145696857D01*
X125876858Y-145554000D01*
X126019715Y-145482571D01*
X128162573Y-146982571D02*
X127662573Y-146268286D01*
X127305430Y-146982571D02*
X127305430Y-145482571D01*
X127876858Y-145482571D01*
X128019716Y-145554000D01*
X128091144Y-145625429D01*
X128162573Y-145768286D01*
X128162573Y-145982571D01*
X128091144Y-146125429D01*
X128019716Y-146196857D01*
X127876858Y-146268286D01*
X127305430Y-146268286D01*
X130734001Y-146982571D02*
X129876858Y-146982571D01*
X130305430Y-146982571D02*
X130305430Y-145482571D01*
X130162573Y-145696857D01*
X130019715Y-145839714D01*
X129876858Y-145911143D01*
X142724143Y-174795571D02*
X142724143Y-173295571D01*
X143438429Y-173795571D02*
X143438429Y-174795571D01*
X143438429Y-173938429D02*
X143509857Y-173867000D01*
X143652715Y-173795571D01*
X143867000Y-173795571D01*
X144009857Y-173867000D01*
X144081286Y-174009857D01*
X144081286Y-174795571D01*
X145438429Y-174795571D02*
X145438429Y-173295571D01*
X145438429Y-174724143D02*
X145295572Y-174795571D01*
X145009858Y-174795571D01*
X144867000Y-174724143D01*
X144795572Y-174652714D01*
X144724143Y-174509857D01*
X144724143Y-174081286D01*
X144795572Y-173938429D01*
X144867000Y-173867000D01*
X145009858Y-173795571D01*
X145295572Y-173795571D01*
X145438429Y-173867000D01*
X146152715Y-174652714D02*
X146224143Y-174724143D01*
X146152715Y-174795571D01*
X146081286Y-174724143D01*
X146152715Y-174652714D01*
X146152715Y-174795571D01*
X142903287Y-167302571D02*
X142903287Y-165802571D01*
X143474715Y-165802571D01*
X143617573Y-165874000D01*
X143689001Y-165945429D01*
X143760430Y-166088286D01*
X143760430Y-166302571D01*
X143689001Y-166445429D01*
X143617573Y-166516857D01*
X143474715Y-166588286D01*
X142903287Y-166588286D01*
X145046144Y-167302571D02*
X145046144Y-166516857D01*
X144974715Y-166374000D01*
X144831858Y-166302571D01*
X144546144Y-166302571D01*
X144403287Y-166374000D01*
X145046144Y-167231143D02*
X144903287Y-167302571D01*
X144546144Y-167302571D01*
X144403287Y-167231143D01*
X144331858Y-167088286D01*
X144331858Y-166945429D01*
X144403287Y-166802571D01*
X144546144Y-166731143D01*
X144903287Y-166731143D01*
X145046144Y-166659714D01*
X145760430Y-167302571D02*
X145760430Y-166302571D01*
X145760430Y-166588286D02*
X145831858Y-166445429D01*
X145903287Y-166374000D01*
X146046144Y-166302571D01*
X146189001Y-166302571D01*
X147331858Y-167302571D02*
X147331858Y-166516857D01*
X147260429Y-166374000D01*
X147117572Y-166302571D01*
X146831858Y-166302571D01*
X146689001Y-166374000D01*
X147331858Y-167231143D02*
X147189001Y-167302571D01*
X146831858Y-167302571D01*
X146689001Y-167231143D01*
X146617572Y-167088286D01*
X146617572Y-166945429D01*
X146689001Y-166802571D01*
X146831858Y-166731143D01*
X147189001Y-166731143D01*
X147331858Y-166659714D01*
X148260430Y-167302571D02*
X148117572Y-167231143D01*
X148046144Y-167088286D01*
X148046144Y-165802571D01*
X149046144Y-167302571D02*
X148903286Y-167231143D01*
X148831858Y-167088286D01*
X148831858Y-165802571D01*
X150189000Y-167231143D02*
X150046143Y-167302571D01*
X149760429Y-167302571D01*
X149617572Y-167231143D01*
X149546143Y-167088286D01*
X149546143Y-166516857D01*
X149617572Y-166374000D01*
X149760429Y-166302571D01*
X150046143Y-166302571D01*
X150189000Y-166374000D01*
X150260429Y-166516857D01*
X150260429Y-166659714D01*
X149546143Y-166802571D01*
X151117572Y-167302571D02*
X150974714Y-167231143D01*
X150903286Y-167088286D01*
X150903286Y-165802571D01*
X135922143Y-192297857D02*
X136422143Y-192297857D01*
X136636429Y-193083571D02*
X135922143Y-193083571D01*
X135922143Y-191583571D01*
X136636429Y-191583571D01*
X137279286Y-193083571D02*
X137279286Y-191583571D01*
X138136429Y-193083571D01*
X138136429Y-191583571D01*
X139707858Y-192940714D02*
X139636429Y-193012143D01*
X139422143Y-193083571D01*
X139279286Y-193083571D01*
X139065001Y-193012143D01*
X138922143Y-192869286D01*
X138850715Y-192726429D01*
X138779286Y-192440714D01*
X138779286Y-192226429D01*
X138850715Y-191940714D01*
X138922143Y-191797857D01*
X139065001Y-191655000D01*
X139279286Y-191583571D01*
X139422143Y-191583571D01*
X139636429Y-191655000D01*
X139707858Y-191726429D01*
X142279286Y-193083571D02*
X141422143Y-193083571D01*
X141850715Y-193083571D02*
X141850715Y-191583571D01*
X141707858Y-191797857D01*
X141565000Y-191940714D01*
X141422143Y-192012143D01*
X147352143Y-192297857D02*
X147852143Y-192297857D01*
X148066429Y-193083571D02*
X147352143Y-193083571D01*
X147352143Y-191583571D01*
X148066429Y-191583571D01*
X148709286Y-193083571D02*
X148709286Y-191583571D01*
X149566429Y-193083571D01*
X149566429Y-191583571D01*
X151137858Y-192940714D02*
X151066429Y-193012143D01*
X150852143Y-193083571D01*
X150709286Y-193083571D01*
X150495001Y-193012143D01*
X150352143Y-192869286D01*
X150280715Y-192726429D01*
X150209286Y-192440714D01*
X150209286Y-192226429D01*
X150280715Y-191940714D01*
X150352143Y-191797857D01*
X150495001Y-191655000D01*
X150709286Y-191583571D01*
X150852143Y-191583571D01*
X151066429Y-191655000D01*
X151137858Y-191726429D01*
X152852143Y-191726429D02*
X152923572Y-191655000D01*
X153066429Y-191583571D01*
X153423572Y-191583571D01*
X153566429Y-191655000D01*
X153637858Y-191726429D01*
X153709286Y-191869286D01*
X153709286Y-192012143D01*
X153637858Y-192226429D01*
X152780715Y-193083571D01*
X153709286Y-193083571D01*
D16*
X143408400Y-208584800D02*
X143408400Y-203504800D01*
X143408400Y-203504800D02*
X118008400Y-203504800D01*
X118008400Y-203504800D02*
X118008400Y-208584800D01*
X118008400Y-208584800D02*
X143408400Y-208584800D01*
X143408400Y-165404800D02*
X143408400Y-160324800D01*
X143408400Y-160324800D02*
X118008400Y-160324800D01*
X118008400Y-160324800D02*
X118008400Y-165404800D01*
X118008400Y-165404800D02*
X143408400Y-165404800D01*
X157480000Y-193421000D02*
X147320000Y-193421000D01*
X157480000Y-194945000D02*
X157480000Y-193421000D01*
X147320000Y-193421000D02*
X147320000Y-194945000D01*
X147320000Y-200025000D02*
X157480000Y-200025000D01*
X157480000Y-194945000D02*
X147320000Y-194945000D01*
X147320000Y-200025000D02*
X147320000Y-194945000D01*
X157480000Y-200025000D02*
X157480000Y-194945000D01*
X140081000Y-180721000D02*
X142621000Y-178181000D01*
X142621000Y-178181000D02*
X147701000Y-178181000D01*
X147701000Y-178181000D02*
X150241000Y-180721000D01*
X150241000Y-180721000D02*
X150241000Y-185801000D01*
X150241000Y-185801000D02*
X147701000Y-188341000D01*
X147701000Y-188341000D02*
X142621000Y-188341000D01*
X142621000Y-188341000D02*
X140081000Y-185801000D01*
X140081000Y-185801000D02*
X140081000Y-180721000D01*
X152781000Y-188341000D02*
X152781000Y-178181000D01*
X136271000Y-188341000D02*
X136271000Y-178181000D01*
X136271000Y-178181000D02*
X152781000Y-178181000D01*
X152781000Y-188341000D02*
X136271000Y-188341000D01*
X118364000Y-184912000D02*
X118364000Y-177419000D01*
X118364000Y-177419000D02*
X119634000Y-177419000D01*
X119634000Y-184912000D02*
X118364000Y-184912000D01*
X124714000Y-177419000D02*
X124714000Y-184912000D01*
X119634000Y-184912000D02*
X119634000Y-177419000D01*
X119634000Y-177419000D02*
X124714000Y-177419000D01*
X119634000Y-184912000D02*
X124714000Y-184912000D01*
D17*
X162550400Y-184612800D02*
X162550400Y-185312800D01*
X161350400Y-185312800D02*
X161350400Y-184612800D01*
D16*
X158292800Y-163931600D02*
G75*
G03X157632400Y-163271200I-660400J0D01*
G01*
X157632400Y-163271200D02*
G75*
G03X156972000Y-163931600I0J-660400D01*
G01*
D18*
X165684200Y-146646900D02*
X149580600Y-146646900D01*
X149580600Y-146646900D02*
X149580600Y-147646332D01*
X149580600Y-163944300D02*
X165684200Y-163944300D01*
X165684200Y-163944300D02*
X165684200Y-162944868D01*
X165684200Y-147646330D02*
X165684200Y-146646900D01*
X149580600Y-162944870D02*
X149580600Y-163944300D01*
D16*
X142748000Y-124206000D02*
X137363200Y-124206000D01*
X136296400Y-125272800D02*
G75*
G03X137363200Y-124206000I0J1066800D01*
G01*
X137363200Y-124206000D02*
G75*
G03X136296400Y-123139200I-1066800J0D01*
G01*
X136296400Y-125323600D02*
X136296400Y-126542800D01*
X136296400Y-123088400D02*
X136296400Y-121920000D01*
X145034000Y-124206000D02*
G75*
G03X145034000Y-124206000I-1117600J0D01*
G01*
X136296400Y-121920000D02*
X136296400Y-114173000D01*
X136296400Y-126492000D02*
X136296400Y-138785600D01*
X159664400Y-123063000D02*
X159664400Y-121843800D01*
X158521400Y-124206000D02*
G75*
G03X159664400Y-125349000I1143000J0D01*
G01*
X159664400Y-123063000D02*
G75*
G03X158521400Y-124206000I0J-1143000D01*
G01*
X143916400Y-126517400D02*
X143916400Y-125323600D01*
X146227800Y-124206000D02*
X145059400Y-124206000D01*
X143916400Y-121894600D02*
X143916400Y-123063000D01*
X159664400Y-126466600D02*
X159664400Y-125374400D01*
X158521400Y-124206000D02*
X157353000Y-124206000D01*
X149504400Y-124206000D02*
X150647400Y-124206000D01*
X151815800Y-114173000D02*
X151815800Y-123063000D01*
X154076400Y-124206000D02*
X152933400Y-124206000D01*
X151790400Y-126492000D02*
X151790400Y-125349000D01*
X149504400Y-124206000D02*
X146202400Y-124206000D01*
X151790400Y-126492000D02*
X151790400Y-138811000D01*
X154076400Y-124206000D02*
X157353000Y-124206000D01*
X152933400Y-124206000D02*
G75*
G03X152933400Y-124206000I-1143000J0D01*
G01*
X143916400Y-126492000D02*
X143916400Y-138811000D01*
X143916400Y-121920000D02*
X143916400Y-114173000D01*
X159664400Y-114173000D02*
X159664400Y-121920000D01*
X159664400Y-126492000D02*
X159664400Y-138811000D01*
X136294400Y-114169000D02*
X159666400Y-114169000D01*
X136294400Y-138807000D02*
X159666400Y-138807000D01*
X118008400Y-125323600D02*
G75*
G03X119126000Y-124206000I0J1117600D01*
G01*
X119126000Y-124206000D02*
G75*
G03X118008400Y-123088400I-1117600J0D01*
G01*
X133756400Y-114147600D02*
X118008400Y-114147600D01*
X133756400Y-138785600D02*
X118008400Y-138785600D01*
X133756400Y-123063000D02*
X133756400Y-121843800D01*
X132613400Y-124206000D02*
G75*
G03X133756400Y-125349000I1143000J0D01*
G01*
X133756400Y-123063000D02*
G75*
G03X132613400Y-124206000I0J-1143000D01*
G01*
X118008400Y-126517400D02*
X118008400Y-125323600D01*
X120319800Y-124206000D02*
X119151400Y-124206000D01*
X118008400Y-121894600D02*
X118008400Y-123063000D01*
X133756400Y-126466600D02*
X133756400Y-125374400D01*
X132613400Y-124206000D02*
X131445000Y-124206000D01*
X123596400Y-124206000D02*
X124739400Y-124206000D01*
X125907800Y-114173000D02*
X125907800Y-123063000D01*
X128168400Y-124206000D02*
X127025400Y-124206000D01*
X125882400Y-126492000D02*
X125882400Y-125349000D01*
X123596400Y-124206000D02*
X120294400Y-124206000D01*
X125882400Y-126492000D02*
X125882400Y-138785600D01*
X128168400Y-124206000D02*
X131445000Y-124206000D01*
X127025400Y-124206000D02*
G75*
G03X127025400Y-124206000I-1143000J0D01*
G01*
X118008400Y-126492000D02*
X118008400Y-138785600D01*
X118008400Y-121920000D02*
X118008400Y-114173000D01*
X133756400Y-114173000D02*
X133756400Y-121920000D01*
X133756400Y-126492000D02*
X133756400Y-138785600D01*
X161950400Y-125323600D02*
G75*
G03X163068000Y-124206000I0J1117600D01*
G01*
X163068000Y-124206000D02*
G75*
G03X161950400Y-123088400I-1117600J0D01*
G01*
X177698400Y-114147600D02*
X161950400Y-114147600D01*
X177698400Y-138785600D02*
X161950400Y-138785600D01*
X177698400Y-123063000D02*
X177698400Y-121843800D01*
X176555400Y-124206000D02*
G75*
G03X177698400Y-125349000I1143000J0D01*
G01*
X177698400Y-123063000D02*
G75*
G03X176555400Y-124206000I0J-1143000D01*
G01*
X161950400Y-126517400D02*
X161950400Y-125323600D01*
X164261800Y-124206000D02*
X163093400Y-124206000D01*
X161950400Y-121894600D02*
X161950400Y-123063000D01*
X177698400Y-126466600D02*
X177698400Y-125374400D01*
X176555400Y-124206000D02*
X175387000Y-124206000D01*
X167538400Y-124206000D02*
X168681400Y-124206000D01*
X169849800Y-114173000D02*
X169849800Y-123063000D01*
X172110400Y-124206000D02*
X170967400Y-124206000D01*
X169824400Y-126492000D02*
X169824400Y-125349000D01*
X167538400Y-124206000D02*
X164236400Y-124206000D01*
X169824400Y-126492000D02*
X169824400Y-138785600D01*
X172110400Y-124206000D02*
X175387000Y-124206000D01*
X170967400Y-124206000D02*
G75*
G03X170967400Y-124206000I-1143000J0D01*
G01*
X161950400Y-126492000D02*
X161950400Y-138785600D01*
X161950400Y-121920000D02*
X161950400Y-114173000D01*
X177698400Y-114173000D02*
X177698400Y-121920000D01*
X177698400Y-126492000D02*
X177698400Y-138785600D01*
D17*
X171399000Y-160001500D02*
X170399000Y-160001500D01*
X170399000Y-158641500D02*
X171399000Y-158641500D01*
X171358000Y-156953500D02*
X170358000Y-156953500D01*
X170358000Y-155593500D02*
X171358000Y-155593500D01*
X171358000Y-153969000D02*
X170358000Y-153969000D01*
X170358000Y-152609000D02*
X171358000Y-152609000D01*
X149918800Y-169195200D02*
X150918800Y-169195200D01*
X150918800Y-170555200D02*
X149918800Y-170555200D01*
X149918800Y-172192400D02*
X150918800Y-172192400D01*
X150918800Y-173552400D02*
X149918800Y-173552400D01*
X149918800Y-175138800D02*
X150918800Y-175138800D01*
X150918800Y-176498800D02*
X149918800Y-176498800D01*
D16*
X132715000Y-165481000D02*
X142367000Y-165481000D01*
X142367000Y-175133000D02*
X132715000Y-175133000D01*
X142367000Y-165481000D02*
X142367000Y-175133000D01*
X132715000Y-165481000D02*
X132715000Y-175133000D01*
X163118800Y-165201600D02*
G75*
G03X163779200Y-165862000I660400J0D01*
G01*
X163779200Y-165862000D02*
G75*
G03X164439600Y-165201600I0J660400D01*
G01*
D18*
X155727400Y-182486300D02*
X171831000Y-182486300D01*
X171831000Y-182486300D02*
X171831000Y-181486868D01*
X171831000Y-165188900D02*
X155727400Y-165188900D01*
X155727400Y-165188900D02*
X155727400Y-166188332D01*
X155727400Y-181486870D02*
X155727400Y-182486300D01*
X171831000Y-166188330D02*
X171831000Y-165188900D01*
D17*
X133766000Y-185704000D02*
X133766000Y-185004000D01*
X134966000Y-185004000D02*
X134966000Y-185704000D01*
X134966000Y-180818000D02*
X134966000Y-181518000D01*
X133766000Y-181518000D02*
X133766000Y-180818000D01*
X132670000Y-198620000D02*
X132670000Y-197620000D01*
X134030000Y-197620000D02*
X134030000Y-198620000D01*
X130892000Y-198620000D02*
X130892000Y-197620000D01*
X132252000Y-197620000D02*
X132252000Y-198620000D01*
X129114000Y-198620000D02*
X129114000Y-197620000D01*
X130474000Y-197620000D02*
X130474000Y-198620000D01*
X127336000Y-198620000D02*
X127336000Y-197620000D01*
X128696000Y-197620000D02*
X128696000Y-198620000D01*
D16*
X118364000Y-177165000D02*
X118364000Y-169672000D01*
X118364000Y-169672000D02*
X119634000Y-169672000D01*
X119634000Y-177165000D02*
X118364000Y-177165000D01*
X124714000Y-169672000D02*
X124714000Y-177165000D01*
X119634000Y-177165000D02*
X119634000Y-169672000D01*
X119634000Y-169672000D02*
X124714000Y-169672000D01*
X119634000Y-177165000D02*
X124714000Y-177165000D01*
X118364000Y-192659000D02*
X118364000Y-185166000D01*
X118364000Y-185166000D02*
X119634000Y-185166000D01*
X119634000Y-192659000D02*
X118364000Y-192659000D01*
X124714000Y-185166000D02*
X124714000Y-192659000D01*
X119634000Y-192659000D02*
X119634000Y-185166000D01*
X119634000Y-185166000D02*
X124714000Y-185166000D01*
X119634000Y-192659000D02*
X124714000Y-192659000D01*
X118364000Y-200406000D02*
X118364000Y-192913000D01*
X118364000Y-192913000D02*
X119634000Y-192913000D01*
X119634000Y-200406000D02*
X118364000Y-200406000D01*
X124714000Y-192913000D02*
X124714000Y-200406000D01*
X119634000Y-200406000D02*
X119634000Y-192913000D01*
X119634000Y-192913000D02*
X124714000Y-192913000D01*
X119634000Y-200406000D02*
X124714000Y-200406000D01*
D17*
X165446000Y-184562000D02*
X165446000Y-185262000D01*
X164246000Y-185262000D02*
X164246000Y-184562000D01*
X160264400Y-184663600D02*
X160264400Y-185363600D01*
X159064400Y-185363600D02*
X159064400Y-184663600D01*
X157318000Y-184689000D02*
X157318000Y-185389000D01*
X156118000Y-185389000D02*
X156118000Y-184689000D01*
X168367000Y-184562000D02*
X168367000Y-185262000D01*
X167167000Y-185262000D02*
X167167000Y-184562000D01*
D16*
X146050000Y-193421000D02*
X135890000Y-193421000D01*
X146050000Y-194945000D02*
X146050000Y-193421000D01*
X135890000Y-193421000D02*
X135890000Y-194945000D01*
X135890000Y-200025000D02*
X146050000Y-200025000D01*
X146050000Y-194945000D02*
X135890000Y-194945000D01*
X135890000Y-200025000D02*
X135890000Y-194945000D01*
X146050000Y-200025000D02*
X146050000Y-194945000D01*
D17*
X127975000Y-175089000D02*
X127975000Y-177209000D01*
X131175000Y-175089000D02*
X127975000Y-175089000D01*
X127975000Y-177209000D02*
X131175000Y-177209000D01*
X136347000Y-178226000D02*
X135347000Y-178226000D01*
X135347000Y-176866000D02*
X136347000Y-176866000D01*
D19*
G36*
X133552770Y-217724811D02*
X133542272Y-217748974D01*
X133508131Y-217800375D01*
X133488543Y-217828109D01*
X133451901Y-217882196D01*
X133416000Y-217941563D01*
X133378587Y-218010959D01*
X133337408Y-218095130D01*
X133290212Y-218198823D01*
X133234745Y-218326788D01*
X133168755Y-218483770D01*
X133110006Y-218625824D01*
X133060041Y-218748483D01*
X132998417Y-218901788D01*
X132927806Y-219078941D01*
X132850880Y-219273142D01*
X132770310Y-219477592D01*
X132688768Y-219685491D01*
X132608926Y-219890041D01*
X132533455Y-220084441D01*
X132465027Y-220261893D01*
X132406313Y-220415596D01*
X132394631Y-220446434D01*
X132372990Y-220503663D01*
X132260544Y-220349688D01*
X132210827Y-220285314D01*
X132168845Y-220237788D01*
X132140408Y-220213335D01*
X132132319Y-220212269D01*
X132121100Y-220232736D01*
X132093984Y-220286287D01*
X132052460Y-220369877D01*
X131998017Y-220480461D01*
X131932146Y-220614994D01*
X131856335Y-220770431D01*
X131772075Y-220943729D01*
X131680855Y-221131841D01*
X131584164Y-221331723D01*
X131545578Y-221411620D01*
X131323428Y-221871554D01*
X131117286Y-222297769D01*
X130925935Y-222692756D01*
X130748157Y-223059002D01*
X130582736Y-223398995D01*
X130428455Y-223715225D01*
X130284096Y-224010179D01*
X130148443Y-224286347D01*
X130020278Y-224546216D01*
X129898385Y-224792275D01*
X129781545Y-225027013D01*
X129668543Y-225252917D01*
X129604219Y-225380997D01*
X129517040Y-225555365D01*
X129442596Y-225705261D01*
X129378241Y-225834126D01*
X129321326Y-225945404D01*
X129269204Y-226042534D01*
X129219228Y-226128960D01*
X129168750Y-226208124D01*
X129115122Y-226283466D01*
X129055696Y-226358429D01*
X128987826Y-226436454D01*
X128908863Y-226520984D01*
X128816160Y-226615461D01*
X128707070Y-226723325D01*
X128578944Y-226848020D01*
X128429136Y-226992987D01*
X128254997Y-227161667D01*
X128173673Y-227240697D01*
X128026988Y-227384227D01*
X127883479Y-227526150D01*
X127746892Y-227662661D01*
X127620971Y-227789953D01*
X127509461Y-227904220D01*
X127416105Y-228001656D01*
X127344649Y-228078453D01*
X127303055Y-228125703D01*
X127189934Y-228258710D01*
X127052761Y-228415984D01*
X126895550Y-228593156D01*
X126722311Y-228785856D01*
X126537057Y-228989716D01*
X126343800Y-229200364D01*
X126146551Y-229413433D01*
X125949322Y-229624552D01*
X125756125Y-229829353D01*
X125570973Y-230023465D01*
X125397876Y-230202519D01*
X125369552Y-230231540D01*
X125273757Y-230329821D01*
X125188222Y-230418109D01*
X125116647Y-230492543D01*
X125062726Y-230549264D01*
X125030157Y-230584413D01*
X125021980Y-230594433D01*
X125046621Y-230603212D01*
X125102450Y-230619274D01*
X125181650Y-230640626D01*
X125276401Y-230665276D01*
X125378886Y-230691229D01*
X125481287Y-230716494D01*
X125575785Y-230739077D01*
X125654561Y-230756986D01*
X125684996Y-230763439D01*
X125813747Y-230787716D01*
X125907316Y-230800502D01*
X125968862Y-230802031D01*
X126001546Y-230792538D01*
X126006386Y-230787274D01*
X126025539Y-230768377D01*
X126068878Y-230730821D01*
X126129128Y-230680805D01*
X126172960Y-230645314D01*
X126329316Y-230519885D01*
X126012896Y-230818325D01*
X126080893Y-230830494D01*
X126201416Y-230847926D01*
X126345871Y-230862047D01*
X126508785Y-230872897D01*
X126684684Y-230880515D01*
X126868096Y-230884942D01*
X127053545Y-230886218D01*
X127235560Y-230884383D01*
X127408667Y-230879477D01*
X127567392Y-230871540D01*
X127706262Y-230860611D01*
X127819803Y-230846733D01*
X127902542Y-230829943D01*
X127938392Y-230816897D01*
X127961315Y-230793244D01*
X128001888Y-230738275D01*
X128057948Y-230655531D01*
X128127333Y-230548553D01*
X128207882Y-230420885D01*
X128297433Y-230276066D01*
X128393822Y-230117640D01*
X128494890Y-229949147D01*
X128598473Y-229774130D01*
X128702411Y-229596130D01*
X128804540Y-229418689D01*
X128902699Y-229245349D01*
X128955954Y-229149899D01*
X129040462Y-229000109D01*
X129131224Y-228843722D01*
X129222949Y-228689549D01*
X129310345Y-228546399D01*
X129388122Y-228423083D01*
X129437572Y-228348005D01*
X129511557Y-228235036D01*
X129597479Y-228097784D01*
X129688574Y-227947431D01*
X129778078Y-227795162D01*
X129859227Y-227652158D01*
X129867346Y-227637485D01*
X129966975Y-227461471D01*
X130064947Y-227298793D01*
X130168307Y-227138514D01*
X130284105Y-226969700D01*
X130416422Y-226785473D01*
X130699767Y-226389587D01*
X130967519Y-225998454D01*
X131225903Y-225602427D01*
X131481144Y-225191860D01*
X131739466Y-224757105D01*
X131859503Y-224549031D01*
X131931532Y-224425258D01*
X131997078Y-224318420D01*
X132062047Y-224220144D01*
X132132349Y-224122058D01*
X132213891Y-224015791D01*
X132312581Y-223892972D01*
X132382957Y-223807279D01*
X132480085Y-223689462D01*
X132576697Y-223571944D01*
X132667315Y-223461412D01*
X132746460Y-223364553D01*
X132808655Y-223288057D01*
X132834544Y-223255977D01*
X132896849Y-223179224D01*
X132975735Y-223083251D01*
X133061829Y-222979400D01*
X133145760Y-222879013D01*
X133159636Y-222862517D01*
X133227974Y-222779771D01*
X133285960Y-222706515D01*
X133329066Y-222648716D01*
X133352761Y-222612336D01*
X133355914Y-222604063D01*
X133350566Y-222573958D01*
X133336804Y-222519247D01*
X133318052Y-222451712D01*
X133297735Y-222383138D01*
X133279277Y-222325308D01*
X133266102Y-222290006D01*
X133263176Y-222284930D01*
X133245672Y-222293048D01*
X133208056Y-222322839D01*
X133161407Y-222365120D01*
X133115142Y-222406811D01*
X133093484Y-222420625D01*
X133097683Y-222405787D01*
X133098788Y-222403964D01*
X133126816Y-222355229D01*
X133161297Y-222291222D01*
X133174901Y-222264915D01*
X133202259Y-222213491D01*
X133219037Y-222193523D01*
X133232248Y-222200436D01*
X133243757Y-222219994D01*
X133254547Y-222236396D01*
X133268173Y-222242017D01*
X133289790Y-222233635D01*
X133324551Y-222208025D01*
X133377609Y-222161968D01*
X133454117Y-222092240D01*
X133466980Y-222080417D01*
X133693882Y-221873548D01*
X133896024Y-221693130D01*
X134076391Y-221536674D01*
X134237970Y-221401687D01*
X134383748Y-221285680D01*
X134516710Y-221186162D01*
X134639844Y-221100641D01*
X134648969Y-221094588D01*
X134812173Y-220993532D01*
X134951826Y-220921596D01*
X135067235Y-220879026D01*
X135157704Y-220866069D01*
X135222538Y-220882970D01*
X135230342Y-220888350D01*
X135251743Y-220907095D01*
X135247759Y-220916250D01*
X135212583Y-220919382D01*
X135179137Y-220919822D01*
X135089762Y-220933078D01*
X135001084Y-220975497D01*
X134997136Y-220977981D01*
X134926919Y-221027593D01*
X134835976Y-221099331D01*
X134731696Y-221186736D01*
X134621467Y-221283348D01*
X134512678Y-221382707D01*
X134412719Y-221478355D01*
X134338235Y-221553999D01*
X134276375Y-221619938D01*
X134198012Y-221704476D01*
X134107258Y-221803082D01*
X134008228Y-221911224D01*
X133905035Y-222024369D01*
X133801792Y-222137985D01*
X133702612Y-222247542D01*
X133611610Y-222348507D01*
X133532898Y-222436347D01*
X133470591Y-222506532D01*
X133428801Y-222554530D01*
X133415092Y-222571039D01*
X133370907Y-222627212D01*
X133425129Y-222871429D01*
X133469670Y-223083550D01*
X133504303Y-223277681D01*
X133530339Y-223465155D01*
X133549088Y-223657305D01*
X133561860Y-223865466D01*
X133569967Y-224100971D01*
X133570652Y-224129984D01*
X133573164Y-224455895D01*
X133564428Y-224753401D01*
X133543404Y-225032867D01*
X133509053Y-225304661D01*
X133460336Y-225579150D01*
X133396875Y-225863974D01*
X133258104Y-226352644D01*
X133082670Y-226826823D01*
X132871984Y-227284586D01*
X132627459Y-227724005D01*
X132350507Y-228143154D01*
X132042539Y-228540108D01*
X131704967Y-228912941D01*
X131339203Y-229259726D01*
X130946659Y-229578537D01*
X130528747Y-229867448D01*
X130406845Y-229943046D01*
X129990805Y-230174005D01*
X129555599Y-230376039D01*
X129107896Y-230546636D01*
X128654364Y-230683282D01*
X128201672Y-230783467D01*
X128153626Y-230791912D01*
X128048241Y-230813362D01*
X127980244Y-230835486D01*
X127947447Y-230858416D01*
X127929261Y-230884349D01*
X127891797Y-230938366D01*
X127838481Y-231015504D01*
X127772742Y-231110800D01*
X127698005Y-231219293D01*
X127639037Y-231304990D01*
X127419034Y-231617328D01*
X127212073Y-231895115D01*
X127015898Y-232140862D01*
X126828250Y-232357079D01*
X126646873Y-232546275D01*
X126469510Y-232710962D01*
X126293902Y-232853649D01*
X126161372Y-232948152D01*
X126044567Y-233019470D01*
X125910100Y-233090152D01*
X125770727Y-233154296D01*
X125639202Y-233205996D01*
X125536422Y-233237416D01*
X125372019Y-233266605D01*
X125194119Y-233279585D01*
X125020198Y-233275757D01*
X124892057Y-233259514D01*
X124654488Y-233194122D01*
X124426800Y-233089947D01*
X124209301Y-232947139D01*
X124134012Y-232886686D01*
X124075899Y-232841432D01*
X124028595Y-232817942D01*
X123974813Y-232809373D01*
X123936589Y-232808542D01*
X123667930Y-232792796D01*
X123395328Y-232747325D01*
X123330496Y-232729729D01*
X124812048Y-232729729D01*
X124839802Y-232747137D01*
X124865859Y-232755275D01*
X124903883Y-232759649D01*
X124969650Y-232761793D01*
X125050857Y-232761388D01*
X125076356Y-232760723D01*
X125193299Y-232752279D01*
X125289794Y-232732855D01*
X125372632Y-232703881D01*
X125508144Y-232642008D01*
X125629417Y-232571152D01*
X125747264Y-232483888D01*
X125872496Y-232372788D01*
X125916893Y-232330013D01*
X125982412Y-232264744D01*
X126031110Y-232213955D01*
X126059380Y-232181608D01*
X126063614Y-232171667D01*
X126058677Y-232174261D01*
X125851469Y-232302954D01*
X125672431Y-232405580D01*
X125520035Y-232483013D01*
X125512741Y-232486399D01*
X125405157Y-232532511D01*
X125281942Y-232579635D01*
X125154241Y-232624021D01*
X125033201Y-232661923D01*
X124929966Y-232689591D01*
X124875633Y-232700647D01*
X124824065Y-232713821D01*
X124812048Y-232729729D01*
X123330496Y-232729729D01*
X123128016Y-232674775D01*
X122875231Y-232577794D01*
X122646210Y-232459030D01*
X122586524Y-232421527D01*
X122517491Y-232381361D01*
X122449635Y-232350141D01*
X122410058Y-232337648D01*
X122357859Y-232322140D01*
X122284493Y-232294128D01*
X122204551Y-232259247D01*
X122192891Y-232253769D01*
X122032521Y-232155773D01*
X122032261Y-232155529D01*
X123984527Y-232155529D01*
X123991177Y-232171423D01*
X124009916Y-232192913D01*
X124014338Y-232197621D01*
X124039418Y-232222352D01*
X124064343Y-232237643D01*
X124096865Y-232243725D01*
X124144736Y-232240835D01*
X124215710Y-232229204D01*
X124317538Y-232209069D01*
X124327386Y-232207070D01*
X124409309Y-232188803D01*
X124503165Y-232165304D01*
X124601696Y-232138720D01*
X124697647Y-232111195D01*
X124783762Y-232084877D01*
X124852786Y-232061911D01*
X124897463Y-232044443D01*
X124910537Y-232034619D01*
X124910521Y-232034604D01*
X124888838Y-232034521D01*
X124837302Y-232040607D01*
X124765468Y-232051648D01*
X124734871Y-232056886D01*
X124647412Y-232070192D01*
X124534664Y-232084382D01*
X124411348Y-232097733D01*
X124295203Y-232108285D01*
X124171727Y-232118362D01*
X124083566Y-232126648D01*
X124026076Y-232134619D01*
X123994612Y-232143754D01*
X123984527Y-232155529D01*
X122032261Y-232155529D01*
X121893468Y-232025286D01*
X121777073Y-231864581D01*
X121684680Y-231675931D01*
X121617629Y-231461610D01*
X121577263Y-231223891D01*
X121575632Y-231208057D01*
X121561526Y-231121851D01*
X121536752Y-231019630D01*
X121506426Y-230922236D01*
X121503470Y-230914067D01*
X121425000Y-230672547D01*
X121414904Y-230633404D01*
X121805562Y-230633404D01*
X121814307Y-230776796D01*
X121823168Y-230864117D01*
X121841212Y-230935708D01*
X121874208Y-231010613D01*
X121899338Y-231057459D01*
X122069926Y-231333385D01*
X122255140Y-231573078D01*
X122456254Y-231778115D01*
X122540366Y-231849911D01*
X122660650Y-231947355D01*
X122790958Y-231934929D01*
X122858835Y-231927428D01*
X122908916Y-231919965D01*
X122929619Y-231914457D01*
X122933914Y-231909060D01*
X122930087Y-231901942D01*
X122911837Y-231888642D01*
X122872861Y-231864696D01*
X122806857Y-231825643D01*
X122790958Y-231816275D01*
X122571854Y-231668640D01*
X122375115Y-231496005D01*
X122197540Y-231294798D01*
X122035925Y-231061448D01*
X121905208Y-230828328D01*
X121805562Y-230633404D01*
X121414904Y-230633404D01*
X121353684Y-230396068D01*
X121290486Y-230089288D01*
X121236370Y-229756862D01*
X121194142Y-229420539D01*
X121184931Y-229315573D01*
X121177203Y-229187861D01*
X121171000Y-229043484D01*
X121166364Y-228888526D01*
X121163339Y-228729066D01*
X121161967Y-228571188D01*
X121162290Y-228420973D01*
X121164352Y-228284503D01*
X121168194Y-228167861D01*
X121173859Y-228077127D01*
X121181390Y-228018385D01*
X121184245Y-228007200D01*
X121195295Y-227976873D01*
X121201434Y-227975337D01*
X121204389Y-228006642D01*
X121205608Y-228057319D01*
X121212116Y-228216594D01*
X121226144Y-228405738D01*
X121246506Y-228615477D01*
X121272017Y-228836543D01*
X121301490Y-229059662D01*
X121333741Y-229275566D01*
X121367584Y-229474981D01*
X121401834Y-229648639D01*
X121418416Y-229721564D01*
X121449047Y-229843659D01*
X121481512Y-229964077D01*
X121513957Y-230076857D01*
X121544530Y-230176041D01*
X121571374Y-230255668D01*
X121592636Y-230309781D01*
X121606461Y-230332418D01*
X121608500Y-230332485D01*
X121626915Y-230300033D01*
X121636120Y-230236283D01*
X121636129Y-230148958D01*
X121626958Y-230045780D01*
X121608621Y-229934470D01*
X121607730Y-229930117D01*
X121578690Y-229780699D01*
X121555093Y-229637685D01*
X121536380Y-229494269D01*
X121521993Y-229343645D01*
X121511373Y-229179006D01*
X121503962Y-228993546D01*
X121499202Y-228780458D01*
X121496871Y-228578550D01*
X121493747Y-228188131D01*
X121609145Y-228188131D01*
X121611070Y-228266029D01*
X121615047Y-228363022D01*
X121620727Y-228472151D01*
X121627760Y-228586457D01*
X121635798Y-228698978D01*
X121644493Y-228802757D01*
X121650014Y-228859213D01*
X121661150Y-228953311D01*
X121675947Y-229061212D01*
X121693088Y-229175044D01*
X121711256Y-229286937D01*
X121729136Y-229389018D01*
X121745411Y-229473418D01*
X121758765Y-229532264D01*
X121766483Y-229555695D01*
X121777307Y-229547553D01*
X121797162Y-229507399D01*
X121823334Y-229441557D01*
X121853110Y-229356351D01*
X121856773Y-229345198D01*
X121901874Y-229210700D01*
X121942207Y-229097757D01*
X121976245Y-229010209D01*
X122002463Y-228951897D01*
X122019335Y-228926661D01*
X122023061Y-228926622D01*
X122022387Y-228948329D01*
X122014402Y-229001427D01*
X122000428Y-229078154D01*
X121981790Y-229170747D01*
X121979911Y-229179678D01*
X121954314Y-229306071D01*
X121927052Y-229449090D01*
X121902088Y-229587576D01*
X121889246Y-229663468D01*
X121850218Y-229902690D01*
X121911137Y-230077597D01*
X121962112Y-230211721D01*
X122025146Y-230358799D01*
X122094929Y-230507783D01*
X122166154Y-230647626D01*
X122233511Y-230767284D01*
X122271115Y-230826655D01*
X122366713Y-230953266D01*
X122482724Y-231083695D01*
X122606993Y-231205321D01*
X122727364Y-231305523D01*
X122744042Y-231317717D01*
X122804717Y-231357615D01*
X122879434Y-231401573D01*
X122960188Y-231445542D01*
X123038972Y-231485474D01*
X123107780Y-231517320D01*
X123158605Y-231537032D01*
X123183442Y-231540559D01*
X123183929Y-231540170D01*
X123180238Y-231519328D01*
X123162903Y-231471744D01*
X123135450Y-231406908D01*
X123129351Y-231393355D01*
X123070164Y-231257149D01*
X123003583Y-231094110D01*
X122933968Y-230915739D01*
X122865677Y-230733537D01*
X122803068Y-230559005D01*
X122750500Y-230403645D01*
X122731179Y-230342717D01*
X122697770Y-230231045D01*
X122661724Y-230104832D01*
X122624663Y-229970378D01*
X122588208Y-229833986D01*
X122553983Y-229701956D01*
X122523609Y-229580589D01*
X122498709Y-229476186D01*
X122480904Y-229395049D01*
X122471817Y-229343479D01*
X122470992Y-229332052D01*
X122478301Y-229339733D01*
X122498690Y-229380710D01*
X122530436Y-229451018D01*
X122571814Y-229546692D01*
X122621102Y-229663766D01*
X122676575Y-229798274D01*
X122718566Y-229901675D01*
X122806604Y-230118039D01*
X122884009Y-230303799D01*
X122954050Y-230465959D01*
X123019999Y-230611521D01*
X123085124Y-230747490D01*
X123152695Y-230880868D01*
X123225983Y-231018660D01*
X123308256Y-231167868D01*
X123317145Y-231183761D01*
X123397104Y-231325527D01*
X123460883Y-231435685D01*
X123511131Y-231518020D01*
X123550500Y-231576322D01*
X123581642Y-231614377D01*
X123607206Y-231635974D01*
X123629844Y-231644900D01*
X123640527Y-231645795D01*
X123676861Y-231635117D01*
X123736729Y-231606295D01*
X123810801Y-231564151D01*
X123866477Y-231529062D01*
X123948195Y-231472836D01*
X124049398Y-231399341D01*
X124158782Y-231316988D01*
X124265041Y-231234188D01*
X124294677Y-231210472D01*
X124313894Y-231194730D01*
X125477304Y-231194730D01*
X125487327Y-231204753D01*
X125497351Y-231194730D01*
X125487327Y-231184706D01*
X125477304Y-231194730D01*
X124313894Y-231194730D01*
X124334585Y-231177781D01*
X125517398Y-231177781D01*
X125532723Y-231173984D01*
X125578530Y-231144612D01*
X125654571Y-231089841D01*
X125760594Y-231009849D01*
X125814362Y-230968497D01*
X125881875Y-230914869D01*
X125934401Y-230870310D01*
X125965772Y-230840239D01*
X125971634Y-230830365D01*
X125953977Y-230838860D01*
X125911990Y-230867193D01*
X125852589Y-230910078D01*
X125782688Y-230962224D01*
X125709202Y-231018344D01*
X125639045Y-231073149D01*
X125579132Y-231121350D01*
X125536379Y-231157659D01*
X125517699Y-231176787D01*
X125517398Y-231177781D01*
X124334585Y-231177781D01*
X124380964Y-231139790D01*
X124475702Y-231060280D01*
X124574300Y-230976008D01*
X124672167Y-230891038D01*
X124764714Y-230809435D01*
X124847350Y-230735265D01*
X124915485Y-230672591D01*
X124964528Y-230625480D01*
X124989889Y-230597996D01*
X124992182Y-230592799D01*
X124972128Y-230584011D01*
X124921871Y-230564371D01*
X124848883Y-230536742D01*
X124760636Y-230503988D01*
X124756126Y-230502330D01*
X124289200Y-230310180D01*
X123838464Y-230083678D01*
X123406627Y-229824823D01*
X122996395Y-229535616D01*
X122610476Y-229218059D01*
X122251578Y-228874152D01*
X121922407Y-228505895D01*
X121739359Y-228272828D01*
X121688736Y-228206388D01*
X121646985Y-228154130D01*
X121619798Y-228123043D01*
X121612843Y-228117461D01*
X121609619Y-228136288D01*
X121609145Y-228188131D01*
X121493747Y-228188131D01*
X121491656Y-227927011D01*
X121357617Y-227706490D01*
X121112957Y-227265715D01*
X120904070Y-226807201D01*
X120730882Y-226330725D01*
X120593317Y-225836065D01*
X120491301Y-225322996D01*
X120442936Y-224970026D01*
X120433590Y-224858382D01*
X120426659Y-224715877D01*
X120422145Y-224551673D01*
X120420047Y-224374932D01*
X120420364Y-224194815D01*
X120423098Y-224020483D01*
X120428248Y-223861098D01*
X120435814Y-223725821D01*
X120442936Y-223646900D01*
X120521602Y-223120419D01*
X120636343Y-222611422D01*
X120787197Y-222119817D01*
X120974200Y-221645514D01*
X121197390Y-221188421D01*
X121456805Y-220748448D01*
X121752482Y-220325503D01*
X121866759Y-220178708D01*
X121968818Y-220057120D01*
X122093137Y-219918438D01*
X122231284Y-219771369D01*
X122374829Y-219624621D01*
X122515341Y-219486901D01*
X122644388Y-219366916D01*
X122700745Y-219317355D01*
X123103938Y-218997304D01*
X123527869Y-218711264D01*
X123971016Y-218459899D01*
X124431860Y-218243872D01*
X124908878Y-218063844D01*
X125400550Y-217920478D01*
X125905356Y-217814438D01*
X126269174Y-217762372D01*
X126418365Y-217748873D01*
X126596200Y-217738902D01*
X126792272Y-217732540D01*
X126996175Y-217729868D01*
X127197503Y-217730965D01*
X127385849Y-217735912D01*
X127550807Y-217744790D01*
X127632394Y-217751846D01*
X128151562Y-217824541D01*
X128654592Y-217933891D01*
X129141912Y-218080072D01*
X129613949Y-218263261D01*
X130071129Y-218483634D01*
X130513881Y-218741368D01*
X130942632Y-219036639D01*
X131170753Y-219213585D01*
X131258259Y-219287693D01*
X131362633Y-219381609D01*
X131477793Y-219489332D01*
X131597654Y-219604860D01*
X131716133Y-219722192D01*
X131827148Y-219835326D01*
X131924614Y-219938261D01*
X132002448Y-220024996D01*
X132042813Y-220073909D01*
X132085226Y-220126745D01*
X132117840Y-220164157D01*
X132133026Y-220177681D01*
X132144114Y-220160592D01*
X132170941Y-220111833D01*
X132211322Y-220035596D01*
X132263069Y-219936075D01*
X132323997Y-219817465D01*
X132391919Y-219683958D01*
X132438318Y-219592100D01*
X132582183Y-219309442D01*
X132720542Y-219043393D01*
X132852196Y-218796027D01*
X132975946Y-218569419D01*
X133090594Y-218365643D01*
X133194941Y-218186774D01*
X133287787Y-218034887D01*
X133367935Y-217912055D01*
X133434186Y-217820354D01*
X133485340Y-217761859D01*
X133505472Y-217745320D01*
X133540284Y-217724666D01*
X133552770Y-217724811D01*
X133552770Y-217724811D01*
G37*
X133552770Y-217724811D02*
X133542272Y-217748974D01*
X133508131Y-217800375D01*
X133488543Y-217828109D01*
X133451901Y-217882196D01*
X133416000Y-217941563D01*
X133378587Y-218010959D01*
X133337408Y-218095130D01*
X133290212Y-218198823D01*
X133234745Y-218326788D01*
X133168755Y-218483770D01*
X133110006Y-218625824D01*
X133060041Y-218748483D01*
X132998417Y-218901788D01*
X132927806Y-219078941D01*
X132850880Y-219273142D01*
X132770310Y-219477592D01*
X132688768Y-219685491D01*
X132608926Y-219890041D01*
X132533455Y-220084441D01*
X132465027Y-220261893D01*
X132406313Y-220415596D01*
X132394631Y-220446434D01*
X132372990Y-220503663D01*
X132260544Y-220349688D01*
X132210827Y-220285314D01*
X132168845Y-220237788D01*
X132140408Y-220213335D01*
X132132319Y-220212269D01*
X132121100Y-220232736D01*
X132093984Y-220286287D01*
X132052460Y-220369877D01*
X131998017Y-220480461D01*
X131932146Y-220614994D01*
X131856335Y-220770431D01*
X131772075Y-220943729D01*
X131680855Y-221131841D01*
X131584164Y-221331723D01*
X131545578Y-221411620D01*
X131323428Y-221871554D01*
X131117286Y-222297769D01*
X130925935Y-222692756D01*
X130748157Y-223059002D01*
X130582736Y-223398995D01*
X130428455Y-223715225D01*
X130284096Y-224010179D01*
X130148443Y-224286347D01*
X130020278Y-224546216D01*
X129898385Y-224792275D01*
X129781545Y-225027013D01*
X129668543Y-225252917D01*
X129604219Y-225380997D01*
X129517040Y-225555365D01*
X129442596Y-225705261D01*
X129378241Y-225834126D01*
X129321326Y-225945404D01*
X129269204Y-226042534D01*
X129219228Y-226128960D01*
X129168750Y-226208124D01*
X129115122Y-226283466D01*
X129055696Y-226358429D01*
X128987826Y-226436454D01*
X128908863Y-226520984D01*
X128816160Y-226615461D01*
X128707070Y-226723325D01*
X128578944Y-226848020D01*
X128429136Y-226992987D01*
X128254997Y-227161667D01*
X128173673Y-227240697D01*
X128026988Y-227384227D01*
X127883479Y-227526150D01*
X127746892Y-227662661D01*
X127620971Y-227789953D01*
X127509461Y-227904220D01*
X127416105Y-228001656D01*
X127344649Y-228078453D01*
X127303055Y-228125703D01*
X127189934Y-228258710D01*
X127052761Y-228415984D01*
X126895550Y-228593156D01*
X126722311Y-228785856D01*
X126537057Y-228989716D01*
X126343800Y-229200364D01*
X126146551Y-229413433D01*
X125949322Y-229624552D01*
X125756125Y-229829353D01*
X125570973Y-230023465D01*
X125397876Y-230202519D01*
X125369552Y-230231540D01*
X125273757Y-230329821D01*
X125188222Y-230418109D01*
X125116647Y-230492543D01*
X125062726Y-230549264D01*
X125030157Y-230584413D01*
X125021980Y-230594433D01*
X125046621Y-230603212D01*
X125102450Y-230619274D01*
X125181650Y-230640626D01*
X125276401Y-230665276D01*
X125378886Y-230691229D01*
X125481287Y-230716494D01*
X125575785Y-230739077D01*
X125654561Y-230756986D01*
X125684996Y-230763439D01*
X125813747Y-230787716D01*
X125907316Y-230800502D01*
X125968862Y-230802031D01*
X126001546Y-230792538D01*
X126006386Y-230787274D01*
X126025539Y-230768377D01*
X126068878Y-230730821D01*
X126129128Y-230680805D01*
X126172960Y-230645314D01*
X126329316Y-230519885D01*
X126012896Y-230818325D01*
X126080893Y-230830494D01*
X126201416Y-230847926D01*
X126345871Y-230862047D01*
X126508785Y-230872897D01*
X126684684Y-230880515D01*
X126868096Y-230884942D01*
X127053545Y-230886218D01*
X127235560Y-230884383D01*
X127408667Y-230879477D01*
X127567392Y-230871540D01*
X127706262Y-230860611D01*
X127819803Y-230846733D01*
X127902542Y-230829943D01*
X127938392Y-230816897D01*
X127961315Y-230793244D01*
X128001888Y-230738275D01*
X128057948Y-230655531D01*
X128127333Y-230548553D01*
X128207882Y-230420885D01*
X128297433Y-230276066D01*
X128393822Y-230117640D01*
X128494890Y-229949147D01*
X128598473Y-229774130D01*
X128702411Y-229596130D01*
X128804540Y-229418689D01*
X128902699Y-229245349D01*
X128955954Y-229149899D01*
X129040462Y-229000109D01*
X129131224Y-228843722D01*
X129222949Y-228689549D01*
X129310345Y-228546399D01*
X129388122Y-228423083D01*
X129437572Y-228348005D01*
X129511557Y-228235036D01*
X129597479Y-228097784D01*
X129688574Y-227947431D01*
X129778078Y-227795162D01*
X129859227Y-227652158D01*
X129867346Y-227637485D01*
X129966975Y-227461471D01*
X130064947Y-227298793D01*
X130168307Y-227138514D01*
X130284105Y-226969700D01*
X130416422Y-226785473D01*
X130699767Y-226389587D01*
X130967519Y-225998454D01*
X131225903Y-225602427D01*
X131481144Y-225191860D01*
X131739466Y-224757105D01*
X131859503Y-224549031D01*
X131931532Y-224425258D01*
X131997078Y-224318420D01*
X132062047Y-224220144D01*
X132132349Y-224122058D01*
X132213891Y-224015791D01*
X132312581Y-223892972D01*
X132382957Y-223807279D01*
X132480085Y-223689462D01*
X132576697Y-223571944D01*
X132667315Y-223461412D01*
X132746460Y-223364553D01*
X132808655Y-223288057D01*
X132834544Y-223255977D01*
X132896849Y-223179224D01*
X132975735Y-223083251D01*
X133061829Y-222979400D01*
X133145760Y-222879013D01*
X133159636Y-222862517D01*
X133227974Y-222779771D01*
X133285960Y-222706515D01*
X133329066Y-222648716D01*
X133352761Y-222612336D01*
X133355914Y-222604063D01*
X133350566Y-222573958D01*
X133336804Y-222519247D01*
X133318052Y-222451712D01*
X133297735Y-222383138D01*
X133279277Y-222325308D01*
X133266102Y-222290006D01*
X133263176Y-222284930D01*
X133245672Y-222293048D01*
X133208056Y-222322839D01*
X133161407Y-222365120D01*
X133115142Y-222406811D01*
X133093484Y-222420625D01*
X133097683Y-222405787D01*
X133098788Y-222403964D01*
X133126816Y-222355229D01*
X133161297Y-222291222D01*
X133174901Y-222264915D01*
X133202259Y-222213491D01*
X133219037Y-222193523D01*
X133232248Y-222200436D01*
X133243757Y-222219994D01*
X133254547Y-222236396D01*
X133268173Y-222242017D01*
X133289790Y-222233635D01*
X133324551Y-222208025D01*
X133377609Y-222161968D01*
X133454117Y-222092240D01*
X133466980Y-222080417D01*
X133693882Y-221873548D01*
X133896024Y-221693130D01*
X134076391Y-221536674D01*
X134237970Y-221401687D01*
X134383748Y-221285680D01*
X134516710Y-221186162D01*
X134639844Y-221100641D01*
X134648969Y-221094588D01*
X134812173Y-220993532D01*
X134951826Y-220921596D01*
X135067235Y-220879026D01*
X135157704Y-220866069D01*
X135222538Y-220882970D01*
X135230342Y-220888350D01*
X135251743Y-220907095D01*
X135247759Y-220916250D01*
X135212583Y-220919382D01*
X135179137Y-220919822D01*
X135089762Y-220933078D01*
X135001084Y-220975497D01*
X134997136Y-220977981D01*
X134926919Y-221027593D01*
X134835976Y-221099331D01*
X134731696Y-221186736D01*
X134621467Y-221283348D01*
X134512678Y-221382707D01*
X134412719Y-221478355D01*
X134338235Y-221553999D01*
X134276375Y-221619938D01*
X134198012Y-221704476D01*
X134107258Y-221803082D01*
X134008228Y-221911224D01*
X133905035Y-222024369D01*
X133801792Y-222137985D01*
X133702612Y-222247542D01*
X133611610Y-222348507D01*
X133532898Y-222436347D01*
X133470591Y-222506532D01*
X133428801Y-222554530D01*
X133415092Y-222571039D01*
X133370907Y-222627212D01*
X133425129Y-222871429D01*
X133469670Y-223083550D01*
X133504303Y-223277681D01*
X133530339Y-223465155D01*
X133549088Y-223657305D01*
X133561860Y-223865466D01*
X133569967Y-224100971D01*
X133570652Y-224129984D01*
X133573164Y-224455895D01*
X133564428Y-224753401D01*
X133543404Y-225032867D01*
X133509053Y-225304661D01*
X133460336Y-225579150D01*
X133396875Y-225863974D01*
X133258104Y-226352644D01*
X133082670Y-226826823D01*
X132871984Y-227284586D01*
X132627459Y-227724005D01*
X132350507Y-228143154D01*
X132042539Y-228540108D01*
X131704967Y-228912941D01*
X131339203Y-229259726D01*
X130946659Y-229578537D01*
X130528747Y-229867448D01*
X130406845Y-229943046D01*
X129990805Y-230174005D01*
X129555599Y-230376039D01*
X129107896Y-230546636D01*
X128654364Y-230683282D01*
X128201672Y-230783467D01*
X128153626Y-230791912D01*
X128048241Y-230813362D01*
X127980244Y-230835486D01*
X127947447Y-230858416D01*
X127929261Y-230884349D01*
X127891797Y-230938366D01*
X127838481Y-231015504D01*
X127772742Y-231110800D01*
X127698005Y-231219293D01*
X127639037Y-231304990D01*
X127419034Y-231617328D01*
X127212073Y-231895115D01*
X127015898Y-232140862D01*
X126828250Y-232357079D01*
X126646873Y-232546275D01*
X126469510Y-232710962D01*
X126293902Y-232853649D01*
X126161372Y-232948152D01*
X126044567Y-233019470D01*
X125910100Y-233090152D01*
X125770727Y-233154296D01*
X125639202Y-233205996D01*
X125536422Y-233237416D01*
X125372019Y-233266605D01*
X125194119Y-233279585D01*
X125020198Y-233275757D01*
X124892057Y-233259514D01*
X124654488Y-233194122D01*
X124426800Y-233089947D01*
X124209301Y-232947139D01*
X124134012Y-232886686D01*
X124075899Y-232841432D01*
X124028595Y-232817942D01*
X123974813Y-232809373D01*
X123936589Y-232808542D01*
X123667930Y-232792796D01*
X123395328Y-232747325D01*
X123330496Y-232729729D01*
X124812048Y-232729729D01*
X124839802Y-232747137D01*
X124865859Y-232755275D01*
X124903883Y-232759649D01*
X124969650Y-232761793D01*
X125050857Y-232761388D01*
X125076356Y-232760723D01*
X125193299Y-232752279D01*
X125289794Y-232732855D01*
X125372632Y-232703881D01*
X125508144Y-232642008D01*
X125629417Y-232571152D01*
X125747264Y-232483888D01*
X125872496Y-232372788D01*
X125916893Y-232330013D01*
X125982412Y-232264744D01*
X126031110Y-232213955D01*
X126059380Y-232181608D01*
X126063614Y-232171667D01*
X126058677Y-232174261D01*
X125851469Y-232302954D01*
X125672431Y-232405580D01*
X125520035Y-232483013D01*
X125512741Y-232486399D01*
X125405157Y-232532511D01*
X125281942Y-232579635D01*
X125154241Y-232624021D01*
X125033201Y-232661923D01*
X124929966Y-232689591D01*
X124875633Y-232700647D01*
X124824065Y-232713821D01*
X124812048Y-232729729D01*
X123330496Y-232729729D01*
X123128016Y-232674775D01*
X122875231Y-232577794D01*
X122646210Y-232459030D01*
X122586524Y-232421527D01*
X122517491Y-232381361D01*
X122449635Y-232350141D01*
X122410058Y-232337648D01*
X122357859Y-232322140D01*
X122284493Y-232294128D01*
X122204551Y-232259247D01*
X122192891Y-232253769D01*
X122032521Y-232155773D01*
X122032261Y-232155529D01*
X123984527Y-232155529D01*
X123991177Y-232171423D01*
X124009916Y-232192913D01*
X124014338Y-232197621D01*
X124039418Y-232222352D01*
X124064343Y-232237643D01*
X124096865Y-232243725D01*
X124144736Y-232240835D01*
X124215710Y-232229204D01*
X124317538Y-232209069D01*
X124327386Y-232207070D01*
X124409309Y-232188803D01*
X124503165Y-232165304D01*
X124601696Y-232138720D01*
X124697647Y-232111195D01*
X124783762Y-232084877D01*
X124852786Y-232061911D01*
X124897463Y-232044443D01*
X124910537Y-232034619D01*
X124910521Y-232034604D01*
X124888838Y-232034521D01*
X124837302Y-232040607D01*
X124765468Y-232051648D01*
X124734871Y-232056886D01*
X124647412Y-232070192D01*
X124534664Y-232084382D01*
X124411348Y-232097733D01*
X124295203Y-232108285D01*
X124171727Y-232118362D01*
X124083566Y-232126648D01*
X124026076Y-232134619D01*
X123994612Y-232143754D01*
X123984527Y-232155529D01*
X122032261Y-232155529D01*
X121893468Y-232025286D01*
X121777073Y-231864581D01*
X121684680Y-231675931D01*
X121617629Y-231461610D01*
X121577263Y-231223891D01*
X121575632Y-231208057D01*
X121561526Y-231121851D01*
X121536752Y-231019630D01*
X121506426Y-230922236D01*
X121503470Y-230914067D01*
X121425000Y-230672547D01*
X121414904Y-230633404D01*
X121805562Y-230633404D01*
X121814307Y-230776796D01*
X121823168Y-230864117D01*
X121841212Y-230935708D01*
X121874208Y-231010613D01*
X121899338Y-231057459D01*
X122069926Y-231333385D01*
X122255140Y-231573078D01*
X122456254Y-231778115D01*
X122540366Y-231849911D01*
X122660650Y-231947355D01*
X122790958Y-231934929D01*
X122858835Y-231927428D01*
X122908916Y-231919965D01*
X122929619Y-231914457D01*
X122933914Y-231909060D01*
X122930087Y-231901942D01*
X122911837Y-231888642D01*
X122872861Y-231864696D01*
X122806857Y-231825643D01*
X122790958Y-231816275D01*
X122571854Y-231668640D01*
X122375115Y-231496005D01*
X122197540Y-231294798D01*
X122035925Y-231061448D01*
X121905208Y-230828328D01*
X121805562Y-230633404D01*
X121414904Y-230633404D01*
X121353684Y-230396068D01*
X121290486Y-230089288D01*
X121236370Y-229756862D01*
X121194142Y-229420539D01*
X121184931Y-229315573D01*
X121177203Y-229187861D01*
X121171000Y-229043484D01*
X121166364Y-228888526D01*
X121163339Y-228729066D01*
X121161967Y-228571188D01*
X121162290Y-228420973D01*
X121164352Y-228284503D01*
X121168194Y-228167861D01*
X121173859Y-228077127D01*
X121181390Y-228018385D01*
X121184245Y-228007200D01*
X121195295Y-227976873D01*
X121201434Y-227975337D01*
X121204389Y-228006642D01*
X121205608Y-228057319D01*
X121212116Y-228216594D01*
X121226144Y-228405738D01*
X121246506Y-228615477D01*
X121272017Y-228836543D01*
X121301490Y-229059662D01*
X121333741Y-229275566D01*
X121367584Y-229474981D01*
X121401834Y-229648639D01*
X121418416Y-229721564D01*
X121449047Y-229843659D01*
X121481512Y-229964077D01*
X121513957Y-230076857D01*
X121544530Y-230176041D01*
X121571374Y-230255668D01*
X121592636Y-230309781D01*
X121606461Y-230332418D01*
X121608500Y-230332485D01*
X121626915Y-230300033D01*
X121636120Y-230236283D01*
X121636129Y-230148958D01*
X121626958Y-230045780D01*
X121608621Y-229934470D01*
X121607730Y-229930117D01*
X121578690Y-229780699D01*
X121555093Y-229637685D01*
X121536380Y-229494269D01*
X121521993Y-229343645D01*
X121511373Y-229179006D01*
X121503962Y-228993546D01*
X121499202Y-228780458D01*
X121496871Y-228578550D01*
X121493747Y-228188131D01*
X121609145Y-228188131D01*
X121611070Y-228266029D01*
X121615047Y-228363022D01*
X121620727Y-228472151D01*
X121627760Y-228586457D01*
X121635798Y-228698978D01*
X121644493Y-228802757D01*
X121650014Y-228859213D01*
X121661150Y-228953311D01*
X121675947Y-229061212D01*
X121693088Y-229175044D01*
X121711256Y-229286937D01*
X121729136Y-229389018D01*
X121745411Y-229473418D01*
X121758765Y-229532264D01*
X121766483Y-229555695D01*
X121777307Y-229547553D01*
X121797162Y-229507399D01*
X121823334Y-229441557D01*
X121853110Y-229356351D01*
X121856773Y-229345198D01*
X121901874Y-229210700D01*
X121942207Y-229097757D01*
X121976245Y-229010209D01*
X122002463Y-228951897D01*
X122019335Y-228926661D01*
X122023061Y-228926622D01*
X122022387Y-228948329D01*
X122014402Y-229001427D01*
X122000428Y-229078154D01*
X121981790Y-229170747D01*
X121979911Y-229179678D01*
X121954314Y-229306071D01*
X121927052Y-229449090D01*
X121902088Y-229587576D01*
X121889246Y-229663468D01*
X121850218Y-229902690D01*
X121911137Y-230077597D01*
X121962112Y-230211721D01*
X122025146Y-230358799D01*
X122094929Y-230507783D01*
X122166154Y-230647626D01*
X122233511Y-230767284D01*
X122271115Y-230826655D01*
X122366713Y-230953266D01*
X122482724Y-231083695D01*
X122606993Y-231205321D01*
X122727364Y-231305523D01*
X122744042Y-231317717D01*
X122804717Y-231357615D01*
X122879434Y-231401573D01*
X122960188Y-231445542D01*
X123038972Y-231485474D01*
X123107780Y-231517320D01*
X123158605Y-231537032D01*
X123183442Y-231540559D01*
X123183929Y-231540170D01*
X123180238Y-231519328D01*
X123162903Y-231471744D01*
X123135450Y-231406908D01*
X123129351Y-231393355D01*
X123070164Y-231257149D01*
X123003583Y-231094110D01*
X122933968Y-230915739D01*
X122865677Y-230733537D01*
X122803068Y-230559005D01*
X122750500Y-230403645D01*
X122731179Y-230342717D01*
X122697770Y-230231045D01*
X122661724Y-230104832D01*
X122624663Y-229970378D01*
X122588208Y-229833986D01*
X122553983Y-229701956D01*
X122523609Y-229580589D01*
X122498709Y-229476186D01*
X122480904Y-229395049D01*
X122471817Y-229343479D01*
X122470992Y-229332052D01*
X122478301Y-229339733D01*
X122498690Y-229380710D01*
X122530436Y-229451018D01*
X122571814Y-229546692D01*
X122621102Y-229663766D01*
X122676575Y-229798274D01*
X122718566Y-229901675D01*
X122806604Y-230118039D01*
X122884009Y-230303799D01*
X122954050Y-230465959D01*
X123019999Y-230611521D01*
X123085124Y-230747490D01*
X123152695Y-230880868D01*
X123225983Y-231018660D01*
X123308256Y-231167868D01*
X123317145Y-231183761D01*
X123397104Y-231325527D01*
X123460883Y-231435685D01*
X123511131Y-231518020D01*
X123550500Y-231576322D01*
X123581642Y-231614377D01*
X123607206Y-231635974D01*
X123629844Y-231644900D01*
X123640527Y-231645795D01*
X123676861Y-231635117D01*
X123736729Y-231606295D01*
X123810801Y-231564151D01*
X123866477Y-231529062D01*
X123948195Y-231472836D01*
X124049398Y-231399341D01*
X124158782Y-231316988D01*
X124265041Y-231234188D01*
X124294677Y-231210472D01*
X124313894Y-231194730D01*
X125477304Y-231194730D01*
X125487327Y-231204753D01*
X125497351Y-231194730D01*
X125487327Y-231184706D01*
X125477304Y-231194730D01*
X124313894Y-231194730D01*
X124334585Y-231177781D01*
X125517398Y-231177781D01*
X125532723Y-231173984D01*
X125578530Y-231144612D01*
X125654571Y-231089841D01*
X125760594Y-231009849D01*
X125814362Y-230968497D01*
X125881875Y-230914869D01*
X125934401Y-230870310D01*
X125965772Y-230840239D01*
X125971634Y-230830365D01*
X125953977Y-230838860D01*
X125911990Y-230867193D01*
X125852589Y-230910078D01*
X125782688Y-230962224D01*
X125709202Y-231018344D01*
X125639045Y-231073149D01*
X125579132Y-231121350D01*
X125536379Y-231157659D01*
X125517699Y-231176787D01*
X125517398Y-231177781D01*
X124334585Y-231177781D01*
X124380964Y-231139790D01*
X124475702Y-231060280D01*
X124574300Y-230976008D01*
X124672167Y-230891038D01*
X124764714Y-230809435D01*
X124847350Y-230735265D01*
X124915485Y-230672591D01*
X124964528Y-230625480D01*
X124989889Y-230597996D01*
X124992182Y-230592799D01*
X124972128Y-230584011D01*
X124921871Y-230564371D01*
X124848883Y-230536742D01*
X124760636Y-230503988D01*
X124756126Y-230502330D01*
X124289200Y-230310180D01*
X123838464Y-230083678D01*
X123406627Y-229824823D01*
X122996395Y-229535616D01*
X122610476Y-229218059D01*
X122251578Y-228874152D01*
X121922407Y-228505895D01*
X121739359Y-228272828D01*
X121688736Y-228206388D01*
X121646985Y-228154130D01*
X121619798Y-228123043D01*
X121612843Y-228117461D01*
X121609619Y-228136288D01*
X121609145Y-228188131D01*
X121493747Y-228188131D01*
X121491656Y-227927011D01*
X121357617Y-227706490D01*
X121112957Y-227265715D01*
X120904070Y-226807201D01*
X120730882Y-226330725D01*
X120593317Y-225836065D01*
X120491301Y-225322996D01*
X120442936Y-224970026D01*
X120433590Y-224858382D01*
X120426659Y-224715877D01*
X120422145Y-224551673D01*
X120420047Y-224374932D01*
X120420364Y-224194815D01*
X120423098Y-224020483D01*
X120428248Y-223861098D01*
X120435814Y-223725821D01*
X120442936Y-223646900D01*
X120521602Y-223120419D01*
X120636343Y-222611422D01*
X120787197Y-222119817D01*
X120974200Y-221645514D01*
X121197390Y-221188421D01*
X121456805Y-220748448D01*
X121752482Y-220325503D01*
X121866759Y-220178708D01*
X121968818Y-220057120D01*
X122093137Y-219918438D01*
X122231284Y-219771369D01*
X122374829Y-219624621D01*
X122515341Y-219486901D01*
X122644388Y-219366916D01*
X122700745Y-219317355D01*
X123103938Y-218997304D01*
X123527869Y-218711264D01*
X123971016Y-218459899D01*
X124431860Y-218243872D01*
X124908878Y-218063844D01*
X125400550Y-217920478D01*
X125905356Y-217814438D01*
X126269174Y-217762372D01*
X126418365Y-217748873D01*
X126596200Y-217738902D01*
X126792272Y-217732540D01*
X126996175Y-217729868D01*
X127197503Y-217730965D01*
X127385849Y-217735912D01*
X127550807Y-217744790D01*
X127632394Y-217751846D01*
X128151562Y-217824541D01*
X128654592Y-217933891D01*
X129141912Y-218080072D01*
X129613949Y-218263261D01*
X130071129Y-218483634D01*
X130513881Y-218741368D01*
X130942632Y-219036639D01*
X131170753Y-219213585D01*
X131258259Y-219287693D01*
X131362633Y-219381609D01*
X131477793Y-219489332D01*
X131597654Y-219604860D01*
X131716133Y-219722192D01*
X131827148Y-219835326D01*
X131924614Y-219938261D01*
X132002448Y-220024996D01*
X132042813Y-220073909D01*
X132085226Y-220126745D01*
X132117840Y-220164157D01*
X132133026Y-220177681D01*
X132144114Y-220160592D01*
X132170941Y-220111833D01*
X132211322Y-220035596D01*
X132263069Y-219936075D01*
X132323997Y-219817465D01*
X132391919Y-219683958D01*
X132438318Y-219592100D01*
X132582183Y-219309442D01*
X132720542Y-219043393D01*
X132852196Y-218796027D01*
X132975946Y-218569419D01*
X133090594Y-218365643D01*
X133194941Y-218186774D01*
X133287787Y-218034887D01*
X133367935Y-217912055D01*
X133434186Y-217820354D01*
X133485340Y-217761859D01*
X133505472Y-217745320D01*
X133540284Y-217724666D01*
X133552770Y-217724811D01*
G36*
X131671937Y-222434035D02*
X131661913Y-222444059D01*
X131651889Y-222434035D01*
X131661913Y-222424012D01*
X131671937Y-222434035D01*
X131671937Y-222434035D01*
G37*
X131671937Y-222434035D02*
X131661913Y-222444059D01*
X131651889Y-222434035D01*
X131661913Y-222424012D01*
X131671937Y-222434035D01*
G36*
X140122896Y-213255364D02*
X140254117Y-213274290D01*
X140360956Y-213305351D01*
X140377253Y-213312407D01*
X140442655Y-213342715D01*
X140382513Y-213332541D01*
X140173196Y-213309066D01*
X139977137Y-213310629D01*
X139803244Y-213337134D01*
X139796063Y-213338916D01*
X139593424Y-213405555D01*
X139382259Y-213505412D01*
X139161850Y-213639073D01*
X138931476Y-213807123D01*
X138690416Y-214010149D01*
X138437951Y-214248738D01*
X138173360Y-214523476D01*
X137895922Y-214834949D01*
X137757674Y-214998039D01*
X137629595Y-215152726D01*
X137507234Y-215303569D01*
X137388674Y-215453339D01*
X137271997Y-215604810D01*
X137155286Y-215760751D01*
X137036623Y-215923936D01*
X136914092Y-216097136D01*
X136785773Y-216283123D01*
X136649751Y-216484669D01*
X136504107Y-216704545D01*
X136346924Y-216945524D01*
X136176284Y-217210377D01*
X135990270Y-217501876D01*
X135786965Y-217822793D01*
X135616114Y-218093783D01*
X135226504Y-218722057D01*
X134851770Y-219344898D01*
X134497937Y-219952254D01*
X134408886Y-220108542D01*
X134328409Y-220249746D01*
X134235172Y-220412150D01*
X134136853Y-220582458D01*
X134041127Y-220747373D01*
X133957135Y-220891103D01*
X133873477Y-221034510D01*
X133781709Y-221193325D01*
X133688914Y-221355192D01*
X133602173Y-221507754D01*
X133528570Y-221638655D01*
X133526215Y-221642879D01*
X133462738Y-221756571D01*
X133402519Y-221864068D01*
X133349564Y-221958244D01*
X133307882Y-222031974D01*
X133281476Y-222078135D01*
X133280645Y-222079564D01*
X133230215Y-222166135D01*
X133152388Y-221959280D01*
X133111568Y-221856977D01*
X133060818Y-221739482D01*
X133002684Y-221611792D01*
X132939713Y-221478899D01*
X132874450Y-221345801D01*
X132809441Y-221217490D01*
X132747233Y-221098962D01*
X132690371Y-220995212D01*
X132641402Y-220911235D01*
X132602871Y-220852025D01*
X132577324Y-220822577D01*
X132571774Y-220820223D01*
X132558304Y-220836984D01*
X132529388Y-220883461D01*
X132488363Y-220953947D01*
X132438563Y-221042734D01*
X132393112Y-221125945D01*
X132319723Y-221261318D01*
X132241028Y-221405554D01*
X132159422Y-221554346D01*
X132077303Y-221703386D01*
X131997068Y-221848364D01*
X131921113Y-221984974D01*
X131851834Y-222108907D01*
X131791629Y-222215855D01*
X131742894Y-222301510D01*
X131708026Y-222361564D01*
X131689421Y-222391708D01*
X131687709Y-222393940D01*
X131686319Y-222385140D01*
X131696975Y-222345615D01*
X131717652Y-222282184D01*
X131738332Y-222223538D01*
X131788554Y-222085544D01*
X131844380Y-221933317D01*
X131904214Y-221771107D01*
X131966461Y-221603163D01*
X132029526Y-221433736D01*
X132091812Y-221267076D01*
X132151723Y-221107433D01*
X132207665Y-220959057D01*
X132258041Y-220826198D01*
X132301256Y-220713105D01*
X132335713Y-220624030D01*
X132359819Y-220563222D01*
X132371976Y-220534931D01*
X132372836Y-220533546D01*
X132389745Y-220541386D01*
X132421460Y-220576479D01*
X132461907Y-220631849D01*
X132473178Y-220648819D01*
X132514994Y-220710621D01*
X132549076Y-220756624D01*
X132569325Y-220778712D01*
X132571410Y-220779555D01*
X132584103Y-220762489D01*
X132612639Y-220715000D01*
X132654163Y-220642134D01*
X132705823Y-220548939D01*
X132764766Y-220440459D01*
X132794588Y-220384851D01*
X132864820Y-220254087D01*
X132948905Y-220098714D01*
X133041172Y-219929138D01*
X133135949Y-219755770D01*
X133227564Y-219589017D01*
X133283173Y-219488305D01*
X133363896Y-219342217D01*
X133458719Y-219170200D01*
X133562546Y-218981526D01*
X133670279Y-218785465D01*
X133776823Y-218591289D01*
X133877080Y-218408269D01*
X133912032Y-218344375D01*
X134074475Y-218049646D01*
X134234033Y-217764741D01*
X134388976Y-217492559D01*
X134537576Y-217235999D01*
X134678105Y-216997962D01*
X134808834Y-216781346D01*
X134928035Y-216589052D01*
X135033980Y-216423979D01*
X135124941Y-216289026D01*
X135193645Y-216194303D01*
X135289883Y-216078260D01*
X135375714Y-215994827D01*
X135449716Y-215944797D01*
X135510466Y-215928966D01*
X135556542Y-215948126D01*
X135577953Y-215979730D01*
X135597799Y-216033281D01*
X135601215Y-216064765D01*
X135589920Y-216068969D01*
X135565636Y-216040682D01*
X135560512Y-216032550D01*
X135521827Y-215985563D01*
X135485886Y-215972430D01*
X135485410Y-215972515D01*
X135447734Y-215996564D01*
X135395554Y-216056614D01*
X135329504Y-216151541D01*
X135250218Y-216280221D01*
X135158330Y-216441527D01*
X135054474Y-216634335D01*
X134939283Y-216857521D01*
X134813393Y-217109958D01*
X134677436Y-217390522D01*
X134628916Y-217492362D01*
X134581132Y-217594182D01*
X134522809Y-217720305D01*
X134455415Y-217867431D01*
X134380418Y-218032261D01*
X134299284Y-218211496D01*
X134213481Y-218401836D01*
X134124478Y-218599981D01*
X134033740Y-218802634D01*
X133942736Y-219006493D01*
X133852934Y-219208261D01*
X133765800Y-219404637D01*
X133682803Y-219592322D01*
X133605409Y-219768018D01*
X133535086Y-219928424D01*
X133473302Y-220070241D01*
X133421525Y-220190170D01*
X133381221Y-220284911D01*
X133353858Y-220351166D01*
X133340904Y-220385635D01*
X133340144Y-220389879D01*
X133352418Y-220375534D01*
X133383847Y-220332307D01*
X133431324Y-220264660D01*
X133491739Y-220177057D01*
X133561983Y-220073958D01*
X133616530Y-219993187D01*
X133707460Y-219858900D01*
X133815112Y-219701331D01*
X133936739Y-219524405D01*
X134069593Y-219332050D01*
X134210927Y-219128190D01*
X134357992Y-218916751D01*
X134508040Y-218701659D01*
X134658325Y-218486841D01*
X134806097Y-218276221D01*
X134948609Y-218073725D01*
X135083114Y-217883281D01*
X135206863Y-217708812D01*
X135317109Y-217554246D01*
X135411104Y-217423508D01*
X135486100Y-217320523D01*
X135507257Y-217291888D01*
X135873212Y-216805274D01*
X136222207Y-216353839D01*
X136555000Y-215936794D01*
X136872345Y-215553350D01*
X137175002Y-215202718D01*
X137463725Y-214884110D01*
X137739272Y-214596736D01*
X138002399Y-214339807D01*
X138253863Y-214112534D01*
X138494422Y-213914128D01*
X138724830Y-213743801D01*
X138945846Y-213600762D01*
X139158226Y-213484224D01*
X139159624Y-213483529D01*
X139317935Y-213407975D01*
X139452676Y-213351257D01*
X139573715Y-213310091D01*
X139690922Y-213281193D01*
X139814167Y-213261279D01*
X139835341Y-213258679D01*
X139979301Y-213249764D01*
X140122896Y-213255364D01*
X140122896Y-213255364D01*
G37*
X140122896Y-213255364D02*
X140254117Y-213274290D01*
X140360956Y-213305351D01*
X140377253Y-213312407D01*
X140442655Y-213342715D01*
X140382513Y-213332541D01*
X140173196Y-213309066D01*
X139977137Y-213310629D01*
X139803244Y-213337134D01*
X139796063Y-213338916D01*
X139593424Y-213405555D01*
X139382259Y-213505412D01*
X139161850Y-213639073D01*
X138931476Y-213807123D01*
X138690416Y-214010149D01*
X138437951Y-214248738D01*
X138173360Y-214523476D01*
X137895922Y-214834949D01*
X137757674Y-214998039D01*
X137629595Y-215152726D01*
X137507234Y-215303569D01*
X137388674Y-215453339D01*
X137271997Y-215604810D01*
X137155286Y-215760751D01*
X137036623Y-215923936D01*
X136914092Y-216097136D01*
X136785773Y-216283123D01*
X136649751Y-216484669D01*
X136504107Y-216704545D01*
X136346924Y-216945524D01*
X136176284Y-217210377D01*
X135990270Y-217501876D01*
X135786965Y-217822793D01*
X135616114Y-218093783D01*
X135226504Y-218722057D01*
X134851770Y-219344898D01*
X134497937Y-219952254D01*
X134408886Y-220108542D01*
X134328409Y-220249746D01*
X134235172Y-220412150D01*
X134136853Y-220582458D01*
X134041127Y-220747373D01*
X133957135Y-220891103D01*
X133873477Y-221034510D01*
X133781709Y-221193325D01*
X133688914Y-221355192D01*
X133602173Y-221507754D01*
X133528570Y-221638655D01*
X133526215Y-221642879D01*
X133462738Y-221756571D01*
X133402519Y-221864068D01*
X133349564Y-221958244D01*
X133307882Y-222031974D01*
X133281476Y-222078135D01*
X133280645Y-222079564D01*
X133230215Y-222166135D01*
X133152388Y-221959280D01*
X133111568Y-221856977D01*
X133060818Y-221739482D01*
X133002684Y-221611792D01*
X132939713Y-221478899D01*
X132874450Y-221345801D01*
X132809441Y-221217490D01*
X132747233Y-221098962D01*
X132690371Y-220995212D01*
X132641402Y-220911235D01*
X132602871Y-220852025D01*
X132577324Y-220822577D01*
X132571774Y-220820223D01*
X132558304Y-220836984D01*
X132529388Y-220883461D01*
X132488363Y-220953947D01*
X132438563Y-221042734D01*
X132393112Y-221125945D01*
X132319723Y-221261318D01*
X132241028Y-221405554D01*
X132159422Y-221554346D01*
X132077303Y-221703386D01*
X131997068Y-221848364D01*
X131921113Y-221984974D01*
X131851834Y-222108907D01*
X131791629Y-222215855D01*
X131742894Y-222301510D01*
X131708026Y-222361564D01*
X131689421Y-222391708D01*
X131687709Y-222393940D01*
X131686319Y-222385140D01*
X131696975Y-222345615D01*
X131717652Y-222282184D01*
X131738332Y-222223538D01*
X131788554Y-222085544D01*
X131844380Y-221933317D01*
X131904214Y-221771107D01*
X131966461Y-221603163D01*
X132029526Y-221433736D01*
X132091812Y-221267076D01*
X132151723Y-221107433D01*
X132207665Y-220959057D01*
X132258041Y-220826198D01*
X132301256Y-220713105D01*
X132335713Y-220624030D01*
X132359819Y-220563222D01*
X132371976Y-220534931D01*
X132372836Y-220533546D01*
X132389745Y-220541386D01*
X132421460Y-220576479D01*
X132461907Y-220631849D01*
X132473178Y-220648819D01*
X132514994Y-220710621D01*
X132549076Y-220756624D01*
X132569325Y-220778712D01*
X132571410Y-220779555D01*
X132584103Y-220762489D01*
X132612639Y-220715000D01*
X132654163Y-220642134D01*
X132705823Y-220548939D01*
X132764766Y-220440459D01*
X132794588Y-220384851D01*
X132864820Y-220254087D01*
X132948905Y-220098714D01*
X133041172Y-219929138D01*
X133135949Y-219755770D01*
X133227564Y-219589017D01*
X133283173Y-219488305D01*
X133363896Y-219342217D01*
X133458719Y-219170200D01*
X133562546Y-218981526D01*
X133670279Y-218785465D01*
X133776823Y-218591289D01*
X133877080Y-218408269D01*
X133912032Y-218344375D01*
X134074475Y-218049646D01*
X134234033Y-217764741D01*
X134388976Y-217492559D01*
X134537576Y-217235999D01*
X134678105Y-216997962D01*
X134808834Y-216781346D01*
X134928035Y-216589052D01*
X135033980Y-216423979D01*
X135124941Y-216289026D01*
X135193645Y-216194303D01*
X135289883Y-216078260D01*
X135375714Y-215994827D01*
X135449716Y-215944797D01*
X135510466Y-215928966D01*
X135556542Y-215948126D01*
X135577953Y-215979730D01*
X135597799Y-216033281D01*
X135601215Y-216064765D01*
X135589920Y-216068969D01*
X135565636Y-216040682D01*
X135560512Y-216032550D01*
X135521827Y-215985563D01*
X135485886Y-215972430D01*
X135485410Y-215972515D01*
X135447734Y-215996564D01*
X135395554Y-216056614D01*
X135329504Y-216151541D01*
X135250218Y-216280221D01*
X135158330Y-216441527D01*
X135054474Y-216634335D01*
X134939283Y-216857521D01*
X134813393Y-217109958D01*
X134677436Y-217390522D01*
X134628916Y-217492362D01*
X134581132Y-217594182D01*
X134522809Y-217720305D01*
X134455415Y-217867431D01*
X134380418Y-218032261D01*
X134299284Y-218211496D01*
X134213481Y-218401836D01*
X134124478Y-218599981D01*
X134033740Y-218802634D01*
X133942736Y-219006493D01*
X133852934Y-219208261D01*
X133765800Y-219404637D01*
X133682803Y-219592322D01*
X133605409Y-219768018D01*
X133535086Y-219928424D01*
X133473302Y-220070241D01*
X133421525Y-220190170D01*
X133381221Y-220284911D01*
X133353858Y-220351166D01*
X133340904Y-220385635D01*
X133340144Y-220389879D01*
X133352418Y-220375534D01*
X133383847Y-220332307D01*
X133431324Y-220264660D01*
X133491739Y-220177057D01*
X133561983Y-220073958D01*
X133616530Y-219993187D01*
X133707460Y-219858900D01*
X133815112Y-219701331D01*
X133936739Y-219524405D01*
X134069593Y-219332050D01*
X134210927Y-219128190D01*
X134357992Y-218916751D01*
X134508040Y-218701659D01*
X134658325Y-218486841D01*
X134806097Y-218276221D01*
X134948609Y-218073725D01*
X135083114Y-217883281D01*
X135206863Y-217708812D01*
X135317109Y-217554246D01*
X135411104Y-217423508D01*
X135486100Y-217320523D01*
X135507257Y-217291888D01*
X135873212Y-216805274D01*
X136222207Y-216353839D01*
X136555000Y-215936794D01*
X136872345Y-215553350D01*
X137175002Y-215202718D01*
X137463725Y-214884110D01*
X137739272Y-214596736D01*
X138002399Y-214339807D01*
X138253863Y-214112534D01*
X138494422Y-213914128D01*
X138724830Y-213743801D01*
X138945846Y-213600762D01*
X139158226Y-213484224D01*
X139159624Y-213483529D01*
X139317935Y-213407975D01*
X139452676Y-213351257D01*
X139573715Y-213310091D01*
X139690922Y-213281193D01*
X139814167Y-213261279D01*
X139835341Y-213258679D01*
X139979301Y-213249764D01*
X140122896Y-213255364D01*
D16*
X119564115Y-160065981D02*
X118992686Y-160065981D01*
X119278400Y-160065981D02*
X119278400Y-159065981D01*
X119183162Y-159208838D01*
X119087924Y-159304076D01*
X118992686Y-159351695D01*
X142100324Y-160015181D02*
X141528895Y-160015181D01*
X141814609Y-160015181D02*
X141814609Y-159015181D01*
X141719371Y-159158038D01*
X141624133Y-159253276D01*
X141528895Y-159300895D01*
X142719371Y-159015181D02*
X142814610Y-159015181D01*
X142909848Y-159062800D01*
X142957467Y-159110419D01*
X143005086Y-159205657D01*
X143052705Y-159396133D01*
X143052705Y-159634229D01*
X143005086Y-159824705D01*
X142957467Y-159919943D01*
X142909848Y-159967562D01*
X142814610Y-160015181D01*
X142719371Y-160015181D01*
X142624133Y-159967562D01*
X142576514Y-159919943D01*
X142528895Y-159824705D01*
X142481276Y-159634229D01*
X142481276Y-159396133D01*
X142528895Y-159205657D01*
X142576514Y-159110419D01*
X142624133Y-159062800D01*
X142719371Y-159015181D01*
X119564115Y-203195181D02*
X118992686Y-203195181D01*
X119278400Y-203195181D02*
X119278400Y-202195181D01*
X119183162Y-202338038D01*
X119087924Y-202433276D01*
X118992686Y-202480895D01*
X142201924Y-203195181D02*
X141630495Y-203195181D01*
X141916209Y-203195181D02*
X141916209Y-202195181D01*
X141820971Y-202338038D01*
X141725733Y-202433276D01*
X141630495Y-202480895D01*
X142820971Y-202195181D02*
X142916210Y-202195181D01*
X143011448Y-202242800D01*
X143059067Y-202290419D01*
X143106686Y-202385657D01*
X143154305Y-202576133D01*
X143154305Y-202814229D01*
X143106686Y-203004705D01*
X143059067Y-203099943D01*
X143011448Y-203147562D01*
X142916210Y-203195181D01*
X142820971Y-203195181D01*
X142725733Y-203147562D01*
X142678114Y-203099943D01*
X142630495Y-203004705D01*
X142582876Y-202814229D01*
X142582876Y-202576133D01*
X142630495Y-202385657D01*
X142678114Y-202290419D01*
X142725733Y-202242800D01*
X142820971Y-202195181D01*
X141430476Y-157694381D02*
X142097143Y-158694381D01*
X142097143Y-157694381D02*
X141430476Y-158694381D01*
X142525714Y-158694381D02*
X142716190Y-158694381D01*
X142811429Y-158646762D01*
X142859048Y-158599143D01*
X142954286Y-158456286D01*
X143001905Y-158265810D01*
X143001905Y-157884857D01*
X142954286Y-157789619D01*
X142906667Y-157742000D01*
X142811429Y-157694381D01*
X142620952Y-157694381D01*
X142525714Y-157742000D01*
X142478095Y-157789619D01*
X142430476Y-157884857D01*
X142430476Y-158122952D01*
X142478095Y-158218190D01*
X142525714Y-158265810D01*
X142620952Y-158313429D01*
X142811429Y-158313429D01*
X142906667Y-158265810D01*
X142954286Y-158218190D01*
X143001905Y-158122952D01*
X141582876Y-200925181D02*
X142249543Y-201925181D01*
X142249543Y-200925181D02*
X141582876Y-201925181D01*
X142773352Y-201353752D02*
X142678114Y-201306133D01*
X142630495Y-201258514D01*
X142582876Y-201163276D01*
X142582876Y-201115657D01*
X142630495Y-201020419D01*
X142678114Y-200972800D01*
X142773352Y-200925181D01*
X142963829Y-200925181D01*
X143059067Y-200972800D01*
X143106686Y-201020419D01*
X143154305Y-201115657D01*
X143154305Y-201163276D01*
X143106686Y-201258514D01*
X143059067Y-201306133D01*
X142963829Y-201353752D01*
X142773352Y-201353752D01*
X142678114Y-201401371D01*
X142630495Y-201448990D01*
X142582876Y-201544229D01*
X142582876Y-201734705D01*
X142630495Y-201829943D01*
X142678114Y-201877562D01*
X142773352Y-201925181D01*
X142963829Y-201925181D01*
X143059067Y-201877562D01*
X143106686Y-201829943D01*
X143154305Y-201734705D01*
X143154305Y-201544229D01*
X143106686Y-201448990D01*
X143059067Y-201401371D01*
X142963829Y-201353752D01*
X144257734Y-164491943D02*
X144210115Y-164539562D01*
X144067258Y-164587181D01*
X143972020Y-164587181D01*
X143829162Y-164539562D01*
X143733924Y-164444324D01*
X143686305Y-164349086D01*
X143638686Y-164158610D01*
X143638686Y-164015752D01*
X143686305Y-163825276D01*
X143733924Y-163730038D01*
X143829162Y-163634800D01*
X143972020Y-163587181D01*
X144067258Y-163587181D01*
X144210115Y-163634800D01*
X144257734Y-163682419D01*
X145210115Y-164587181D02*
X144638686Y-164587181D01*
X144924400Y-164587181D02*
X144924400Y-163587181D01*
X144829162Y-163730038D01*
X144733924Y-163825276D01*
X144638686Y-163872895D01*
X143686305Y-162301181D02*
X143686305Y-161301181D01*
X143924400Y-161301181D01*
X144067258Y-161348800D01*
X144162496Y-161444038D01*
X144210115Y-161539276D01*
X144257734Y-161729752D01*
X144257734Y-161872610D01*
X144210115Y-162063086D01*
X144162496Y-162158324D01*
X144067258Y-162253562D01*
X143924400Y-162301181D01*
X143686305Y-162301181D01*
X145210115Y-162301181D02*
X144638686Y-162301181D01*
X144924400Y-162301181D02*
X144924400Y-161301181D01*
X144829162Y-161444038D01*
X144733924Y-161539276D01*
X144638686Y-161586895D01*
X144019639Y-204703371D02*
X144162496Y-204750990D01*
X144210115Y-204798610D01*
X144257734Y-204893848D01*
X144257734Y-205036705D01*
X144210115Y-205131943D01*
X144162496Y-205179562D01*
X144067258Y-205227181D01*
X143686305Y-205227181D01*
X143686305Y-204227181D01*
X144019639Y-204227181D01*
X144114877Y-204274800D01*
X144162496Y-204322419D01*
X144210115Y-204417657D01*
X144210115Y-204512895D01*
X144162496Y-204608133D01*
X144114877Y-204655752D01*
X144019639Y-204703371D01*
X143686305Y-204703371D01*
X145210115Y-205227181D02*
X144638686Y-205227181D01*
X144924400Y-205227181D02*
X144924400Y-204227181D01*
X144829162Y-204370038D01*
X144733924Y-204465276D01*
X144638686Y-204512895D01*
X143710114Y-207481467D02*
X144186305Y-207481467D01*
X143614876Y-207767181D02*
X143948209Y-206767181D01*
X144281543Y-207767181D01*
X145138686Y-207767181D02*
X144567257Y-207767181D01*
X144852971Y-207767181D02*
X144852971Y-206767181D01*
X144757733Y-206910038D01*
X144662495Y-207005276D01*
X144567257Y-207052895D01*
X142295953Y-182713381D02*
X142915001Y-182713381D01*
X142581667Y-183094333D01*
X142724525Y-183094333D01*
X142819763Y-183141952D01*
X142867382Y-183189571D01*
X142915001Y-183284810D01*
X142915001Y-183522905D01*
X142867382Y-183618143D01*
X142819763Y-183665762D01*
X142724525Y-183713381D01*
X142438810Y-183713381D01*
X142343572Y-183665762D01*
X142295953Y-183618143D01*
X143343572Y-183618143D02*
X143391191Y-183665762D01*
X143343572Y-183713381D01*
X143295953Y-183665762D01*
X143343572Y-183618143D01*
X143343572Y-183713381D01*
X143724524Y-182713381D02*
X144343572Y-182713381D01*
X144010238Y-183094333D01*
X144153096Y-183094333D01*
X144248334Y-183141952D01*
X144295953Y-183189571D01*
X144343572Y-183284810D01*
X144343572Y-183522905D01*
X144295953Y-183618143D01*
X144248334Y-183665762D01*
X144153096Y-183713381D01*
X143867381Y-183713381D01*
X143772143Y-183665762D01*
X143724524Y-183618143D01*
X144629286Y-182713381D02*
X144962619Y-183713381D01*
X145295953Y-182713381D01*
X145391191Y-183808619D02*
X146153096Y-183808619D01*
X146581667Y-182713381D02*
X146772144Y-182713381D01*
X146867382Y-182761000D01*
X146962620Y-182856238D01*
X147010239Y-183046714D01*
X147010239Y-183380048D01*
X146962620Y-183570524D01*
X146867382Y-183665762D01*
X146772144Y-183713381D01*
X146581667Y-183713381D01*
X146486429Y-183665762D01*
X146391191Y-183570524D01*
X146343572Y-183380048D01*
X146343572Y-183046714D01*
X146391191Y-182856238D01*
X146486429Y-182761000D01*
X146581667Y-182713381D01*
X147438810Y-183713381D02*
X147438810Y-182713381D01*
X148010239Y-183713381D02*
X147581667Y-183141952D01*
X148010239Y-182713381D02*
X147438810Y-183284810D01*
X148438810Y-183713381D02*
X148438810Y-182713381D01*
X163679143Y-185078666D02*
X163726762Y-185126285D01*
X163774381Y-185269142D01*
X163774381Y-185364380D01*
X163726762Y-185507238D01*
X163631524Y-185602476D01*
X163536286Y-185650095D01*
X163345810Y-185697714D01*
X163202952Y-185697714D01*
X163012476Y-185650095D01*
X162917238Y-185602476D01*
X162822000Y-185507238D01*
X162774381Y-185364380D01*
X162774381Y-185269142D01*
X162822000Y-185126285D01*
X162869619Y-185078666D01*
X163107714Y-184221523D02*
X163774381Y-184221523D01*
X162726762Y-184459619D02*
X163441048Y-184697714D01*
X163441048Y-184078666D01*
X163322095Y-145121381D02*
X163322095Y-145930905D01*
X163369714Y-146026143D01*
X163417333Y-146073762D01*
X163512571Y-146121381D01*
X163703048Y-146121381D01*
X163798286Y-146073762D01*
X163845905Y-146026143D01*
X163893524Y-145930905D01*
X163893524Y-145121381D01*
X164893524Y-146121381D02*
X164322095Y-146121381D01*
X164607809Y-146121381D02*
X164607809Y-145121381D01*
X164512571Y-145264238D01*
X164417333Y-145359476D01*
X164322095Y-145407095D01*
X156631286Y-165568381D02*
X156964619Y-166568381D01*
X157297953Y-165568381D01*
X157631286Y-166568381D02*
X157631286Y-165568381D01*
X158202715Y-166568381D01*
X158202715Y-165568381D01*
X158678905Y-166568381D02*
X158678905Y-165568381D01*
X158678905Y-166044571D02*
X159250334Y-166044571D01*
X159250334Y-166568381D02*
X159250334Y-165568381D01*
X160202715Y-165568381D02*
X159726524Y-165568381D01*
X159678905Y-166044571D01*
X159726524Y-165996952D01*
X159821762Y-165949333D01*
X160059858Y-165949333D01*
X160155096Y-165996952D01*
X160202715Y-166044571D01*
X160250334Y-166139810D01*
X160250334Y-166377905D01*
X160202715Y-166473143D01*
X160155096Y-166520762D01*
X160059858Y-166568381D01*
X159821762Y-166568381D01*
X159726524Y-166520762D01*
X159678905Y-166473143D01*
X160869381Y-165568381D02*
X160964620Y-165568381D01*
X161059858Y-165616000D01*
X161107477Y-165663619D01*
X161155096Y-165758857D01*
X161202715Y-165949333D01*
X161202715Y-166187429D01*
X161155096Y-166377905D01*
X161107477Y-166473143D01*
X161059858Y-166520762D01*
X160964620Y-166568381D01*
X160869381Y-166568381D01*
X160774143Y-166520762D01*
X160726524Y-166473143D01*
X160678905Y-166377905D01*
X160631286Y-166187429D01*
X160631286Y-165949333D01*
X160678905Y-165758857D01*
X160726524Y-165663619D01*
X160774143Y-165616000D01*
X160869381Y-165568381D01*
X162155096Y-166568381D02*
X161583667Y-166568381D01*
X161869381Y-166568381D02*
X161869381Y-165568381D01*
X161774143Y-165711238D01*
X161678905Y-165806476D01*
X161583667Y-165854095D01*
X162631286Y-166568381D02*
X162821762Y-166568381D01*
X162917001Y-166520762D01*
X162964620Y-166473143D01*
X163059858Y-166330286D01*
X163107477Y-166139810D01*
X163107477Y-165758857D01*
X163059858Y-165663619D01*
X163012239Y-165616000D01*
X162917001Y-165568381D01*
X162726524Y-165568381D01*
X162631286Y-165616000D01*
X162583667Y-165663619D01*
X162536048Y-165758857D01*
X162536048Y-165996952D01*
X162583667Y-166092190D01*
X162631286Y-166139810D01*
X162726524Y-166187429D01*
X162917001Y-166187429D01*
X163012239Y-166139810D01*
X163059858Y-166092190D01*
X163107477Y-165996952D01*
X163488429Y-166282667D02*
X163964620Y-166282667D01*
X163393191Y-166568381D02*
X163726524Y-165568381D01*
X164059858Y-166568381D01*
X164393191Y-166187429D02*
X165155096Y-166187429D01*
X165631286Y-166044571D02*
X165964620Y-166044571D01*
X166107477Y-166568381D02*
X165631286Y-166568381D01*
X165631286Y-165568381D01*
X166107477Y-165568381D01*
X170732334Y-158323881D02*
X170399000Y-157847690D01*
X170160905Y-158323881D02*
X170160905Y-157323881D01*
X170541858Y-157323881D01*
X170637096Y-157371500D01*
X170684715Y-157419119D01*
X170732334Y-157514357D01*
X170732334Y-157657214D01*
X170684715Y-157752452D01*
X170637096Y-157800071D01*
X170541858Y-157847690D01*
X170160905Y-157847690D01*
X171684715Y-158323881D02*
X171113286Y-158323881D01*
X171399000Y-158323881D02*
X171399000Y-157323881D01*
X171303762Y-157466738D01*
X171208524Y-157561976D01*
X171113286Y-157609595D01*
X170691334Y-155275881D02*
X170358000Y-154799690D01*
X170119905Y-155275881D02*
X170119905Y-154275881D01*
X170500858Y-154275881D01*
X170596096Y-154323500D01*
X170643715Y-154371119D01*
X170691334Y-154466357D01*
X170691334Y-154609214D01*
X170643715Y-154704452D01*
X170596096Y-154752071D01*
X170500858Y-154799690D01*
X170119905Y-154799690D01*
X171072286Y-154371119D02*
X171119905Y-154323500D01*
X171215143Y-154275881D01*
X171453239Y-154275881D01*
X171548477Y-154323500D01*
X171596096Y-154371119D01*
X171643715Y-154466357D01*
X171643715Y-154561595D01*
X171596096Y-154704452D01*
X171024667Y-155275881D01*
X171643715Y-155275881D01*
X170691334Y-152291381D02*
X170358000Y-151815190D01*
X170119905Y-152291381D02*
X170119905Y-151291381D01*
X170500858Y-151291381D01*
X170596096Y-151339000D01*
X170643715Y-151386619D01*
X170691334Y-151481857D01*
X170691334Y-151624714D01*
X170643715Y-151719952D01*
X170596096Y-151767571D01*
X170500858Y-151815190D01*
X170119905Y-151815190D01*
X171024667Y-151291381D02*
X171643715Y-151291381D01*
X171310381Y-151672333D01*
X171453239Y-151672333D01*
X171548477Y-151719952D01*
X171596096Y-151767571D01*
X171643715Y-151862810D01*
X171643715Y-152100905D01*
X171596096Y-152196143D01*
X171548477Y-152243762D01*
X171453239Y-152291381D01*
X171167524Y-152291381D01*
X171072286Y-152243762D01*
X171024667Y-152196143D01*
X150252134Y-171777581D02*
X149918800Y-171301390D01*
X149680705Y-171777581D02*
X149680705Y-170777581D01*
X150061658Y-170777581D01*
X150156896Y-170825200D01*
X150204515Y-170872819D01*
X150252134Y-170968057D01*
X150252134Y-171110914D01*
X150204515Y-171206152D01*
X150156896Y-171253771D01*
X150061658Y-171301390D01*
X149680705Y-171301390D01*
X151109277Y-171110914D02*
X151109277Y-171777581D01*
X150871181Y-170729962D02*
X150633086Y-171444248D01*
X151252134Y-171444248D01*
X150201334Y-174696381D02*
X149868000Y-174220190D01*
X149629905Y-174696381D02*
X149629905Y-173696381D01*
X150010858Y-173696381D01*
X150106096Y-173744000D01*
X150153715Y-173791619D01*
X150201334Y-173886857D01*
X150201334Y-174029714D01*
X150153715Y-174124952D01*
X150106096Y-174172571D01*
X150010858Y-174220190D01*
X149629905Y-174220190D01*
X151106096Y-173696381D02*
X150629905Y-173696381D01*
X150582286Y-174172571D01*
X150629905Y-174124952D01*
X150725143Y-174077333D01*
X150963239Y-174077333D01*
X151058477Y-174124952D01*
X151106096Y-174172571D01*
X151153715Y-174267810D01*
X151153715Y-174505905D01*
X151106096Y-174601143D01*
X151058477Y-174648762D01*
X150963239Y-174696381D01*
X150725143Y-174696381D01*
X150629905Y-174648762D01*
X150582286Y-174601143D01*
X150252134Y-177721181D02*
X149918800Y-177244990D01*
X149680705Y-177721181D02*
X149680705Y-176721181D01*
X150061658Y-176721181D01*
X150156896Y-176768800D01*
X150204515Y-176816419D01*
X150252134Y-176911657D01*
X150252134Y-177054514D01*
X150204515Y-177149752D01*
X150156896Y-177197371D01*
X150061658Y-177244990D01*
X149680705Y-177244990D01*
X151109277Y-176721181D02*
X150918800Y-176721181D01*
X150823562Y-176768800D01*
X150775943Y-176816419D01*
X150680705Y-176959276D01*
X150633086Y-177149752D01*
X150633086Y-177530705D01*
X150680705Y-177625943D01*
X150728324Y-177673562D01*
X150823562Y-177721181D01*
X151014039Y-177721181D01*
X151109277Y-177673562D01*
X151156896Y-177625943D01*
X151204515Y-177530705D01*
X151204515Y-177292610D01*
X151156896Y-177197371D01*
X151109277Y-177149752D01*
X151014039Y-177102133D01*
X150823562Y-177102133D01*
X150728324Y-177149752D01*
X150680705Y-177197371D01*
X150633086Y-177292610D01*
X169672095Y-163790381D02*
X169672095Y-164599905D01*
X169719714Y-164695143D01*
X169767333Y-164742762D01*
X169862571Y-164790381D01*
X170053048Y-164790381D01*
X170148286Y-164742762D01*
X170195905Y-164695143D01*
X170243524Y-164599905D01*
X170243524Y-163790381D01*
X170672095Y-163885619D02*
X170719714Y-163838000D01*
X170814952Y-163790381D01*
X171053048Y-163790381D01*
X171148286Y-163838000D01*
X171195905Y-163885619D01*
X171243524Y-163980857D01*
X171243524Y-164076095D01*
X171195905Y-164218952D01*
X170624476Y-164790381D01*
X171243524Y-164790381D01*
X155488286Y-147153381D02*
X155821619Y-148153381D01*
X156154953Y-147153381D01*
X156488286Y-148153381D02*
X156488286Y-147153381D01*
X157059715Y-148153381D01*
X157059715Y-147153381D01*
X157535905Y-148153381D02*
X157535905Y-147153381D01*
X157535905Y-147629571D02*
X158107334Y-147629571D01*
X158107334Y-148153381D02*
X158107334Y-147153381D01*
X159059715Y-147153381D02*
X158583524Y-147153381D01*
X158535905Y-147629571D01*
X158583524Y-147581952D01*
X158678762Y-147534333D01*
X158916858Y-147534333D01*
X159012096Y-147581952D01*
X159059715Y-147629571D01*
X159107334Y-147724810D01*
X159107334Y-147962905D01*
X159059715Y-148058143D01*
X159012096Y-148105762D01*
X158916858Y-148153381D01*
X158678762Y-148153381D01*
X158583524Y-148105762D01*
X158535905Y-148058143D01*
X159726381Y-147153381D02*
X159821620Y-147153381D01*
X159916858Y-147201000D01*
X159964477Y-147248619D01*
X160012096Y-147343857D01*
X160059715Y-147534333D01*
X160059715Y-147772429D01*
X160012096Y-147962905D01*
X159964477Y-148058143D01*
X159916858Y-148105762D01*
X159821620Y-148153381D01*
X159726381Y-148153381D01*
X159631143Y-148105762D01*
X159583524Y-148058143D01*
X159535905Y-147962905D01*
X159488286Y-147772429D01*
X159488286Y-147534333D01*
X159535905Y-147343857D01*
X159583524Y-147248619D01*
X159631143Y-147201000D01*
X159726381Y-147153381D01*
X161012096Y-148153381D02*
X160440667Y-148153381D01*
X160726381Y-148153381D02*
X160726381Y-147153381D01*
X160631143Y-147296238D01*
X160535905Y-147391476D01*
X160440667Y-147439095D01*
X161488286Y-148153381D02*
X161678762Y-148153381D01*
X161774001Y-148105762D01*
X161821620Y-148058143D01*
X161916858Y-147915286D01*
X161964477Y-147724810D01*
X161964477Y-147343857D01*
X161916858Y-147248619D01*
X161869239Y-147201000D01*
X161774001Y-147153381D01*
X161583524Y-147153381D01*
X161488286Y-147201000D01*
X161440667Y-147248619D01*
X161393048Y-147343857D01*
X161393048Y-147581952D01*
X161440667Y-147677190D01*
X161488286Y-147724810D01*
X161583524Y-147772429D01*
X161774001Y-147772429D01*
X161869239Y-147724810D01*
X161916858Y-147677190D01*
X161964477Y-147581952D01*
X162345429Y-147867667D02*
X162821620Y-147867667D01*
X162250191Y-148153381D02*
X162583524Y-147153381D01*
X162916858Y-148153381D01*
X163250191Y-147772429D02*
X164012096Y-147772429D01*
X164488286Y-147629571D02*
X164821620Y-147629571D01*
X164964477Y-148153381D02*
X164488286Y-148153381D01*
X164488286Y-147153381D01*
X164964477Y-147153381D01*
X133326143Y-185459666D02*
X133373762Y-185507285D01*
X133421381Y-185650142D01*
X133421381Y-185745380D01*
X133373762Y-185888238D01*
X133278524Y-185983476D01*
X133183286Y-186031095D01*
X132992810Y-186078714D01*
X132849952Y-186078714D01*
X132659476Y-186031095D01*
X132564238Y-185983476D01*
X132469000Y-185888238D01*
X132421381Y-185745380D01*
X132421381Y-185650142D01*
X132469000Y-185507285D01*
X132516619Y-185459666D01*
X132516619Y-185078714D02*
X132469000Y-185031095D01*
X132421381Y-184935857D01*
X132421381Y-184697761D01*
X132469000Y-184602523D01*
X132516619Y-184554904D01*
X132611857Y-184507285D01*
X132707095Y-184507285D01*
X132849952Y-184554904D01*
X133421381Y-185126333D01*
X133421381Y-184507285D01*
X133199143Y-181871857D02*
X133246762Y-181919476D01*
X133294381Y-182062333D01*
X133294381Y-182157571D01*
X133246762Y-182300429D01*
X133151524Y-182395667D01*
X133056286Y-182443286D01*
X132865810Y-182490905D01*
X132722952Y-182490905D01*
X132532476Y-182443286D01*
X132437238Y-182395667D01*
X132342000Y-182300429D01*
X132294381Y-182157571D01*
X132294381Y-182062333D01*
X132342000Y-181919476D01*
X132389619Y-181871857D01*
X133294381Y-180919476D02*
X133294381Y-181490905D01*
X133294381Y-181205191D02*
X132294381Y-181205191D01*
X132437238Y-181300429D01*
X132532476Y-181395667D01*
X132580095Y-181490905D01*
X132389619Y-180538524D02*
X132342000Y-180490905D01*
X132294381Y-180395667D01*
X132294381Y-180157571D01*
X132342000Y-180062333D01*
X132389619Y-180014714D01*
X132484857Y-179967095D01*
X132580095Y-179967095D01*
X132722952Y-180014714D01*
X133294381Y-180586143D01*
X133294381Y-179967095D01*
X133802381Y-201291666D02*
X133326190Y-201625000D01*
X133802381Y-201863095D02*
X132802381Y-201863095D01*
X132802381Y-201482142D01*
X132850000Y-201386904D01*
X132897619Y-201339285D01*
X132992857Y-201291666D01*
X133135714Y-201291666D01*
X133230952Y-201339285D01*
X133278571Y-201386904D01*
X133326190Y-201482142D01*
X133326190Y-201863095D01*
X132802381Y-200958333D02*
X132802381Y-200291666D01*
X133802381Y-200720238D01*
X132024381Y-201334666D02*
X131548190Y-201668000D01*
X132024381Y-201906095D02*
X131024381Y-201906095D01*
X131024381Y-201525142D01*
X131072000Y-201429904D01*
X131119619Y-201382285D01*
X131214857Y-201334666D01*
X131357714Y-201334666D01*
X131452952Y-201382285D01*
X131500571Y-201429904D01*
X131548190Y-201525142D01*
X131548190Y-201906095D01*
X131452952Y-200763238D02*
X131405333Y-200858476D01*
X131357714Y-200906095D01*
X131262476Y-200953714D01*
X131214857Y-200953714D01*
X131119619Y-200906095D01*
X131072000Y-200858476D01*
X131024381Y-200763238D01*
X131024381Y-200572761D01*
X131072000Y-200477523D01*
X131119619Y-200429904D01*
X131214857Y-200382285D01*
X131262476Y-200382285D01*
X131357714Y-200429904D01*
X131405333Y-200477523D01*
X131452952Y-200572761D01*
X131452952Y-200763238D01*
X131500571Y-200858476D01*
X131548190Y-200906095D01*
X131643429Y-200953714D01*
X131833905Y-200953714D01*
X131929143Y-200906095D01*
X131976762Y-200858476D01*
X132024381Y-200763238D01*
X132024381Y-200572761D01*
X131976762Y-200477523D01*
X131929143Y-200429904D01*
X131833905Y-200382285D01*
X131643429Y-200382285D01*
X131548190Y-200429904D01*
X131500571Y-200477523D01*
X131452952Y-200572761D01*
X130246381Y-201291666D02*
X129770190Y-201625000D01*
X130246381Y-201863095D02*
X129246381Y-201863095D01*
X129246381Y-201482142D01*
X129294000Y-201386904D01*
X129341619Y-201339285D01*
X129436857Y-201291666D01*
X129579714Y-201291666D01*
X129674952Y-201339285D01*
X129722571Y-201386904D01*
X129770190Y-201482142D01*
X129770190Y-201863095D01*
X130246381Y-200815476D02*
X130246381Y-200625000D01*
X130198762Y-200529761D01*
X130151143Y-200482142D01*
X130008286Y-200386904D01*
X129817810Y-200339285D01*
X129436857Y-200339285D01*
X129341619Y-200386904D01*
X129294000Y-200434523D01*
X129246381Y-200529761D01*
X129246381Y-200720238D01*
X129294000Y-200815476D01*
X129341619Y-200863095D01*
X129436857Y-200910714D01*
X129674952Y-200910714D01*
X129770190Y-200863095D01*
X129817810Y-200815476D01*
X129865429Y-200720238D01*
X129865429Y-200529761D01*
X129817810Y-200434523D01*
X129770190Y-200386904D01*
X129674952Y-200339285D01*
X128468381Y-202234857D02*
X127992190Y-202568191D01*
X128468381Y-202806286D02*
X127468381Y-202806286D01*
X127468381Y-202425333D01*
X127516000Y-202330095D01*
X127563619Y-202282476D01*
X127658857Y-202234857D01*
X127801714Y-202234857D01*
X127896952Y-202282476D01*
X127944571Y-202330095D01*
X127992190Y-202425333D01*
X127992190Y-202806286D01*
X128468381Y-201282476D02*
X128468381Y-201853905D01*
X128468381Y-201568191D02*
X127468381Y-201568191D01*
X127611238Y-201663429D01*
X127706476Y-201758667D01*
X127754095Y-201853905D01*
X127468381Y-200663429D02*
X127468381Y-200568190D01*
X127516000Y-200472952D01*
X127563619Y-200425333D01*
X127658857Y-200377714D01*
X127849333Y-200330095D01*
X128087429Y-200330095D01*
X128277905Y-200377714D01*
X128373143Y-200425333D01*
X128420762Y-200472952D01*
X128468381Y-200568190D01*
X128468381Y-200663429D01*
X128420762Y-200758667D01*
X128373143Y-200806286D01*
X128277905Y-200853905D01*
X128087429Y-200901524D01*
X127849333Y-200901524D01*
X127658857Y-200853905D01*
X127563619Y-200806286D01*
X127516000Y-200758667D01*
X127468381Y-200663429D01*
X166600143Y-185078666D02*
X166647762Y-185126285D01*
X166695381Y-185269142D01*
X166695381Y-185364380D01*
X166647762Y-185507238D01*
X166552524Y-185602476D01*
X166457286Y-185650095D01*
X166266810Y-185697714D01*
X166123952Y-185697714D01*
X165933476Y-185650095D01*
X165838238Y-185602476D01*
X165743000Y-185507238D01*
X165695381Y-185364380D01*
X165695381Y-185269142D01*
X165743000Y-185126285D01*
X165790619Y-185078666D01*
X165695381Y-184745333D02*
X165695381Y-184126285D01*
X166076333Y-184459619D01*
X166076333Y-184316761D01*
X166123952Y-184221523D01*
X166171571Y-184173904D01*
X166266810Y-184126285D01*
X166504905Y-184126285D01*
X166600143Y-184173904D01*
X166647762Y-184221523D01*
X166695381Y-184316761D01*
X166695381Y-184602476D01*
X166647762Y-184697714D01*
X166600143Y-184745333D01*
X158726143Y-185205666D02*
X158773762Y-185253285D01*
X158821381Y-185396142D01*
X158821381Y-185491380D01*
X158773762Y-185634238D01*
X158678524Y-185729476D01*
X158583286Y-185777095D01*
X158392810Y-185824714D01*
X158249952Y-185824714D01*
X158059476Y-185777095D01*
X157964238Y-185729476D01*
X157869000Y-185634238D01*
X157821381Y-185491380D01*
X157821381Y-185396142D01*
X157869000Y-185253285D01*
X157916619Y-185205666D01*
X157821381Y-184300904D02*
X157821381Y-184777095D01*
X158297571Y-184824714D01*
X158249952Y-184777095D01*
X158202333Y-184681857D01*
X158202333Y-184443761D01*
X158249952Y-184348523D01*
X158297571Y-184300904D01*
X158392810Y-184253285D01*
X158630905Y-184253285D01*
X158726143Y-184300904D01*
X158773762Y-184348523D01*
X158821381Y-184443761D01*
X158821381Y-184681857D01*
X158773762Y-184777095D01*
X158726143Y-184824714D01*
X155805143Y-185205666D02*
X155852762Y-185253285D01*
X155900381Y-185396142D01*
X155900381Y-185491380D01*
X155852762Y-185634238D01*
X155757524Y-185729476D01*
X155662286Y-185777095D01*
X155471810Y-185824714D01*
X155328952Y-185824714D01*
X155138476Y-185777095D01*
X155043238Y-185729476D01*
X154948000Y-185634238D01*
X154900381Y-185491380D01*
X154900381Y-185396142D01*
X154948000Y-185253285D01*
X154995619Y-185205666D01*
X154900381Y-184348523D02*
X154900381Y-184539000D01*
X154948000Y-184634238D01*
X154995619Y-184681857D01*
X155138476Y-184777095D01*
X155328952Y-184824714D01*
X155709905Y-184824714D01*
X155805143Y-184777095D01*
X155852762Y-184729476D01*
X155900381Y-184634238D01*
X155900381Y-184443761D01*
X155852762Y-184348523D01*
X155805143Y-184300904D01*
X155709905Y-184253285D01*
X155471810Y-184253285D01*
X155376571Y-184300904D01*
X155328952Y-184348523D01*
X155281333Y-184443761D01*
X155281333Y-184634238D01*
X155328952Y-184729476D01*
X155376571Y-184777095D01*
X155471810Y-184824714D01*
X169521143Y-185078666D02*
X169568762Y-185126285D01*
X169616381Y-185269142D01*
X169616381Y-185364380D01*
X169568762Y-185507238D01*
X169473524Y-185602476D01*
X169378286Y-185650095D01*
X169187810Y-185697714D01*
X169044952Y-185697714D01*
X168854476Y-185650095D01*
X168759238Y-185602476D01*
X168664000Y-185507238D01*
X168616381Y-185364380D01*
X168616381Y-185269142D01*
X168664000Y-185126285D01*
X168711619Y-185078666D01*
X169616381Y-184602476D02*
X169616381Y-184412000D01*
X169568762Y-184316761D01*
X169521143Y-184269142D01*
X169378286Y-184173904D01*
X169187810Y-184126285D01*
X168806857Y-184126285D01*
X168711619Y-184173904D01*
X168664000Y-184221523D01*
X168616381Y-184316761D01*
X168616381Y-184507238D01*
X168664000Y-184602476D01*
X168711619Y-184650095D01*
X168806857Y-184697714D01*
X169044952Y-184697714D01*
X169140190Y-184650095D01*
X169187810Y-184602476D01*
X169235429Y-184507238D01*
X169235429Y-184316761D01*
X169187810Y-184221523D01*
X169140190Y-184173904D01*
X169044952Y-184126285D01*
X129436905Y-174801381D02*
X129436905Y-173801381D01*
X129675000Y-173801381D01*
X129817858Y-173849000D01*
X129913096Y-173944238D01*
X129960715Y-174039476D01*
X130008334Y-174229952D01*
X130008334Y-174372810D01*
X129960715Y-174563286D01*
X129913096Y-174658524D01*
X129817858Y-174753762D01*
X129675000Y-174801381D01*
X129436905Y-174801381D01*
X130960715Y-174801381D02*
X130389286Y-174801381D01*
X130675000Y-174801381D02*
X130675000Y-173801381D01*
X130579762Y-173944238D01*
X130484524Y-174039476D01*
X130389286Y-174087095D01*
X135204143Y-176548381D02*
X134870809Y-176072190D01*
X134632714Y-176548381D02*
X134632714Y-175548381D01*
X135013667Y-175548381D01*
X135108905Y-175596000D01*
X135156524Y-175643619D01*
X135204143Y-175738857D01*
X135204143Y-175881714D01*
X135156524Y-175976952D01*
X135108905Y-176024571D01*
X135013667Y-176072190D01*
X134632714Y-176072190D01*
X136156524Y-176548381D02*
X135585095Y-176548381D01*
X135870809Y-176548381D02*
X135870809Y-175548381D01*
X135775571Y-175691238D01*
X135680333Y-175786476D01*
X135585095Y-175834095D01*
X137108905Y-176548381D02*
X136537476Y-176548381D01*
X136823190Y-176548381D02*
X136823190Y-175548381D01*
X136727952Y-175691238D01*
X136632714Y-175786476D01*
X136537476Y-175834095D01*
M02*
