M48
;DRILL file {KiCad 4.0.7} date 08/13/18 10:27:36
;FORMAT={-:-/ absolute / inch / decimal}
FMAT,2
INCH,TZ
T1C0.012
T2C0.016
T3C0.030
T4C0.035
T5C0.039
T6C0.160
%
G90
G05
M72
T1
X5.692Y-6.372
X5.692Y-6.418
X5.742Y-6.372
X5.742Y-6.418
X6.Y-5.85
X6.Y-5.9
X6.Y-5.95
X6.Y-6.
X6.Y-6.05
X6.Y-6.2
X6.Y-6.25
X6.Y-6.3
X6.Y-6.35
X6.Y-6.4
X6.05Y-5.85
X6.05Y-5.9
X6.05Y-5.95
X6.05Y-6.
X6.05Y-6.05
X6.05Y-6.2
X6.05Y-6.25
X6.05Y-6.3
X6.05Y-6.35
X6.05Y-6.4
X6.1Y-5.85
X6.1Y-5.9
X6.1Y-5.95
X6.1Y-6.
X6.1Y-6.05
X6.1Y-6.2
X6.1Y-6.25
X6.1Y-6.3
X6.1Y-6.35
X6.1Y-6.4
X6.15Y-5.85
X6.15Y-5.9
X6.15Y-5.95
X6.15Y-6.
X6.15Y-6.05
X6.15Y-6.2
X6.15Y-6.25
X6.15Y-6.3
X6.15Y-6.35
X6.15Y-6.4
X6.25Y-5.95
X6.25Y-6.
X6.25Y-6.05
X6.25Y-6.1
X6.25Y-6.15
X6.25Y-6.2
X6.25Y-6.25
X6.25Y-6.3
X6.25Y-6.65
X6.25Y-6.7
X6.25Y-6.75
X6.25Y-6.8
X6.25Y-6.85
X6.25Y-6.9
X6.25Y-6.95
X6.25Y-6.95
X6.25Y-7.
X6.25Y-7.04
X6.3Y-5.95
X6.3Y-6.
X6.3Y-6.05
X6.3Y-6.1
X6.3Y-6.15
X6.3Y-6.2
X6.3Y-6.25
X6.3Y-6.3
X6.3Y-6.65
X6.3Y-6.7
X6.3Y-6.75
X6.3Y-6.8
X6.3Y-6.85
X6.3Y-6.9
X6.3Y-6.95
X6.3Y-7.
X6.3Y-7.04
X6.35Y-5.95
X6.35Y-6.
X6.35Y-6.05
X6.35Y-6.1
X6.35Y-6.15
X6.35Y-6.2
X6.35Y-6.25
X6.35Y-6.3
X6.35Y-6.65
X6.35Y-6.7
X6.35Y-6.75
X6.35Y-6.8
X6.35Y-6.85
X6.35Y-6.9
X6.35Y-6.95
X6.35Y-7.
X6.35Y-7.04
X6.4Y-5.95
X6.4Y-6.
X6.4Y-6.05
X6.4Y-6.1
X6.4Y-6.15
X6.4Y-6.2
X6.4Y-6.25
X6.4Y-6.3
X6.4Y-6.65
X6.4Y-6.7
X6.4Y-6.75
X6.4Y-6.8
X6.4Y-6.85
X6.4Y-6.9
X6.4Y-6.95
X6.4Y-7.
X6.4Y-7.04
X6.5Y-6.6
X6.5Y-6.65
X6.5Y-6.7
X6.5Y-6.75
X6.5Y-6.8
X6.5Y-6.9
X6.5Y-6.95
X6.5Y-7.
X6.5Y-7.05
X6.5Y-7.1
X6.55Y-6.6
X6.55Y-6.65
X6.55Y-6.7
X6.55Y-6.75
X6.55Y-6.8
X6.55Y-6.9
X6.55Y-6.95
X6.55Y-7.
X6.55Y-7.05
X6.55Y-7.1
X6.6Y-6.6
X6.6Y-6.65
X6.6Y-6.7
X6.6Y-6.75
X6.6Y-6.8
X6.6Y-6.9
X6.6Y-6.95
X6.6Y-7.
X6.6Y-7.05
X6.6Y-7.1
X6.65Y-6.6
X6.65Y-6.65
X6.65Y-6.7
X6.65Y-6.75
X6.65Y-6.8
X6.65Y-6.9
X6.65Y-6.95
X6.65Y-7.
X6.65Y-7.05
X6.65Y-7.1
T2
X4.7Y-6.62
X4.795Y-6.7
X4.88Y-6.77
X4.98Y-6.865
X5.055Y-6.855
X5.465Y-6.69
X5.515Y-6.635
X5.665Y-6.7653
X5.738Y-7.098
X5.746Y-6.474
X5.788Y-6.72
X5.815Y-6.5593
X6.2Y-6.445
X6.33Y-7.245
T3
X4.81Y-6.775
X4.81Y-6.875
X4.81Y-7.08
X4.81Y-7.18
X4.81Y-7.385
X4.81Y-7.485
X4.81Y-7.69
X4.81Y-7.79
X5.315Y-6.555
X5.315Y-6.855
X5.415Y-6.555
X5.415Y-6.855
X5.45Y-7.775
X5.515Y-6.555
X5.515Y-6.855
X5.55Y-7.775
X5.65Y-7.775
X5.9Y-7.775
X6.Y-7.775
X6.1Y-7.775
T4
X5.415Y-7.115
X5.415Y-7.215
X5.415Y-7.315
T5
X4.696Y-6.362
X4.696Y-6.462
X4.696Y-8.062
X4.696Y-8.162
X4.796Y-6.362
X4.796Y-6.462
X4.796Y-8.062
X4.796Y-8.162
X4.896Y-6.362
X4.896Y-6.462
X4.896Y-8.062
X4.896Y-8.162
X4.996Y-6.362
X4.996Y-6.462
X4.996Y-8.062
X4.996Y-8.162
X5.096Y-6.362
X5.096Y-6.462
X5.096Y-8.062
X5.096Y-8.162
X5.196Y-6.362
X5.196Y-6.462
X5.196Y-8.062
X5.196Y-8.162
X5.296Y-6.362
X5.296Y-6.462
X5.296Y-8.062
X5.296Y-8.162
X5.396Y-6.362
X5.396Y-6.462
X5.396Y-8.062
X5.396Y-8.162
X5.496Y-6.362
X5.496Y-6.462
X5.496Y-8.062
X5.496Y-8.162
X5.596Y-6.362
X5.596Y-6.462
X5.596Y-8.062
X5.596Y-8.162
T6
X4.806Y-5.605
X5.121Y-5.605
X5.511Y-5.605
X5.826Y-5.605
X6.141Y-5.605
X6.536Y-5.605
X6.851Y-5.605
T0
M30
