G04 #@! TF.FileFunction,Soldermask,Top*
%FSLAX46Y46*%
G04 Gerber Fmt 4.6, Leading zero omitted, Abs format (unit mm)*
G04 Created by KiCad (PCBNEW 4.0.7) date 08/13/18 10:27:34*
%MOMM*%
%LPD*%
G01*
G04 APERTURE LIST*
%ADD10C,0.100000*%
%ADD11C,1.520000*%
%ADD12C,1.524000*%
%ADD13R,0.750000X1.200000*%
%ADD14R,1.854200X0.635000*%
%ADD15R,5.257800X6.223000*%
%ADD16R,5.257800X10.312400*%
%ADD17C,5.080000*%
%ADD18R,1.200000X0.900000*%
%ADD19R,0.900000X1.200000*%
%ADD20R,1.000000X1.600000*%
G04 APERTURE END LIST*
D10*
D11*
X119278400Y-204774800D03*
X121818400Y-204774800D03*
X124358400Y-204774800D03*
X126898400Y-204774800D03*
X129438400Y-204774800D03*
X131978400Y-204774800D03*
X134518400Y-204774800D03*
X137058400Y-204774800D03*
X139598400Y-204774800D03*
X142138400Y-204774800D03*
X119278400Y-207314800D03*
X121818400Y-207314800D03*
X124358400Y-207314800D03*
X126898400Y-207314800D03*
X129438400Y-207314800D03*
X131978400Y-207314800D03*
X134518400Y-207314800D03*
X137058400Y-207314800D03*
X139598400Y-207314800D03*
X142138400Y-207314800D03*
X119278400Y-164134800D03*
X121818400Y-164134800D03*
X124358400Y-164134800D03*
X126898400Y-164134800D03*
X129438400Y-164134800D03*
X131978400Y-164134800D03*
X134518400Y-164134800D03*
X137058400Y-164134800D03*
X139598400Y-164134800D03*
X142138400Y-164134800D03*
X119278400Y-161594800D03*
X121818400Y-161594800D03*
X124358400Y-161594800D03*
X126898400Y-161594800D03*
X129438400Y-161594800D03*
X131978400Y-161594800D03*
X134518400Y-161594800D03*
X137058400Y-161594800D03*
X139598400Y-161594800D03*
X142138400Y-161594800D03*
D12*
X149860000Y-197485000D03*
X152400000Y-197485000D03*
X154940000Y-197485000D03*
X137541000Y-185801000D03*
X137541000Y-183261000D03*
X137541000Y-180721000D03*
X122174000Y-182372000D03*
X122174000Y-179832000D03*
D13*
X161950400Y-184012800D03*
X161950400Y-185912800D03*
D14*
X166636700Y-162295599D03*
X166636700Y-161295601D03*
X166636700Y-160295600D03*
X166636700Y-159295600D03*
X166636700Y-158295599D03*
X166636700Y-157295601D03*
X166636700Y-156295601D03*
X166636700Y-155295600D03*
X166636700Y-154295599D03*
X166636700Y-153295599D03*
X166636700Y-152295601D03*
X166636700Y-151295600D03*
X166636700Y-150295600D03*
X166636700Y-149295599D03*
X166636700Y-148295599D03*
X148628100Y-148295601D03*
X148628100Y-149295599D03*
X148628100Y-150295600D03*
X148628100Y-151295600D03*
X148628100Y-152295601D03*
X148628100Y-153295599D03*
X148628100Y-154295599D03*
X148628100Y-155295600D03*
X148628100Y-156295601D03*
X148628100Y-157295601D03*
X148628100Y-158295599D03*
X148628100Y-159295600D03*
X148628100Y-160295600D03*
X148628100Y-161295601D03*
X148628100Y-162295601D03*
D15*
X154584400Y-159461200D03*
D16*
X160680400Y-155295600D03*
D15*
X154584400Y-151130000D03*
D17*
X139980400Y-142367000D03*
X147979400Y-142367000D03*
X155980400Y-142367000D03*
X122071400Y-142367000D03*
X130072400Y-142367000D03*
X166013400Y-142367000D03*
X174014400Y-142367000D03*
D18*
X169799000Y-159321500D03*
X171999000Y-159321500D03*
X169758000Y-156273500D03*
X171958000Y-156273500D03*
X169758000Y-153289000D03*
X171958000Y-153289000D03*
X151518800Y-169875200D03*
X149318800Y-169875200D03*
X151518800Y-172872400D03*
X149318800Y-172872400D03*
X151518800Y-175818800D03*
X149318800Y-175818800D03*
D12*
X135001000Y-166497000D03*
X135001000Y-174117000D03*
X137541000Y-166497000D03*
X137541000Y-174117000D03*
X140081000Y-166497000D03*
X140081000Y-174117000D03*
D14*
X154774900Y-166837601D03*
X154774900Y-167837599D03*
X154774900Y-168837600D03*
X154774900Y-169837600D03*
X154774900Y-170837601D03*
X154774900Y-171837599D03*
X154774900Y-172837599D03*
X154774900Y-173837600D03*
X154774900Y-174837601D03*
X154774900Y-175837601D03*
X154774900Y-176837599D03*
X154774900Y-177837600D03*
X154774900Y-178837600D03*
X154774900Y-179837601D03*
X154774900Y-180837601D03*
X172783500Y-180837599D03*
X172783500Y-179837601D03*
X172783500Y-178837600D03*
X172783500Y-177837600D03*
X172783500Y-176837599D03*
X172783500Y-175837601D03*
X172783500Y-174837601D03*
X172783500Y-173837600D03*
X172783500Y-172837599D03*
X172783500Y-171837599D03*
X172783500Y-170837601D03*
X172783500Y-169837600D03*
X172783500Y-168837600D03*
X172783500Y-167837599D03*
X172783500Y-166837599D03*
D15*
X166827200Y-169672000D03*
D16*
X160731200Y-173837600D03*
D15*
X166827200Y-178003200D03*
D13*
X134366000Y-186304000D03*
X134366000Y-184404000D03*
X134366000Y-180218000D03*
X134366000Y-182118000D03*
D19*
X133350000Y-197020000D03*
X133350000Y-199220000D03*
X131572000Y-197020000D03*
X131572000Y-199220000D03*
X129794000Y-197020000D03*
X129794000Y-199220000D03*
X128016000Y-197020000D03*
X128016000Y-199220000D03*
D12*
X122174000Y-174625000D03*
X122174000Y-172085000D03*
X122174000Y-190119000D03*
X122174000Y-187579000D03*
X122174000Y-197866000D03*
X122174000Y-195326000D03*
D13*
X164846000Y-183962000D03*
X164846000Y-185862000D03*
X159664400Y-184063600D03*
X159664400Y-185963600D03*
X156718000Y-184089000D03*
X156718000Y-185989000D03*
X167767000Y-183962000D03*
X167767000Y-185862000D03*
D12*
X138430000Y-197485000D03*
X140970000Y-197485000D03*
X143510000Y-197485000D03*
D20*
X128675000Y-176149000D03*
X131675000Y-176149000D03*
D18*
X134747000Y-177546000D03*
X136947000Y-177546000D03*
M02*
